<svg xmlns="http://www.w3.org/2000/svg" width="1000.4" height="1000.4" viewBox="-50 -30 100.03993 100.03999">
  <path d="M.01994-29.98c27.61426 0 50.00002 22.38574 50.00002 50 0 27.6142-22.38576 50-50.00002 50-27.6142 0-49.99997-22.3858-49.99997-50 0-27.61426 22.38576-50 49.99997-50z" fill="#ce252c"/>
  <path d="M.01995-18.3135c21.17102 0 38.3335 17.16247 38.3335 38.3335 0 21.17098-17.16248 38.3335-38.3335 38.3335-21.17097 0-38.33348-17.16252-38.33348-38.3335 0-21.17103 17.1625-38.3335 38.33348-38.3335z" fill="#ffd100"/>
  <path d="M-31.1667 31.3676c0 .43333.35186.78472.78562.78472l3.35185-.00037c-.4647 2.0944.39563 4.25994 2.17064 5.46486 1.7749 1.2046 4.1047 1.2042 5.8798-.0006 1.7744-1.2049 2.6341-3.3708 2.1694-5.4648l19.8768-.0015c-.4646 2.0937.3955 4.2592 2.1706 5.4641 1.7747 1.2046 4.1051 1.2042 5.8794-.0009 1.7751-1.2049 2.6349-3.3704 2.1698-5.4644l2.6043-.0004c-.4646 2.0944.3955 4.25994 2.1702 5.46447 1.7751 1.2045 4.1053 1.2045 5.8797-.00064 1.7751-1.20492 2.63445-3.37045 2.1698-5.46447l3.3519-.00056c.46233 0 .9065-.184 1.2339-.51145.32704-.32703.51066-.7708.51066-1.23353l-.0022-23.46686c0-.46244-.184-.90637-.51103-1.2337-.3272-.32725-.77096-.51075-1.23406-.51075l-40.303.0037c-.4631.0004-.9069.1842-1.23395.51116-.3274.3273-.51103.77125-.51103 1.23408l.0015 13.25968h-1.8319l-.0008-5.9319c0-.36997-.14685-.7252-.40894-.9868-.26164-.26166-.61697-.40887-.98693-.40887l-9.15895.0011c-1.45604 0-2.7584.90375-3.26807 2.26767l-2.92562 7.82695.00072 8.40004z"/>
  <path d="M-25.64226 16.3622l-2.08686 5.58327 10.3611-.00077-.00037-5.58327-8.2738.00077z" fill="#ffd100"/>
  <path d="M-30.58352-17.1484l6.14364-4.3018 55.06332 78.63858-6.14363 4.30182z" opacity=".99" fill="#ce252c"/>
</svg>
