<svg xmlns="http://www.w3.org/2000/svg" width="500" height="750.00031" version="1">
  <path d="M0 0h500v750.0003H0z" fill="#ffd100"/>
  <path d="M29.1563 0c-7.7361 0-15.1555 3.0621-20.625 8.5311C3.0618 14.0016 0 21.4205 0 29.1561V720.844c0 7.7356 3.0618 15.1545 8.5313 20.625 5.4695 5.4691 12.8889 8.5313 20.625 8.5313h441.6875c7.7361 0 15.1555-3.0622 20.625-8.5313 5.4695-5.4705 8.5312-12.8894 8.5312-20.625V29.1561c0-7.7356-3.0617-15.1545-8.5312-20.625C485.9993 3.0621 478.5799 0 470.8438 0z" fill="#ce252c"/>
  <path d="M17 716.6597c0 4.336 1.7169 8.4922 4.7826 11.558 3.0673 3.0658 7.2221 4.7826 11.5581 4.7826h433.3187c4.3358 0 8.4907-1.7168 11.558-4.7826 3.0657-3.0658 4.7826-7.222 4.7826-11.558V33.3406c0-4.3361-1.7169-8.4923-4.7826-11.5581-3.0673-3.0658-7.2222-4.7826-11.558-4.7826H33.3407c-4.336 0-8.4908 1.7168-11.5581 4.7826C18.7169 24.8483 17 29.0045 17 33.3406z" fill="#ffd100"/>
  <path d="M250.0001 681.2503C180.9644 681.2503 125 625.2859 125 556.2502c0-69.0355 55.9644-124.9999 125.0001-124.9999C319.0356 431.2503 375 487.2147 375 556.2502c0 69.0357-55.9644 125.0001-124.9999 125.0001z" fill="#ce252c"/>
  <path d="M250 652.0841c-52.9275 0-95.8338-42.9063-95.8338-95.8338 0-52.9275 42.9063-95.8338 95.8338-95.8338 52.9275 0 95.8337 42.9063 95.8337 95.8338 0 52.9275-42.9062 95.8338-95.8337 95.8338z" fill="#0c479d"/>
  <path d="M341.482 634.4739l-13.2583 13.2583-169.7056-169.7056 13.2582-13.2583z" opacity=".99" fill="#ce252c"/>
  <path d="M151.8408 265.1019c-3.9683 8.7201-11.4505 15.348-20.5887 18.2342-4.6403 1.1111-9.4783 1.1111-14.1186 0-4.261-.8777-8.279-2.6855-11.7629-5.2939v31.7656H87.1332V209.8059h18.2374v5.2949c3.413-2.724 7.4588-4.5454 11.7629-5.2949 5.6845-1.2271 11.5992-.8183 17.0599 1.1779 7.7493 3.3696 14.0171 9.4298 17.6474 17.0587 4.4745 11.9481 4.4745 25.1111 0 37.0594z"/>
  <path d="M105.3706 254.5141c1.6431 5.8914 6.3864 10.4091 12.3508 11.7629 3.7058.8114 7.577-.049 10.5894-2.3525 4.1621-3.3846 6.8945-8.2176 7.6482-13.5291.3876-2.7319.3876-5.5033 0-8.2353-.7537-5.3137-3.4861-10.1445-7.6482-13.529-3.0124-2.304-6.8836-3.1641-10.5894-2.3548-5.9644 1.3559-10.7077 5.8737-12.3508 11.7651v16.4727z" fill="#ffd100"/>
  <path d="M176.5422 282.7474h18.2353v-99.9986h-18.2353v99.9986zm107.6453-72.9415h-18.2363v5.2949c-3.4155-2.724-7.4613-4.5454-11.7652-5.2949-5.682-1.2271-11.5976-.8183-17.0569 1.1779-7.7502 3.3696-14.0185 9.4298-17.6479 17.0587-4.4745 11.9481-4.4745 25.1111 0 37.0594 3.9689 8.7201 11.45 15.348 20.5892 18.2342 4.6391 1.1111 9.4765 1.1111 14.1156 0 4.2642-.8777 8.2815-2.6855 11.7652-5.2939v4.7052h18.2363v-72.9415z"/>
  <path d="M265.9512 254.5141c-1.6428 5.8914-6.3853 10.4091-12.3517 11.7629-3.7042.8114-7.5782-.049-10.5878-2.3525-4.1651-3.3846-6.8947-8.2176-7.6488-13.5291-.388-2.7319-.388-5.5033 0-8.2353.7541-5.3137 3.4837-10.1445 7.6488-13.529 3.0096-2.304 6.8836-3.1641 10.5878-2.3548 5.9664 1.3559 10.7089 5.8737 12.3517 11.7651v16.4727z" fill="#ffd100"/>
  <path d="M309.4112 228.0425v42.3532c-.1481 3.3205 1.1047 6.5484 3.4528 8.8988 2.3527 2.3504 5.5828 3.6051 8.9033 3.4529h12.9405v-18.2343h-2.9413c-1.1157.079-2.2093-.3284-3.0009-1.1201-.7892-.7893-1.1995-1.8829-1.1178-2.9963v-32.3542h9.117v-18.2366h-9.117v-27.0571l-18.2366 8.8218v18.2353h-7.351v18.2366h7.351zM124.1251 50.7476L92.361 150.7483H65.2997L33.536 50.7476h19.1332l26.1612 82.3596 26.1614-82.3596h19.1333zm30.8789-3.2341c6.0096 0 10.8821 4.8707 10.8821 10.8822 0 6.0096-4.8725 10.8823-10.8821 10.8823s-10.8824-4.8727-10.8824-10.8823c0-6.0115 4.8728-10.8822 10.8824-10.8822zm38.8242 0c6.0096 0 10.8821 4.8707 10.8821 10.8822 0 6.0096-4.8725 10.8823-10.8821 10.8823-6.0119 0-10.8824-4.8727-10.8824-10.8823 0-6.0115 4.8705-10.8822 10.8824-10.8822zm13.5283 30.2931h-18.2353v5.2949c-3.4149-2.7259-7.4609-4.5454-11.765-5.2949-5.6824-1.2271-11.5971-.8202-17.0577 1.1757-7.7492 3.3699-14.0172 9.4289-17.6476 17.0597-4.4743 11.9482-4.4743 25.1106 0 37.0589 3.9684 8.7224 11.4508 15.3499 20.5889 18.2353 4.6401 1.111 9.4763 1.111 14.1164 0 4.2634-.8786 8.2811-2.6873 11.765-5.2949v4.707h18.2353V77.8066zm156.1269 180.8239c5.0977 3.4705 10.9428 5.6864 17.0613 6.4714 3.9225.5468 7.9154.3461 11.7651-.5888 1.42-.3329 2.6746-1.1686 3.5278-2.3525.8202-1.1157 1.0275-2.5665.5557-3.8652-.474-1.3009-1.5655-2.2776-2.9082-2.6062l-24.7056-5.8826c-8.0543-2.5024-13.679-9.7808-14.0736-18.2057-.3969-8.4247 4.5244-16.1944 12.3076-19.4414 4.134-1.6537 8.502-2.6464 12.9403-2.9415 12.5171-1.2271 25.054 2.1169 35.2955 9.4118l-9.999 14.7065c-7.3621-4.6303-16.047-6.6984-24.7056-5.8826-1.8234.055-3.6204.4542-5.2961 1.1774-1.2171.6879-1.9227 2.0285-1.7925 3.4242.1252 1.3956 1.0583 2.5862 2.3813 3.0449.5798.2249 1.1663.4212 1.766.5887l22.9394 5.2938c7.0512 1.8324 12.623 7.2343 14.6712 14.2259 2.0505 6.9894.2757 14.5456-4.6699 19.8923-4.4406 4.3744-10.2615 7.0755-16.4704 7.6465-6.4447.8158-12.9667.8158-19.4116 0-7.7215-.9967-15.0328-4.0438-21.1777-8.8216l9.999-15.2953zM230.8849 150.7483h18.232v-44.1189c0-6.3347 5.1373-11.4699 11.472-11.4699 6.3368 0 11.4719 5.1352 11.4719 11.4699v44.1189h18.2342v-47.9365c-.1605-9.6873-5.6113-18.5089-14.1993-22.9874-8.5902-4.481-18.942-3.8997-26.9788 1.5114v-3.5292h-18.232v72.9417z"/>
  <path d="M189.1212 122.5134c-1.6429 5.8934-6.3863 10.4107-12.3527 11.7631-3.7037.8116-7.5772-.049-10.5874-2.3513-4.1644-3.3872-6.8944-8.2188-7.6481-13.5308-.3875-2.7302-.3875-5.5037 0-8.2337.7537-5.3143 3.4837-10.1459 7.6481-13.5308 3.0102-2.3017 6.8837-3.1629 10.5874-2.3532 5.9664 1.3541 10.7098 5.8714 12.3527 11.7648v16.4719z" fill="#ffd100"/>
  <path d="M378.5273 77.8066v-27.059h-18.2365v32.3539c-3.4153-2.7259-7.459-4.5454-11.7652-5.2949-5.6819-1.2271-11.5953-.8202-17.0569 1.1757-7.75 3.3699-14.0162 9.4289-17.6477 17.0597-4.4736 11.9482-4.4736 25.1106 0 37.0589 3.9687 8.7224 11.4499 15.3499 20.589 18.2353 4.6391 1.111 9.4788 1.111 14.1156 0 4.2642-.8786 8.2815-2.6873 11.7652-5.2949v4.707h18.2365V77.8066zm84.7043 44.7068v-18.2353h-64.1175v18.2353h64.1175"/>
  <path d="M360.2908 122.5134c-1.6426 5.8934-6.3853 10.4107-12.3517 11.7631-3.7042.8116-7.5759-.049-10.5878-2.3513-4.1628-3.3872-6.8945-8.2188-7.6486-13.5308-.388-2.7302-.388-5.5037 0-8.2337.7541-5.3143 3.4858-10.1459 7.6486-13.5308 3.0119-2.3017 6.8836-3.1629 10.5878-2.3532 5.9664 1.3541 10.7091 5.8714 12.3517 11.7648v16.4719z" fill="#ffd100"/>
</svg>
