<?xml version="1.0" encoding="UTF-8" standalone="no"?>
<!-- Created with Inkscape (http://www.inkscape.org/) -->

<svg
   xmlns:dc="http://purl.org/dc/elements/1.1/"
   xmlns:cc="http://creativecommons.org/ns#"
   xmlns:rdf="http://www.w3.org/1999/02/22-rdf-syntax-ns#"
   xmlns:svg="http://www.w3.org/2000/svg"
   xmlns="http://www.w3.org/2000/svg"
   xmlns:sodipodi="http://sodipodi.sourceforge.net/DTD/sodipodi-0.dtd"
   xmlns:inkscape="http://www.inkscape.org/namespaces/inkscape"
   width="1330.0005"
   height="500"
   id="svg2"
   sodipodi:version="0.32"
   inkscape:version="0.48.4 r9939"
   version="1.0"
   sodipodi:docname="AJAX.svg"
   inkscape:output_extension="org.inkscape.output.svg.inkscape">
  <defs
     id="defs4">
    <inkscape:perspective
       sodipodi:type="inkscape:persp3d"
       inkscape:vp_x="0 : 300.5 : 1"
       inkscape:vp_y="0 : 1000 : 0"
       inkscape:vp_z="601 : 300.5 : 1"
       inkscape:persp3d-origin="300.5 : 200.33333 : 1"
       id="perspective3380" />
    <inkscape:perspective
       id="perspective3990"
       inkscape:persp3d-origin="375 : 250 : 1"
       inkscape:vp_z="750 : 375 : 1"
       inkscape:vp_y="0 : 1000 : 0"
       inkscape:vp_x="0 : 375 : 1"
       sodipodi:type="inkscape:persp3d" />
  </defs>
  <sodipodi:namedview
     id="base"
     pagecolor="#ffffff"
     bordercolor="#666666"
     borderopacity="1.0"
     gridtolerance="10000"
     guidetolerance="10"
     objecttolerance="10"
     inkscape:pageopacity="0.0"
     inkscape:pageshadow="2"
     inkscape:zoom="0.40916487"
     inkscape:cx="606.42499"
     inkscape:cy="215.43275"
     inkscape:document-units="px"
     inkscape:current-layer="layer1"
     width="601px"
     height="601px"
     inkscape:window-width="1280"
     inkscape:window-height="1001"
     inkscape:window-x="-8"
     inkscape:window-y="-8"
     showgrid="false"
     fit-margin-top="0"
     fit-margin-left="0"
     fit-margin-right="0"
     fit-margin-bottom="0"
     inkscape:window-maximized="1"
     showguides="true"
     inkscape:guide-bbox="true" />
  <metadata
     id="metadata7">
    <rdf:RDF>
      <cc:Work
         rdf:about="">
        <dc:format>image/svg+xml</dc:format>
        <dc:type
           rdf:resource="http://purl.org/dc/dcmitype/StillImage" />
        <dc:title />
      </cc:Work>
    </rdf:RDF>
  </metadata>
  <g
     inkscape:label="Layer 1"
     inkscape:groupmode="layer"
     id="layer1"
     transform="translate(2918.2099,4169.6448)">
    <rect
       style="color:#000000;fill:#000000;fill-opacity:1;fill-rule:nonzero;stroke:none;stroke-width:0.8735441;marker:none;visibility:visible;display:inline;overflow:visible"
       id="rect3653"
       width="0"
       height="27.202072"
       x="578.73834"
       y="298.1684"
       rx="249.48199"
       ry="27.202072" />
    <path
       inkscape:connector-curvature="0"
       style="fill:#0c479d;fill-opacity:1;fill-rule:nonzero;stroke:none"
       d="m -2918.2099,-4169.6448 0,500 1330.0005,0 0,-500 z"
       id="path11"
       sodipodi:nodetypes="ccccc" />
    <path
       style="fill:#ffffff;fill-rule:nonzero;stroke:none"
       d="m -2870.5849,-3669.6448 c -12.6294,0 -24.7595,-5.0077 -33.6875,-13.9375 -8.9317,-8.9276 -13.9375,-21.058 -13.9375,-33.6875 l 5e-4,-404.75 c 0,-12.6295 5.0053,-24.7599 13.937,-33.6875 8.928,-8.9298 21.0581,-13.9375 33.6875,-13.9375 l 1234.7505,0 c 12.6294,0 24.7595,5.0077 33.6875,13.9375 8.9317,8.9276 13.9375,21.058 13.9375,33.6875 l 0,404.75 c 0,12.6295 -5.0058,24.7599 -13.9375,33.6875 -8.928,8.9298 -21.0581,13.9375 -33.6875,13.9375 z"
       id="path13-1"
       inkscape:connector-curvature="0"
       sodipodi:nodetypes="scsscsscsscss" />
    <path
       style="fill:#0c479d;fill-opacity:1;fill-rule:nonzero;stroke:none"
       d="m -2894.4003,-4122.022 c 0,-13.1525 10.6616,-23.8128 23.8128,-23.8128 l 1234.7549,0 c 13.1512,0 23.8128,10.6603 23.8128,23.8128 l 0,404.7543 c 0,13.1524 -10.6616,23.8128 -23.8128,23.8128 l -1234.7549,0 c -13.1512,0 -23.8128,-10.6604 -23.8128,-23.8128 z"
       id="path15-7"
       inkscape:connector-curvature="0"
       sodipodi:nodetypes="sssssssss" />
    <path
       inkscape:connector-curvature="0"
       style="fill:#ffffff;fill-rule:nonzero;stroke:none"
       d="m -2503.2094,-3952.9778 666.665,0 0,66.666 -666.665,0 0,133.332 -166.665,-166.665 166.665,-166.665 z"
       id="path17"
       sodipodi:nodetypes="cccccccc" />
  </g>
</svg>
