<?xml version="1.0" encoding="UTF-8" standalone="no"?>
<!-- Created with Inkscape (http://www.inkscape.org/) -->

<svg
   xmlns:dc="http://purl.org/dc/elements/1.1/"
   xmlns:cc="http://creativecommons.org/ns#"
   xmlns:rdf="http://www.w3.org/1999/02/22-rdf-syntax-ns#"
   xmlns:svg="http://www.w3.org/2000/svg"
   xmlns="http://www.w3.org/2000/svg"
   xmlns:sodipodi="http://sodipodi.sourceforge.net/DTD/sodipodi-0.dtd"
   xmlns:inkscape="http://www.inkscape.org/namespaces/inkscape"
   width="500"
   height="665.00012"
   id="svg2"
   sodipodi:version="0.32"
   inkscape:version="0.48.4 r9939"
   version="1.0"
   sodipodi:docname="AJAX.svg"
   inkscape:output_extension="org.inkscape.output.svg.inkscape">
  <defs
     id="defs4">
    <inkscape:perspective
       sodipodi:type="inkscape:persp3d"
       inkscape:vp_x="0 : 300.5 : 1"
       inkscape:vp_y="0 : 1000 : 0"
       inkscape:vp_z="601 : 300.5 : 1"
       inkscape:persp3d-origin="300.5 : 200.33333 : 1"
       id="perspective3380" />
    <inkscape:perspective
       id="perspective3990"
       inkscape:persp3d-origin="375 : 250 : 1"
       inkscape:vp_z="750 : 375 : 1"
       inkscape:vp_y="0 : 1000 : 0"
       inkscape:vp_x="0 : 375 : 1"
       sodipodi:type="inkscape:persp3d" />
  </defs>
  <sodipodi:namedview
     id="base"
     pagecolor="#ffffff"
     bordercolor="#666666"
     borderopacity="1.0"
     gridtolerance="10000"
     guidetolerance="10"
     objecttolerance="10"
     inkscape:pageopacity="0.0"
     inkscape:pageshadow="2"
     inkscape:zoom="0.62497736"
     inkscape:cx="284.68609"
     inkscape:cy="278.02844"
     inkscape:document-units="px"
     inkscape:current-layer="layer1"
     width="601px"
     height="601px"
     inkscape:window-width="1280"
     inkscape:window-height="1001"
     inkscape:window-x="-8"
     inkscape:window-y="-8"
     showgrid="false"
     fit-margin-top="0"
     fit-margin-left="0"
     fit-margin-right="0"
     fit-margin-bottom="0"
     inkscape:window-maximized="1"
     showguides="true"
     inkscape:guide-bbox="true" />
  <metadata
     id="metadata7">
    <rdf:RDF>
      <cc:Work
         rdf:about="">
        <dc:format>image/svg+xml</dc:format>
        <dc:type
           rdf:resource="http://purl.org/dc/dcmitype/StillImage" />
        <dc:title />
      </cc:Work>
    </rdf:RDF>
  </metadata>
  <g
     inkscape:label="Layer 1"
     inkscape:groupmode="layer"
     id="layer1"
     transform="translate(2503.2096,3919.6447)">
    <rect
       style="color:#000000;fill:#000000;fill-opacity:1;fill-rule:nonzero;stroke:none;stroke-width:0.8735441;marker:none;visibility:visible;display:inline;overflow:visible"
       id="rect3653"
       width="0"
       height="27.202072"
       x="578.73834"
       y="298.1684"
       rx="249.48199"
       ry="27.202072" />
    <path
       inkscape:connector-curvature="0"
       style="fill:#007459;fill-opacity:1;fill-rule:nonzero;stroke:none"
       d="m -2503.2096,-3919.6447 500,0 0,665.0001 -500,0 z"
       id="path11"
       sodipodi:nodetypes="ccccc" />
    <path
       inkscape:connector-curvature="0"
       style="fill:#ffffff;fill-rule:nonzero;stroke:none"
       d="m -2317.0773,-3684.2285 30.5241,-179.1659 20.833,0 -6.6352,179.1659 -44.7219,0 z"
       id="path19-9" />
    <path
       inkscape:connector-curvature="0"
       style="fill:#ffffff;fill-rule:nonzero;stroke:none"
       d="m -2330.5652,-3605.0599 55.2774,0 -11.2654,304.1653 -95.8334,0 51.8214,-304.1653 z"
       id="path25-8" />
    <path
       id="path3850"
       d="m -2189.3595,-3684.2285 -30.5241,-179.1659 -20.833,0 6.6352,179.1659 44.7219,0 z"
       style="fill:#ffffff;fill-rule:nonzero;stroke:none"
       inkscape:connector-curvature="0" />
    <path
       id="path3852"
       d="m -2175.8716,-3605.0599 -55.2774,0 11.2654,304.1653 95.8334,0 -51.8214,-304.1653 z"
       style="fill:#ffffff;fill-rule:nonzero;stroke:none"
       inkscape:connector-curvature="0" />
    <path
       style="fill:#ffffff;fill-rule:nonzero;stroke:none"
       d="m -2406.2096,-3605.0599 7.5,-41.6563 -62.5,0 0,-20.8437 208,0 208,0 0,20.8437 -62.5,0 7.5,41.6563 -49.5,0 9,-41.6563 -112.5,0 -112.5,0 9,41.6563 -49.5,0 z"
       id="path3866"
       inkscape:connector-curvature="0" />
    <path
       sodipodi:nodetypes="ccccccc"
       inkscape:connector-curvature="0"
       id="path3967"
       d="m -2015.7096,-3833.5348 -426.04,566.3902 -51.46,2.5 2.5,-76.11 426.04,-566.3902 51.46,-2.5 z"
       style="fill:#ce252c;fill-opacity:1;stroke:none" />
    <path
       id="path4002"
       transform="translate(-2503.2096,-3919.6447)"
       d="M 29.15625,0 C 21.42015,0 14.00075,3.06225 8.53125,8.53125 3.06175,14.00175 0,21.42065 0,29.15625 l 0,606.6875 c 0,7.7356 3.06175,15.1545 8.53125,20.625 5.4695,5.4691 12.8889,8.53125 20.625,8.53125 l 441.6875,0 c 7.7361,0 15.1555,-3.06215 20.625,-8.53125 5.4695,-5.4705 8.53125,-12.8894 8.53125,-20.625 l 0,-606.6875 c 0,-7.7356 -3.06175,-15.1545 -8.53125,-20.625 C 485.99925,3.06225 478.57985,0 470.84375,0 L 29.15625,0 z m 0,12.5 441.6875,0 c 4.4199,0 8.65625,1.7501 11.78125,4.875 3.125,3.1265 4.875,7.36155 4.875,11.78125 l 0,606.6875 c 0,4.4195 -1.75,8.65475 -4.875,11.78125 -3.125,3.1249 -7.36135,4.875 -11.78125,4.875 l -441.6875,0 C 24.73645,652.5 20.5,650.7499 17.375,647.625 14.25,644.4985 12.5,640.26325 12.5,635.84375 l 0,-606.6875 C 12.5,24.73655 14.25,20.5015 17.375,17.375 20.5,14.2501 24.73645,12.5 29.15625,12.5 z"
       style="fill:#ffffff;fill-opacity:1;fill-rule:nonzero;stroke:none"
       inkscape:connector-curvature="0" />
  </g>
</svg>
