<?xml version="1.0" encoding="UTF-8" standalone="no"?>
<!-- Created with Inkscape (http://www.inkscape.org/) -->

<svg
   xmlns:dc="http://purl.org/dc/elements/1.1/"
   xmlns:cc="http://creativecommons.org/ns#"
   xmlns:rdf="http://www.w3.org/1999/02/22-rdf-syntax-ns#"
   xmlns:svg="http://www.w3.org/2000/svg"
   xmlns="http://www.w3.org/2000/svg"
   xmlns:sodipodi="http://sodipodi.sourceforge.net/DTD/sodipodi-0.dtd"
   xmlns:inkscape="http://www.inkscape.org/namespaces/inkscape"
   width="1000"
   height="500.00031"
   id="svg2"
   sodipodi:version="0.32"
   inkscape:version="0.48.4 r9939"
   version="1.0"
   sodipodi:docname="AJAX.svg"
   inkscape:output_extension="org.inkscape.output.svg.inkscape">
  <defs
     id="defs4">
    <inkscape:perspective
       sodipodi:type="inkscape:persp3d"
       inkscape:vp_x="0 : 300.5 : 1"
       inkscape:vp_y="0 : 1000 : 0"
       inkscape:vp_z="601 : 300.5 : 1"
       inkscape:persp3d-origin="300.5 : 200.33333 : 1"
       id="perspective3380" />
    <inkscape:perspective
       id="perspective3990"
       inkscape:persp3d-origin="375 : 250 : 1"
       inkscape:vp_z="750 : 375 : 1"
       inkscape:vp_y="0 : 1000 : 0"
       inkscape:vp_x="0 : 375 : 1"
       sodipodi:type="inkscape:persp3d" />
  </defs>
  <sodipodi:namedview
     id="base"
     pagecolor="#ffffff"
     bordercolor="#666666"
     borderopacity="1.0"
     gridtolerance="10000"
     guidetolerance="10"
     objecttolerance="10"
     inkscape:pageopacity="0.0"
     inkscape:pageshadow="2"
     inkscape:zoom="0.5786465"
     inkscape:cx="512.01014"
     inkscape:cy="73.907818"
     inkscape:document-units="px"
     inkscape:current-layer="layer1"
     width="601px"
     height="601px"
     inkscape:window-width="1280"
     inkscape:window-height="1001"
     inkscape:window-x="-8"
     inkscape:window-y="-8"
     showgrid="false"
     fit-margin-top="0"
     fit-margin-left="0"
     fit-margin-right="0"
     fit-margin-bottom="0"
     inkscape:window-maximized="1"
     showguides="true"
     inkscape:guide-bbox="true" />
  <metadata
     id="metadata7">
    <rdf:RDF>
      <cc:Work
         rdf:about="">
        <dc:format>image/svg+xml</dc:format>
        <dc:type
           rdf:resource="http://purl.org/dc/dcmitype/StillImage" />
        <dc:title />
      </cc:Work>
    </rdf:RDF>
  </metadata>
  <g
     inkscape:label="Layer 1"
     inkscape:groupmode="layer"
     id="layer1"
     transform="translate(2503.2096,3754.6449)">
    <rect
       style="color:#000000;fill:#000000;fill-opacity:1;fill-rule:nonzero;stroke:none;stroke-width:0.8735441;marker:none;visibility:visible;display:inline;overflow:visible"
       id="rect3653"
       width="0"
       height="27.202072"
       x="578.73834"
       y="298.1684"
       rx="249.48199"
       ry="27.202072" />
    <path
       inkscape:connector-curvature="0"
       style="fill:#000000;fill-opacity:1;fill-rule:nonzero;stroke:none"
       d="m -1503.2096,-3254.6446 -1000,0 0,-500.0003 1000,0 z"
       id="path11"
       sodipodi:nodetypes="ccccc" />
    <path
       style="fill:#ffffff;fill-rule:nonzero;stroke:none"
       d="m -1548.2096,-3254.6446 c 11.9359,0 23.3734,-4.7484 31.8125,-13.1875 8.4405,-8.439 13.1875,-19.8768 13.1875,-31.8125 l 0,-410 c 0,-11.9357 -4.747,-23.3735 -13.1875,-31.8125 -8.4391,-8.4391 -19.8766,-13.1875 -31.8125,-13.1875 l -910,0 c -11.9359,0 -23.3734,4.7484 -31.8125,13.1875 -8.4405,8.439 -13.1875,19.8768 -13.1875,31.8125 l 0,410 c 0,11.9357 4.747,23.3735 13.1875,31.8125 8.4391,8.4391 19.8766,13.1875 31.8125,13.1875 z"
       id="path3825"
       inkscape:connector-curvature="0"
       sodipodi:nodetypes="scsscsscsscss" />
    <path
       style="fill:#000000;fill-opacity:1;fill-rule:nonzero;stroke:none"
       d="m -1548.2086,-3271.2996 c 15.648,0 28.344,-12.6955 28.344,-28.344 l 0,-410.0021 c 0,-15.6485 -12.696,-28.3439 -28.344,-28.3439 l -910.002,0 c -15.648,0 -28.3439,12.6954 -28.3439,28.3439 l 0,410.0021 c 0,15.6485 12.6959,28.344 28.3439,28.344 z"
       id="path3838"
       inkscape:connector-curvature="0"
       sodipodi:nodetypes="sssssssss" />
    <path
       style="fill:#ffffff;fill-rule:nonzero;stroke:none"
       d="m -1536.5445,-3432.6439 0,-277.0098 c 0,-6.4438 -5.2125,-11.6562 -11.6562,-11.6562 l -910.0176,0 c -6.4437,0 -11.6563,5.2124 -11.6563,11.6562 l 0,277.0098 22.667,0 0,-30 94,-56.001 93.998,56.001 0,81.334 16.001,0 0,-43.334 70,-267.999 70,267.999 0,43.334 15.999,0 0,-68.334 30,-28 49.998,0 0,-23 50,0 0,23 50.002,0 29.999,28 0,27 16,0 0,-57.001 82,-38.999 82,38.999 0,67.001 16,0 0,-153 60.999,-22 61,22 0,133 z"
       id="path2989"
       inkscape:connector-curvature="0"
       sodipodi:nodetypes="csssscccccccccccccccccccccccccccccccc" />
  </g>
</svg>
