<?xml version="1.0" encoding="UTF-8" standalone="no"?>
<svg
   xmlns:dc="http://purl.org/dc/elements/1.1/"
   xmlns:cc="http://creativecommons.org/ns#"
   xmlns:rdf="http://www.w3.org/1999/02/22-rdf-syntax-ns#"
   xmlns:svg="http://www.w3.org/2000/svg"
   xmlns="http://www.w3.org/2000/svg"
   xmlns:sodipodi="http://sodipodi.sourceforge.net/DTD/sodipodi-0.dtd"
   xmlns:inkscape="http://www.inkscape.org/namespaces/inkscape"
   width="1010.3999"
   height="1010.4001"
   viewBox="-50 -30 101.03981 101.04002"
   id="svg2"
   version="1.1"
   inkscape:version="0.48.4 r9939"
   sodipodi:docname="AJAX.svg">
  <metadata
     id="metadata14">
    <rdf:RDF>
      <cc:Work
         rdf:about="">
        <dc:format>image/svg+xml</dc:format>
        <dc:type
           rdf:resource="http://purl.org/dc/dcmitype/StillImage" />
        <dc:title />
      </cc:Work>
    </rdf:RDF>
  </metadata>
  <defs
     id="defs12" />
  <sodipodi:namedview
     pagecolor="#ffffff"
     bordercolor="#666666"
     borderopacity="1"
     objecttolerance="10"
     gridtolerance="10"
     guidetolerance="10"
     inkscape:pageopacity="0"
     inkscape:pageshadow="2"
     inkscape:window-width="1280"
     inkscape:window-height="1001"
     id="namedview10"
     showgrid="false"
     fit-margin-top="0.2"
     fit-margin-left="0.2"
     fit-margin-right="0.2"
     fit-margin-bottom="0.2"
     inkscape:zoom="0.45254834"
     inkscape:cx="439.24931"
     inkscape:cy="325.07659"
     inkscape:window-x="-8"
     inkscape:window-y="-8"
     inkscape:window-maximized="1"
     inkscape:current-layer="svg2"
     showguides="true"
     inkscape:guide-bbox="true"
     inkscape:showpageshadow="true"
     borderlayer="false"
     showborder="true" />
  <path
     sodipodi:nodetypes="sssss"
     style="fill:#0c479d;fill-opacity:1;stroke:none"
     d="m 0.51994079,-29.98 c -27.89042379,0 -50.50003679,22.609618 -50.50003679,50.500028 0,27.890357 22.609612,50.499992 50.50003679,50.499992 C 28.410287,71.02002 51.019907,48.410385 51.019907,20.520028 51.019907,-7.370382 28.410285,-29.98 0.51994079,-29.98 z"
     id="path3986"
     inkscape:connector-curvature="0" />
  <path
     sodipodi:nodetypes="sssss"
     style="fill:#ffffff;fill-opacity:1;stroke:none"
     d="m 0.51994679,-29.479971 c -27.61427379,0 -50.00002279,22.38575 -50.00002279,50.000007 0,27.61421 22.385749,49.99998 50.00002279,49.99998 27.61419621,0 49.99995021,-22.38577 49.99995021,-49.99998 0,-27.614257 -22.385755,-50.000007 -49.99995021,-50.000007 z"
     id="path3988"
     inkscape:connector-curvature="0" />
  <path
     inkscape:connector-curvature="0"
     id="path3990"
     d="m 0.51990779,-27.147396 c 26.32600921,0 47.66742021,21.341415 47.66742021,47.667422 0,26.32596 -21.341412,47.66739 -47.66742021,47.66739 -26.32595879,0 -47.66738379,-21.34143 -47.66738379,-47.66739 0,-26.326007 21.341426,-47.667422 47.66738379,-47.667422 z"
     style="fill:#0c479d;fill-opacity:1;stroke:none"
     sodipodi:nodetypes="sssss" />
  <path
     inkscape:connector-curvature="0"
     style="fill:#ffffff;fill-rule:nonzero;stroke:none"
     d="m 4.3380583,45.551353 1.235104,-0.08089 c 0.4465286,3.357818 3.3678753,5.828992 6.7533577,5.712468 3.385486,-0.116523 6.129949,-2.782742 6.344413,-6.163335 l 0.287955,0.02179 c 0.121273,-1.895011 -0.54699,-3.755902 -1.846355,-5.141054 -1.299236,-1.384873 -3.113601,-2.170641 -5.012637,-2.170641 -1.067011,0 -2.1197883,0.248693 -3.0741868,0.72611 l -1.8791964,-3.254849 0.6970435,-1.565667 1.907847,-0.869461 c 0.2734127,-0.12463 0.4231957,-0.422787 0.3600437,-0.71661 -0.0632,-0.293824 -0.322323,-0.50396 -0.6228588,-0.505215 -1.5781006,-0.05281 -3.1570512,-0.07642 -4.7359818,-0.07098 -0.2172642,-0.0093 -0.411748,0.133569 -0.4681991,0.343562 -0.056301,0.210137 0.040701,0.431029 0.2333245,0.531905 0.8281161,0.4545 1.6763325,0.871694 2.5418793,1.250188 l -0.6836433,1.535489 -11.911951,0 0.8891573,-2.20082 c -0.3051459,-0.507734 -0.2737153,-1.149173 0.079201,-1.624771 0.3531769,-0.47561 0.9581486,-0.691193 1.5322497,-0.546151 l 0.006,0.0014 1.289035,0.327732 0.3541769,0.09004 0.1802335,-0.708674 -0.3543269,-0.09006 -1.2941951,-0.329092 -0.002,-2.23e-4 c -0.7921954,-0.200019 -1.6302016,0.05704 -2.1738322,0.667065 -0.5440505,0.609979 -0.7034736,1.471755 -0.414258,2.236141 l -2.3327161,5.773529 c -1.04844,-0.637528 -2.2487469,-0.982768 -3.4759099,-0.999815 l 0,0.288795 c -3.118251,-0.04505 -5.840414,2.103935 -6.520727,5.147388 -0.680153,3.043624 0.868337,6.146879 3.709192,7.433672 2.840875,1.286653 6.1948129,0.40406 8.0338996,-2.114616 l 0.2336146,0.169616 c 2.1992526,-3.012159 1.5947009,-7.228846 -1.3623763,-9.501762 l 0.3993076,-0.988634 7.22040939,6.27667 c -0.3248563,0.670783 -0.259595,1.465214 0.1704533,2.07382 0.43032901,0.608608 1.15727311,0.935406 1.89804741,0.853253 l 0.4285183,1.40178 -0.4497587,0 0,0.731139 1.8645362,0 0,-0.731139 -0.6502427,0 -0.4925095,-1.610936 c 0.6181025,-0.313805 1.0355807,-0.918919 1.1092121,-1.608143 z"
     id="path19" />
  <path
     inkscape:connector-curvature="0"
     style="fill:#0c479d;fill-opacity:1;fill-rule:nonzero;stroke:none"
     d="m -8.8771781,43.403035 c -0.409088,0.994645 -1.3966899,1.627425 -2.4713109,1.583554 -0.130303,0 -0.250635,-0.06958 -0.315586,-0.182611 -0.065,-0.113031 -0.0647,-0.25205 9.5e-4,-0.364522 0.0655,-0.112752 0.186103,-0.181771 0.316426,-0.181212 0.732814,0.04303 1.4203599,-0.356419 1.7456269,-1.014486 l 1.304255,-3.228021 c -2.4718009,-1.644469 -5.8020759,-1.034467 -7.5306689,1.379286 -1.728584,2.413611 -1.233844,5.762908 1.118832,7.57364 2.352535,1.810871 5.7168829,1.431679 7.6078205,-0.857164 1.8907967,-2.288844 1.6279816,-5.664269 -0.5944916,-7.632741 l -1.181733,2.924976 0,-6.66e-4 z"
     id="path21" />
  <path
     inkscape:connector-curvature="0"
     style="fill:#0c479d;fill-opacity:1;fill-rule:nonzero;stroke:none"
     d="m 12.121166,43.817016 c 0.365357,0.0097 0.675953,0.270213 0.749014,0.628587 0.0731,0.358096 -0.110542,0.719404 -0.442758,0.871696 -0.332386,0.152291 -0.725834,0.05518 -0.949378,-0.234026 l -4.8293109,0.316598 c 0.3443967,2.356467 2.164222,4.224763 4.5106249,4.631199 2.346535,0.406716 4.68862,-0.7405 5.806082,-2.84352 1.117311,-2.103159 0.756704,-4.686108 -0.893778,-6.402951 -1.650332,-1.716842 -4.217221,-2.178885 -6.3625695,-1.145402 l 2.4120735,4.177819 z"
     id="path23" />
  <path
     inkscape:connector-curvature="0"
     style="fill:#0c479d;fill-opacity:1;fill-rule:nonzero;stroke:none"
     d="M 11.463934,44.14102 9.0726801,39.999532 C 7.5033797,41.031758 6.5679816,42.792611 6.591172,44.670967 l 4.76169,-0.312127 0.111102,-0.21782 z"
     id="path25" />
  <path
     inkscape:connector-curvature="0"
     style="fill:#0c479d;fill-opacity:1;fill-rule:nonzero;stroke:none"
     d="m 6.7789457,36.026538 1.6112212,2.790429 c -1.6145713,1.035441 -2.7230828,2.698212 -3.0577093,4.586767 -0.079401,0.447654 -0.1140122,0.902013 -0.103512,1.356513 l -0.9441983,0.06189 C 4.1550848,44.320413 3.8401686,43.886731 3.4035502,43.607857 l 3.2942539,-7.398992 0.081102,-0.18233 z"
     id="path27" />
  <path
     inkscape:connector-curvature="0"
     style="fill:#0c479d;fill-opacity:1;fill-rule:nonzero;stroke:none"
     d="m 2.2145271,41.970517 0,-0.731279 -1.86423671,0 0,0.731279 0.5275702,0 0.47405981,1.55002 c -0.1675232,0.08789 -0.3219162,0.198398 -0.45910951,0.328615 l -7.36365219,-6.401132 0.6392124,-1.582715 11.8819504,0 -3.3238645,7.465637 c -0.2222843,-0.04694 -0.4511487,-0.05672 -0.6766431,-0.02865 l -0.4071378,-1.331782 0.571851,0 z"
     id="path29" />
  <path
     inkscape:connector-curvature="0"
     style="fill:#ffffff;fill-rule:nonzero;stroke:none"
     d="m -10.242991,5.6437337 c 0.0223,-0.174886 0.059,-0.347294 0.1099,-0.51605 0.0376,-0.242832 0.0748,-0.485924 0.11132,-0.728756 0.0413,-0.3695953 0.0769,-0.7398423 0.1069829,-1.1106103 0.0157,-0.228356 0.0346,-0.456581 0.0571,-0.684416 0.17511,-0.853562 0.3664,-1.703604 0.57374,-2.549863 0.31572,-1.149475 0.62165,-2.301556 0.9173,-3.45622 0.21818,-0.722235 0.44654,-1.441472 0.68481,-2.157318 0.0835,-0.324732 0.22796,-0.630163 0.42606,-0.900473 0.1992705,-0.299797 0.4629705,-0.55121 0.7717905,-0.7361254 0.65729,-0.315981 1.33805,-0.580761 2.03617,-0.791785 0.13758,-0.03363 0.27047,-0.08393 0.39581,-0.149651 0.18975,-0.109275 0.35916,-0.250253 0.50104,-0.416961 0.0463,-0.05796 0.0807,-0.124429 0.10147,-0.195752 0.004,-0.0177 0.008,-0.03554 0.0115,-0.0535 0.003,-0.01337 0.005,-0.02687 0.007,-0.04037 0.0535,-0.279426 0.0752,-0.564069 0.0648,-0.848333 0.002,-0.177416 0.003,-0.35482 0.003,-0.532236 0.003,-0.04941 -0.009,-0.09857 -0.0356,-0.140599 -0.32356,-0.577563 -0.52519,-1.215368 -0.59248,-1.873939 -0.0369,-0.538987 0.0103,-1.080379 0.14033,-1.604709 0.0441,-0.185814 0.0957,-0.369858 0.15467,-0.551471 0.0691,-0.179567 0.17058,-0.345011 0.29878,-0.488287 0.20319,-0.253184 0.46245,-0.455563 0.75758,-0.590685 0.52987,-0.284397 1.13773,-0.389079 1.73229939,-0.298401 0.35498,0.05095 0.69172,0.189894 0.97928,0.404365 0.0785,0.06165 0.15193,0.129902 0.21883,0.2039 0.18037,0.198426 0.33425,0.419142 0.45815,0.656912 0.0143,0.03261 0.0273,0.06572 0.0389,0.09934 0.0359,0.110161 0.0522,0.225681 0.0484,0.341449 -0.008,0.06291 -0.0166,0.125692 -0.0257,0.188618 -0.0403,0.217908 -0.097,0.432508 -0.1698,0.641877 0.0351,0.417741 0.0228,0.838147 -0.0364,1.253076 -0.0252,0.203261 -0.0592,0.405377 -0.10212,0.605718 -0.0244,0.124681 -0.0634,0.246185 -0.11633,0.361824 -0.0153,0.138437 -0.0462,0.274704 -0.0917,0.406396 -0.0164,0.05107 -0.0413,0.09909 -0.0734,0.142126 -0.10955,0.135265 -0.2384,0.253577 -0.38238,0.351258 -0.0945,0.05973 -0.18989,0.117804 -0.28626,0.174482 -0.0566,0.02903 -0.11685,0.05018 -0.17919,0.06291 -0.0683,0.490971 -0.0926,0.98703 -0.072,1.482187 0.0189,0.154867 0.0908,0.298532 0.20345,0.406528 0.4734,0.355079 0.98489,0.656533 1.52480061,0.8988954 0.21519,0.07921 0.40768,0.21002 0.56092,0.38068 0.18349,0.219814 0.3336,0.465398 0.44523,0.728965 0.18649,0.579041 0.3143,1.175165 0.3816,1.779768 0.16992,1.200336 0.32533,2.402731 0.46643,3.606848 0.0445,0.416543 0.0824,0.83374 0.11373,1.251588 0.0192,0.207229 0.0563,0.412631 0.1115,0.61347 0.12924,0.525048 0.22392,1.058183 0.28313,1.595621 0.0719,0.157019 0.1432,0.314038 0.2144,0.471318 0.14307,0.340251 0.27987,0.683111 0.41042,1.0283183 0.0216,0.07695 0.0353,0.155715 0.0409,0.235399 0.001,0.11672 -0.008,0.233441 -0.0283,0.348467 -0.002,0.01435 -0.005,0.02856 -0.007,0.0429 -0.0398,0.149455 -0.0793,0.29891 -0.11842,0.448365 0.0545,0.293433 0.12429,0.583996 0.20879,0.870126 0.0267,0.09912 0.0904,0.184145 0.17802,0.237615 0.50392,0.233442 1.02884,0.418109 1.56785,0.551783 0.22587,0.015 0.4528,-0.0043 0.67281,-0.05764 0.0755,-0.109157 0.13315,-0.22979 0.17071,-0.357204 0.005,-0.09091 -0.0272,-0.180103 -0.0899,-0.246354 -0.0743,-0.04747 -0.14894,-0.09442 -0.22418,-0.140847 -0.2088,-0.13837 -0.35982,-0.348468 -0.4245,-0.590648 -0.0604,-0.175929 -0.0604,-0.367116 0,-0.543176 0.0326,-0.12272 0.0631,-0.246223 0.0914,-0.370116 0.0147,-0.05282 0.0147,-0.108896 -2.2e-4,-0.161714 -0.009,-0.02608 -0.0219,-0.051 -0.0377,-0.07368 -0.002,-0.0031 -0.004,-0.0062 -0.006,-0.0094 -0.0411,-0.06898 -0.0719,-0.143586 -0.0916,-0.221574 -0.0647,-0.3272103 -0.018,-0.6666793 0.13277,-0.9642853 0.10524,-0.273479 0.30699,-0.498965 0.56704,-0.633684 0.52492,-0.305822 1.15286,-0.381332 1.73516,-0.208663 0.27427,0.05712 0.53157,0.177233 0.75132,0.350815 0.0425,0.03455 0.0803,0.07472 0.11177,0.11959 0.18349,0.275827 0.28665,0.597298 0.29813,0.928421 -0.0171,0.4144583 -0.0909,0.8243503 -0.21962,1.2187243 -0.20736,0.512789 -0.4725,1.000409 -0.79058,1.452817 -0.034,0.04212 -0.0686,0.08385 -0.10342,0.125068 -0.0373,0.0519 -0.052,0.116851 -0.0405,0.179711 0.0102,0.112417 0.0265,0.224182 0.0484,0.334904 0.004,0.03808 0.0222,0.07303 0.0513,0.09807 0.007,0.0055 0.0132,0.01096 0.0197,0.01657 0.0247,0.02203 0.0482,0.04486 0.0712,0.06872 0.31535,0.353423 0.57383,0.753666 0.76619,1.186511 0.15415,0.284695 0.27517,0.586214 0.36047,0.898426 0.4281476,1.2749333 0.8489876,2.5524733 1.2620176,3.8322303 0.0352,0.07421 0.0675,0.149846 0.0966,0.226922 0.0494,0.10237 0.0909,0.208532 0.12454,0.317167 0.0211,0.127676 0.0398,0.256004 0.0561,0.384462 8.4e-4,0.02648 -0.005,0.05295 -0.0158,0.07708 -0.0382,0.0866 -0.10472,0.157541 -0.18884,0.20123 -0.11868,0.0343 -0.24505,0.03064 -0.36151,-0.01023 -0.0725,-0.03118 -0.13746,-0.07747 -0.19067,-0.135631 -0.0296,-0.02869 -0.052,-0.06378 -0.0657,-0.102642 -0.0395,-0.114112 -0.0685,-0.231486 -0.0871,-0.350815 -0.01,-0.125068 -0.008,-0.250787 0.004,-0.375724 L 9.8021224,12.63648 9.0215924,11.202052 c -0.0349,1.07005 0.0835,2.139579 0.3516,3.176113 -0.24936,0.216488 -0.52218,0.404285 -0.81327,0.55987 l 0.1685,1.830889 0.14593,1.570974 c 0.0393,-0.02542 0.0835,-0.04264 0.12964,-0.05034 0.17188,-0.03704 0.34559,0.05386 0.41341,0.216097 0.012,0.03287 0.0166,0.06795 0.0128,0.102766 -7.1e-4,0.0062 -0.003,0.012 -0.006,0.01722 -0.16562,0.276479 -0.3516,0.540437 -0.55608,0.78966 -0.0513,0.06912 -0.11946,0.123763 -0.19823,0.158323 -0.0842,0.04681 -0.17502,0.0806 -0.26944,0.100023 -0.0415,0.0053 -0.0836,-0.0036 -0.1192,-0.02543 -0.0129,-0.01022 -0.0224,-0.02399 -0.0273,-0.03965 l -1.30467,-4.18735 c -0.20618,0.02426 -0.41393,0.03234 -0.62129,0.02374 l -0.32043,4.472567 c -0.0227,0.17619 -0.11503,0.335817 -0.2564,0.443409 -0.005,0.0041 -0.009,0.0078 -0.0145,0.01161 -0.054,0.04565 -0.11803,0.07785 -0.18675,0.09402 -0.11921,0.01344 -0.23971,0.01239 -0.35864,-0.0027 -0.0664,-0.01487 -0.1312,-0.03612 -0.19341,-0.06364 -0.25196,-0.17945 -0.50588,-0.356423 -0.76136,-0.530787 -0.0866,-0.07851 -0.11268,-0.203838 -0.0647,-0.310387 0.0444,-0.143325 0.15115,-0.258742 0.2907,-0.314298 0.10851,-0.02269 0.22118,-0.01278 0.32395,0.02869 0.0612,0.02595 0.11359,0.06912 0.15102,0.124024 0.009,0.0032 0.0187,0.0017 0.0261,-0.0038 0.008,-0.0055 0.0118,-0.01448 0.0114,-0.02374 l -0.57304,-4.266642 c -0.42046,-0.145413 -0.81913,-0.347424 -1.18521,-0.600429 0.48397,-1.134737 0.91551,-2.290729 1.29345,-3.46472 0.0758,-0.262265 0.13603,-0.528831 0.18036,-0.798138 0.0394,-0.222096 0.0764,-0.4447133 0.11125,-0.6674613 0.0326,-0.28965 -0.0183,-0.582302 -0.14672,-0.843783 -0.006,-0.01121 -0.012,-0.02203 -0.0192,-0.03222 -0.1505,-0.214402 -0.31547,-0.41837 -0.49401,-0.609949 -0.16393,-0.177233 -0.33112,-0.351336 -0.50157,-0.522179 -0.1192,-0.127937 -0.22223,-0.269828 -0.30687,-0.422804 -0.0616,-0.124677 -0.11828,-0.25157 -0.16967,-0.380811 -0.0219,-0.100294 -0.0342,-0.202534 -0.0362,-0.30543 0.009,-0.374159 0.0255,-0.747928 0.0506,-1.121174 -0.0969,-0.319515 -0.20293,-0.636292 -0.31795,-0.949678 0.009,-0.155585 0.01,-0.3114303 0.001,-0.4670153 -0.12194,-0.200838 -0.25634,-0.393982 -0.40254,-0.577997 -0.15115,-0.202664 -0.29604,-0.409893 -0.43454,-0.621425 -0.23814,-0.423455 -0.44302,-0.864909 -0.61308,-1.320055 -0.0878,-0.220792 -0.15389,-0.449669 -0.19718,-0.683372 -0.012,-0.274262 -0.0494,-0.546567 -0.11216,-0.813787 -0.12729061,-0.504052 -0.27909061,-1.001583 -0.45436061,-1.490899 l -0.0552,7.1964033 -0.72014,0.338947 0.23852,4.3649753 -0.78444,5.212145 c 0.0986,-0.09129 0.23005,-0.139022 0.36425,-0.13211 0.1342,0.0069 0.26004,0.06782 0.34873,0.168756 0.13445,0.194188 0.16354,0.442627 0.0777,0.662637 -0.0882,0.241657 -0.22522,0.462449 -0.40259,0.649072 -0.30438,0.366596 -0.62742,0.717411 -0.96766939,1.051011 -0.16302,0.166017 -0.35603,0.299693 -0.56861,0.394244 -0.11672,0.03782 -0.2384,0.05908 -0.36112,0.06272 -0.0699,-0.0084 -0.13159,-0.05008 -0.16588,-0.111635 -0.0767,-0.121808 -0.13902,-0.251961 -0.18624,-0.387854 -0.0382,-0.175015 -0.0556,-0.353814 -0.0516,-0.532873 0.002,-0.221966 -0.001,-0.444062 -0.009,-0.665897 0.0417,-0.519962 0.087,-1.039273 0.1355,-1.558322 0.0376,-0.757057 0.0572,-1.515025 0.0595,-2.272863 -0.0164,-0.655855 -0.0563,-1.310927 -0.11946,-1.964043 -0.17463,-1.5661483 -0.34651,-3.1325573 -0.51553,-4.6993573 l -0.39803,0.01435 c -0.29904,4.2997683 -0.61464,8.5982293 -0.94694,12.8953883 -0.0788,0.38407 -0.21062,0.75523 -0.39189,1.102915 -0.0965,0.195622 -0.29474,0.320689 -0.51292,0.323689 -0.30452,0.03312 -0.60421,-0.09494 -0.79084,-0.337774 -0.50848,-0.680111 -0.89933,-1.440689 -1.1562505,-2.250172 -0.0434,-0.136805 -0.0338,-0.285086 0.0267,-0.41524 0.073,-0.130676 0.1726705,-0.244788 0.2925205,-0.334905 0.0865,-0.06729 0.19692,-0.09546 0.30504,-0.07837 0.10603,0.03065 0.20918,0.07055 0.30843,0.119199 l -0.43089,-11.5821133 -0.4803205,-0.219748 0.2093205,-2.5192183 c 0.18649,-1.742336 0.37781,-3.484153 0.57395,-5.225317 -0.13354,0.34938 -0.27556,0.6955 -0.4258,1.038099 -0.11933,0.302431 -0.2474,0.601472 -0.3843305,0.89673 -0.28444,0.67933 -0.551,1.366093 -0.79892,2.059767 -0.16732,0.538221 -0.3323,1.077354 -0.49454,1.617401 -0.14136,0.481881 -0.2753,0.9661113 -0.40169,1.4522953 0.0395,0.250918 0.0571,0.505227 0.0523,0.759404 -0.0158,0.293694 -0.0643,0.584779 -0.14469,0.867647 -0.0307,0.101463 -0.0749,0.198231 -0.13142,0.287826 -0.0857,0.124024 -0.18863,0.235529 -0.30567,0.330731 -0.0133,0.01033 -0.0279,0.01838 -0.0437,0.024 -0.11387,0.03535 -0.23689,0.02726 -0.34502,-0.02334 -0.2903829,-0.09938 -0.4825629,-0.376115 -0.4744029,-0.68298 0.006,-0.223009 0.0338,-0.444975 0.083,-0.662506 z"
     id="path15" />
</svg>
