<?xml version="1.0" encoding="UTF-8" standalone="no"?>
<svg
   xmlns:dc="http://purl.org/dc/elements/1.1/"
   xmlns:cc="http://creativecommons.org/ns#"
   xmlns:rdf="http://www.w3.org/1999/02/22-rdf-syntax-ns#"
   xmlns:svg="http://www.w3.org/2000/svg"
   xmlns="http://www.w3.org/2000/svg"
   xmlns:sodipodi="http://sodipodi.sourceforge.net/DTD/sodipodi-0.dtd"
   xmlns:inkscape="http://www.inkscape.org/namespaces/inkscape"
   width="1010.3999"
   height="1010.4001"
   viewBox="-50 -30 101.03981 101.04002"
   id="svg2"
   version="1.1"
   inkscape:version="0.48.4 r9939"
   sodipodi:docname="AJAX.svg">
  <metadata
     id="metadata14">
    <rdf:RDF>
      <cc:Work
         rdf:about="">
        <dc:format>image/svg+xml</dc:format>
        <dc:type
           rdf:resource="http://purl.org/dc/dcmitype/StillImage" />
        <dc:title></dc:title>
      </cc:Work>
    </rdf:RDF>
  </metadata>
  <defs
     id="defs12" />
  <sodipodi:namedview
     pagecolor="#ffffff"
     bordercolor="#666666"
     borderopacity="1"
     objecttolerance="10"
     gridtolerance="10"
     guidetolerance="10"
     inkscape:pageopacity="0"
     inkscape:pageshadow="2"
     inkscape:window-width="1280"
     inkscape:window-height="1001"
     id="namedview10"
     showgrid="false"
     fit-margin-top="0.2"
     fit-margin-left="0.2"
     fit-margin-right="0.2"
     fit-margin-bottom="0.2"
     inkscape:zoom="0.45254834"
     inkscape:cx="202.04098"
     inkscape:cy="358.62386"
     inkscape:window-x="-8"
     inkscape:window-y="-8"
     inkscape:window-maximized="1"
     inkscape:current-layer="svg2"
     showguides="true"
     inkscape:guide-bbox="true"
     inkscape:showpageshadow="true"
     borderlayer="false"
     showborder="true" />
  <path
     sodipodi:nodetypes="sssss"
     style="fill:#0c479d;fill-opacity:1;stroke:none"
     d="m 0.51993765,-29.98 c -27.89042065,0 -50.50003365,22.609618 -50.50003365,50.500028 0,27.890357 22.609612,50.499992 50.50003365,50.499992 C 28.410286,71.02002 51.019907,48.410385 51.019907,20.520028 51.019907,-7.370382 28.410284,-29.98 0.51993765,-29.98 z"
     id="path3986"
     inkscape:connector-curvature="0" />
  <path
     sodipodi:nodetypes="sssss"
     style="fill:#ffffff;fill-opacity:1;stroke:none"
     d="m 0.51994365,-29.479971 c -27.61427065,0 -50.00001965,22.38575 -50.00001965,50.000007 0,27.61421 22.385749,49.99998 50.00001965,49.99998 27.61419835,0 49.99995335,-22.38577 49.99995335,-49.99998 0,-27.614257 -22.385756,-50.000007 -49.99995335,-50.000007 z"
     id="path3988"
     inkscape:connector-curvature="0" />
  <path
     inkscape:connector-curvature="0"
     id="path3990"
     d="m 0.51990465,-27.147396 c 26.32601135,0 47.66742235,21.341415 47.66742235,47.667422 0,26.32596 -21.341412,47.66739 -47.66742235,47.66739 -26.32595565,0 -47.66738065,-21.34143 -47.66738065,-47.66739 0,-26.326007 21.341426,-47.667422 47.66738065,-47.667422 z"
     style="fill:#0c479d;fill-opacity:1;stroke:none"
     sodipodi:nodetypes="sssss" />
  <path
     inkscape:connector-curvature="0"
     style="fill:#ffffff;fill-rule:nonzero;stroke:none"
     d="m -23.603281,26.813975 c 0.05024,-0.394237 0.132905,-0.782888 0.247744,-1.163306 0.08469,-0.547403 0.168536,-1.095395 0.250947,-1.642799 0.09302,-0.833158 0.173406,-1.667788 0.241156,-2.503592 0.0353,-0.51477 0.07808,-1.029247 0.128624,-1.542844 0.394736,-1.924143 0.825956,-3.84035 1.293367,-5.748031 0.711713,-2.591201 1.401346,-5.1882811 2.067814,-7.7911815 0.49184,-1.6280998 1.006611,-3.2494395 1.543727,-4.8631342 0.18815,-0.7320273 0.513888,-1.4205445 0.960454,-2.0298925 0.449211,-0.6758162 1.043654,-1.2425641 1.739815,-1.6594078 1.481693,-0.7123013 3.016305,-1.3091822 4.590017,-1.7848831 0.310156,-0.0758 0.6097294,-0.1892103 0.8922514,-0.3373496 0.427751,-0.2463324 0.80964,-0.5641319 1.129498,-0.9399346 0.104377,-0.1306472 0.18199,-0.2804934 0.228721,-0.4412737 0.0099,-0.03991 0.01882,-0.08011 0.02587,-0.1206052 0.0059,-0.03013 0.01082,-0.06056 0.01505,-0.091 0.120535,-0.6298961 0.169619,-1.2715522 0.146124,-1.9123548 0.0035,-0.39994 0.0059,-0.799851 0.0068,-1.199791 0.0064,-0.111386 -0.02117,-0.222207 -0.08025,-0.316946 -0.729381,-1.301972 -1.183885,-2.739744 -1.335582,-4.224327 -0.08321,-1.215012 0.02328,-2.435444 0.31633,-3.617416 0.09937,-0.41887 0.215786,-0.833751 0.348669,-1.243152 0.155812,-0.40479 0.384534,-0.777741 0.673523,-1.100721 0.458032,-0.570742 1.0424799,-1.026953 1.707772,-1.331553 1.194469,-0.641101 2.5647414,-0.877081 3.9050276,-0.672671 0.8002324,0.11486 1.5593066,0.42807 2.20754735,0.911541 0.1769804,0.138971 0.3424946,0.292831 0.4933099,0.459641 0.4065837,0.447301 0.7534883,0.944852 1.03277705,1.480843 0.03234,0.0735 0.06145,0.14815 0.08761,0.22393 0.08086,0.24833 0.1175952,0.508741 0.1090812,0.769711 -0.01787,0.141821 -0.03735,0.28334 -0.05793,0.425191 -0.09083,0.491221 -0.2187264,0.974982 -0.38277105,1.446953 0.0790898,0.941691 0.05144,1.889393 -0.08201,2.824745 -0.05675,0.458201 -0.1334692,0.913821 -0.2302034,1.365441 -0.05496,0.281061 -0.1428773,0.554962 -0.2622365,0.815642 -0.03438,0.312071 -0.1040711,0.619251 -0.2066843,0.916117 -0.03704,0.115126 -0.0932,0.223383 -0.1655023,0.320387 -0.2469494,0.304924 -0.5374089,0.571628 -0.8619694,0.791825 -0.21312905,0.134646 -0.42804535,0.265559 -0.64530175,0.393327 -0.1275902,0.06543 -0.2634115,0.113124 -0.4039377,0.141818 -0.1540493,1.1067717 -0.2087303,2.2250106 -0.1622802,3.3412205 0.04262,0.3491076 0.2046143,0.6729641 0.4586186,0.9164155 1.06717255,0.8004374 2.22018955,1.4799886 3.4372949,2.0263344 0.4850789,0.1785554 0.9190036,0.4734359 1.2644382,0.8581475 0.4136397,0.4955138 0.7520183,1.0491218 1.0036707,1.6432689 0.4204017,1.3053021 0.7085082,2.6491164 0.8602054,4.0120417 0.3830657,2.7058557 0.7333802,5.4163565 1.0514738,8.1307365 0.1002612,0.938993 0.1858003,1.879458 0.2563564,2.821392 0.04321,0.467146 0.1270022,0.930174 0.2513594,1.382914 0.2913405,1.183592 0.5047749,2.385411 0.6382452,3.596931 0.1619982,0.353959 0.3227975,0.70792 0.4833148,1.062468 0.3225035,0.767011 0.6308961,1.539902 0.9251766,2.318086 0.0488,0.173452 0.07968,0.351021 0.09231,0.530647 0.0028,0.263118 -0.01834,0.526236 -0.06381,0.785532 -0.0049,0.03234 -0.01058,0.06437 -0.01646,0.09671 -0.08968,0.33691 -0.1787442,0.673818 -0.2669404,1.010727 0.1228862,0.661471 0.2801695,1.316473 0.4706729,1.961482 0.06028,0.223429 0.2037453,0.415108 0.4012926,0.535643 1.135963,0.526236 2.31926,0.942522 3.534308,1.243858 0.509186,0.03382 1.020726,-0.0096 1.516682,-0.129942 0.170229,-0.246067 0.30016,-0.518005 0.384828,-0.805229 0.01176,-0.204922 -0.06145,-0.405997 -0.202545,-0.555342 -0.167572,-0.107012 -0.335733,-0.212846 -0.505363,-0.317505 -0.470673,-0.311921 -0.811112,-0.785534 -0.95693,-1.331467 -0.136105,-0.396589 -0.136105,-0.827573 0,-1.224456 0.0735,-0.276641 0.14229,-0.555047 0.206073,-0.834334 0.03321,-0.119077 0.03321,-0.245479 -4.71e-4,-0.364544 -0.02117,-0.0588 -0.04939,-0.114961 -0.08497,-0.166092 -0.0047,-0.0071 -0.0094,-0.01388 -0.01388,-0.02117 -0.09259,-0.155506 -0.161999,-0.323679 -0.206379,-0.499483 -0.145818,-0.737614 -0.04057,-1.502861 0.299278,-2.173739 0.23725,-0.616491 0.692048,-1.124793 1.278257,-1.428483 1.183297,-0.689398 2.598845,-0.859617 3.911497,-0.470379 0.618253,0.128767 1.198291,0.399528 1.693659,0.790826 0.09584,0.07789 0.181094,0.168442 0.251946,0.269586 0.413639,0.621781 0.646183,1.346459 0.672054,2.092892 -0.03852,0.934291 -0.20492,1.858291 -0.495074,2.747308 -0.46744,1.155956 -1.065115,2.255173 -1.782149,3.275013 -0.07672,0.09495 -0.154638,0.189023 -0.233143,0.281934 -0.08408,0.117007 -0.117312,0.263413 -0.09142,0.405114 0.02305,0.253417 0.05969,0.505363 0.109058,0.754958 0.0089,0.08584 0.04998,0.164633 0.115548,0.221078 0.01505,0.01247 0.02968,0.0247 0.0444,0.03735 0.05555,0.04967 0.108775,0.101132 0.160516,0.15492 0.71086,0.796704 1.293543,1.698951 1.727174,2.674692 0.347492,0.641775 0.620312,1.321474 0.81258,2.025278 0.965158,2.874016 1.913854,5.753912 2.844911,8.638805 0.07938,0.167291 0.152284,0.337792 0.217856,0.511538 0.111409,0.230768 0.20492,0.470085 0.280758,0.714975 0.04762,0.287814 0.08968,0.577097 0.126413,0.866674 0.0019,0.05969 -0.01035,0.119359 -0.03558,0.173758 -0.08613,0.195207 -0.236071,0.355137 -0.425694,0.453622 -0.267527,0.07733 -0.5524,0.06907 -0.814931,-0.02305 -0.163456,-0.07028 -0.309862,-0.174629 -0.429809,-0.305746 -0.06675,-0.06468 -0.117311,-0.143772 -0.148168,-0.23138 -0.08909,-0.257238 -0.154356,-0.521827 -0.196384,-0.790825 -0.02234,-0.281934 -0.01905,-0.565338 0.0092,-0.846977 l -1.149194,-2.090247 -1.759512,-3.233561 c -0.07879,2.412162 0.188152,4.823149 0.792588,7.159757 -0.562102,0.488018 -1.177123,0.911358 -1.833302,1.262086 l 0.379832,4.127282 0.32897,3.541367 c 0.08848,-0.05731 0.188153,-0.09612 0.292224,-0.113478 0.387474,-0.08349 0.779065,0.121405 0.931938,0.487136 0.02705,0.07409 0.03735,0.15318 0.02881,0.231661 -0.0016,0.01388 -0.0068,0.02705 -0.01388,0.03881 -0.373364,0.623253 -0.792589,1.218281 -1.253561,1.78009 -0.115548,0.155814 -0.269291,0.278994 -0.446859,0.356901 -0.189915,0.105529 -0.394531,0.181684 -0.607377,0.225477 -0.09349,0.01199 -0.188435,-0.0082 -0.268705,-0.05732 -0.02912,-0.02305 -0.05056,-0.05409 -0.06145,-0.08937 L 15.15049,48.854912 c -0.464794,0.05468 -0.933115,0.07291 -1.400555,0.05351 l -0.722327,10.082282 c -0.05115,0.397176 -0.259298,0.757016 -0.57798,0.999556 -0.01082,0.0092 -0.0214,0.01764 -0.03262,0.02618 -0.121711,0.102896 -0.266059,0.175498 -0.42099,0.211953 -0.268705,0.03029 -0.540348,0.02792 -0.808464,-0.0061 -0.149628,-0.03351 -0.295751,-0.08142 -0.435982,-0.143465 C 10.183589,59.674302 9.6111976,59.275361 9.0352776,58.882302 8.8400702,58.705321 8.7812732,58.4228 8.8894603,58.182612 c 0.09996,-0.323092 0.3407306,-0.58327 0.6552971,-0.708508 0.2445964,-0.05115 0.4985996,-0.02881 0.7302616,0.06468 0.137868,0.05849 0.256062,0.155813 0.340436,0.279581 0.01999,0.0071 0.04205,0.0038 0.0588,-0.0085 0.01693,-0.01246 0.02646,-0.03264 0.02557,-0.05351 L 9.4080504,48.138278 C 8.4602367,47.810482 7.5615191,47.355097 6.7362977,46.784762 c 1.0909849,-2.557981 2.0637876,-5.16388 2.9157621,-7.810349 0.1707943,-0.591209 0.3066284,-1.192117 0.4065822,-1.799201 0.08878,-0.50066 0.172276,-1.002495 0.25077,-1.504625 0.0735,-0.652944 -0.04116,-1.312653 -0.3307327,-1.902097 -0.0127,-0.02528 -0.02705,-0.04967 -0.04321,-0.07263 C 9.5962086,33.212545 9.224315,32.752749 8.8218473,32.320882 8.4523057,31.921355 8.0754151,31.528882 7.6911734,31.14376 7.42247,30.855358 7.1902195,30.5355 6.9994222,30.190654 6.860661,29.909602 6.7327768,29.623553 6.6169456,29.332212 c -0.04939,-0.226088 -0.07702,-0.456562 -0.08173,-0.688517 0.01976,-0.843448 0.05762,-1.686015 0.1140673,-2.527405 -0.2184214,-0.720268 -0.4574438,-1.434362 -0.7167403,-2.140813 0.02117,-0.350726 0.02234,-0.702041 0.0033,-1.052767 C 5.660965,22.46997 5.3579825,22.034575 5.0284229,21.61976 4.6876923,21.162904 4.3610728,20.695758 4.0488583,20.218912 3.5120383,19.264338 3.0501855,18.269191 2.6668259,17.243177 2.4689616,16.745457 2.3199213,16.22951 2.2223181,15.702686 2.1952681,15.084431 2.110885,14.470587 1.9694897,13.868207 1.6825582,12.731948 1.3403576,11.610388 0.94523865,10.507349 l -0.1243682,16.222491 -1.6233958,0.764072 0.5377019,9.839744 -1.76833065,11.749479 c 0.2222544,-0.20579 0.5185929,-0.31339 0.8211054,-0.297808 0.30251215,0.01552 0.58620965,0.152874 0.78612095,0.380419 0.3031006,0.437747 0.3686596,0.997792 0.1752163,1.493748 -0.1987353,0.544757 -0.5077159,1.042477 -0.90753715,1.463172 -0.6861661,0.826397 -1.4143714,1.617222 -2.1813837,2.369241 -0.3674836,0.374244 -0.8025834,0.675582 -1.2817822,0.888724 -0.2631185,0.08526 -0.5374079,0.133188 -0.8140503,0.141396 -0.1575763,-0.01905 -0.2966326,-0.11289 -0.3739507,-0.251653 -0.1728643,-0.274586 -0.3133906,-0.567984 -0.4198137,-0.87432 -0.08615,-0.394529 -0.1252382,-0.797586 -0.1164182,-1.20123 0.0038,-0.500365 -0.0028,-1.001025 -0.01929,-1.501097 0.09408,-1.172125 0.1960774,-2.34278 0.3054526,-3.512848 0.08467,-1.706594 0.1290482,-3.415246 0.1340582,-5.123604 -0.03704,-1.47846 -0.1270022,-2.955157 -0.2692925,-4.427443 -0.3936486,-3.530489 -0.7811233,-7.061568 -1.1621295,-10.593526 l -0.897251,0.03234 c -0.674112,9.692751 -1.38556,19.382559 -2.1346404,29.06943 -0.177567,0.865791 -0.474788,1.702478 -0.883429,2.486247 -0.217551,0.44098 -0.664411,0.722913 -1.156252,0.729675 -0.686459,0.07467 -1.362041,-0.214022 -1.782736,-0.761426 -1.146254,-1.533142 -2.027333,-3.247674 -2.606487,-5.072452 -0.09789,-0.308392 -0.07613,-0.642656 0.06028,-0.936055 0.164633,-0.294575 0.389238,-0.551813 0.659412,-0.754958 0.194902,-0.151697 0.44392,-0.215198 0.687636,-0.176674 0.239011,0.0691 0.471554,0.159035 0.695278,0.268703 l -0.971333,-26.108978 -1.082753,-0.495367 0.471849,-5.678946 c 0.420402,-3.927664 0.85168,-7.854153 1.293836,-11.7791724 -0.301043,0.7875913 -0.621194,1.5678324 -0.959867,2.3401364 -0.268998,0.681755 -0.557693,1.355867 -0.866379,2.021453 -0.641185,1.531379 -1.242095,3.079513 -1.800965,4.643229 -0.377184,1.213284 -0.749078,2.428626 -1.114797,3.646026 -0.318682,1.086281 -0.620606,2.177855 -0.905539,3.273837 0.089,0.565632 0.128625,1.138907 0.118018,1.711886 -0.03561,0.662059 -0.144994,1.318238 -0.326149,1.955894 -0.06922,0.228723 -0.168819,0.446861 -0.296279,0.64883 -0.193233,0.279581 -0.425193,0.530941 -0.689047,0.745551 -0.02985,0.02328 -0.06284,0.04144 -0.09845,0.05409 -0.256681,0.07968 -0.533999,0.06146 -0.777745,-0.05261 -0.65459,-0.224018 -1.087809,-0.847858 -1.069436,-1.539609 0.01341,-0.502718 0.07606,-1.003084 0.187188,-1.493454 z"
     id="path15" />
</svg>
