<?xml version="1.0" encoding="UTF-8" standalone="no"?>
<!-- Created with Inkscape (http://www.inkscape.org/) -->

<svg
   xmlns:dc="http://purl.org/dc/elements/1.1/"
   xmlns:cc="http://creativecommons.org/ns#"
   xmlns:rdf="http://www.w3.org/1999/02/22-rdf-syntax-ns#"
   xmlns:svg="http://www.w3.org/2000/svg"
   xmlns="http://www.w3.org/2000/svg"
   xmlns:sodipodi="http://sodipodi.sourceforge.net/DTD/sodipodi-0.dtd"
   xmlns:inkscape="http://www.inkscape.org/namespaces/inkscape"
   width="506"
   height="506"
   id="svg2"
   sodipodi:version="0.32"
   inkscape:version="0.48.4 r9939"
   version="1.0"
   sodipodi:docname="AJAX.svg"
   inkscape:output_extension="org.inkscape.output.svg.inkscape">
  <defs
     id="defs4">
    <inkscape:perspective
       sodipodi:type="inkscape:persp3d"
       inkscape:vp_x="0 : 300.5 : 1"
       inkscape:vp_y="0 : 1000 : 0"
       inkscape:vp_z="601 : 300.5 : 1"
       inkscape:persp3d-origin="300.5 : 200.33333 : 1"
       id="perspective3380" />
    <inkscape:perspective
       id="perspective3990"
       inkscape:persp3d-origin="375 : 250 : 1"
       inkscape:vp_z="750 : 375 : 1"
       inkscape:vp_y="0 : 1000 : 0"
       inkscape:vp_x="0 : 375 : 1"
       sodipodi:type="inkscape:persp3d" />
  </defs>
  <sodipodi:namedview
     id="base"
     pagecolor="#ffffff"
     bordercolor="#666666"
     borderopacity="1.0"
     gridtolerance="10000"
     guidetolerance="10"
     objecttolerance="10"
     inkscape:pageopacity="0.0"
     inkscape:pageshadow="2"
     inkscape:zoom="0.88385146"
     inkscape:cx="248.50216"
     inkscape:cy="146.11331"
     inkscape:document-units="px"
     inkscape:current-layer="layer1"
     width="601px"
     height="601px"
     inkscape:window-width="1280"
     inkscape:window-height="1001"
     inkscape:window-x="-8"
     inkscape:window-y="-8"
     showgrid="false"
     fit-margin-top="0"
     fit-margin-left="0"
     fit-margin-right="0"
     fit-margin-bottom="0"
     inkscape:window-maximized="1"
     showguides="true"
     inkscape:guide-bbox="true" />
  <metadata
     id="metadata7">
    <rdf:RDF>
      <cc:Work
         rdf:about="">
        <dc:format>image/svg+xml</dc:format>
        <dc:type
           rdf:resource="http://purl.org/dc/dcmitype/StillImage" />
        <dc:title />
      </cc:Work>
    </rdf:RDF>
  </metadata>
  <g
     inkscape:label="Layer 1"
     inkscape:groupmode="layer"
     id="layer1"
     transform="translate(2527.8104,2910.4139)">
    <rect
       style="color:#000000;fill:#000000;fill-opacity:1;fill-rule:nonzero;stroke:none;stroke-width:0.8735441;marker:none;visibility:visible;display:inline;overflow:visible"
       id="rect3653"
       width="0"
       height="27.202072"
       x="578.73834"
       y="298.1684"
       rx="249.48199"
       ry="27.202072" />
    <path
       id="path3855"
       d="m -2527.8104,-2910.4139 506,0 0,506 -506,0 z"
       style="fill:#000000;fill-opacity:1;fill-rule:nonzero;stroke:none"
       inkscape:connector-curvature="0"
       sodipodi:nodetypes="ccccc" />
    <path
       id="path3857"
       d="m -2524.8104,-2907.4139 500,0 0,500 -500,0 0,-500 z"
       style="fill:#ffffff;fill-opacity:1;fill-rule:nonzero;stroke:none"
       inkscape:connector-curvature="0" />
    <path
       sodipodi:nodetypes="scsscsscsscss"
       inkscape:connector-curvature="0"
       id="path3859"
       d="m -2495.6541,-2907.4139 c -7.7361,0 -15.1555,3.0622 -20.625,8.5312 -5.4695,5.4705 -8.5313,12.8894 -8.5313,20.625 l 0,441.6875 c 0,7.7356 3.0618,15.1545 8.5313,20.625 5.4695,5.4691 12.8889,8.5313 20.625,8.5313 l 441.6875,0 c 7.7361,0 15.1555,-3.0622 20.625,-8.5313 5.4695,-5.4705 8.5312,-12.8894 8.5312,-20.625 l 0,-441.6875 c 0,-7.7356 -3.0617,-15.1545 -8.5312,-20.625 -5.4695,-5.469 -12.8889,-8.5312 -20.625,-8.5312 z"
       style="fill:#0c479d;fill-opacity:1;fill-rule:nonzero;stroke:none" />
    <path
       sodipodi:nodetypes="scsscsscsscss"
       inkscape:connector-curvature="0"
       id="path3861"
       d="m -2495.6543,-2894.914 c -4.4198,0 -8.6562,1.7501 -11.7812,4.875 -3.125,3.1265 -4.875,7.3616 -4.875,11.7813 l 0,441.6875 c 0,4.4195 1.75,8.6547 4.875,11.7812 3.125,3.1249 7.3614,4.875 11.7812,4.875 l 441.6875,0 c 4.4199,0 8.6563,-1.7501 11.7813,-4.875 3.125,-3.1265 4.875,-7.3617 4.875,-11.7812 l 0,-441.6875 c 0,-4.4197 -1.75,-8.6548 -4.875,-11.7813 -3.125,-3.1249 -7.3614,-4.875 -11.7813,-4.875 z"
       style="fill:#ffffff;fill-opacity:1;fill-rule:nonzero;stroke:none" />
    <path
       inkscape:connector-curvature="0"
       id="path3863"
       d="m -2460.5254,-2843.1289 371.43,0 0,371.43 -371.43,0 z"
       style="fill:#0c479d;fill-opacity:1;stroke:none" />
    <path
       inkscape:connector-curvature="0"
       style="fill:#ffffff;fill-rule:nonzero;stroke:none"
       d="m -2372.0827,-2627.5791 c 0.2028,-1.5895 0.5363,-3.1567 0.999,-4.6906 0.3417,-2.2073 0.6799,-4.4168 1.0118,-6.624 0.3754,-3.3595 0.699,-6.7249 0.9725,-10.095 0.1428,-2.0757 0.3145,-4.1502 0.519,-6.221 1.5917,-7.7585 3.3304,-15.485 5.215,-23.1771 2.8698,-10.4482 5.6506,-20.9201 8.3378,-31.4154 1.9832,-6.5648 4.0589,-13.1024 6.2246,-19.609 0.759,-2.9517 2.0721,-5.7279 3.8728,-8.1849 1.8112,-2.7251 4.2081,-5.0102 7.0151,-6.6911 5.9745,-2.872 12.1623,-5.2789 18.5078,-7.1969 1.2505,-0.3056 2.4584,-0.7629 3.5978,-1.3603 1.7248,-0.9932 3.2646,-2.2747 4.5542,-3.7899 0.4209,-0.5268 0.7335,-1.131 0.9223,-1.7793 0.036,-0.161 0.073,-0.3232 0.1045,-0.4863 0.027,-0.1216 0.045,-0.2443 0.064,-0.367 0.4864,-2.5398 0.6835,-5.1271 0.5891,-7.7109 0.018,-1.6127 0.027,-3.2252 0.027,-4.8378 0.027,-0.4491 -0.082,-0.896 -0.3237,-1.278 -2.941,-5.2497 -4.7737,-11.0471 -5.3854,-17.0332 -0.3353,-4.8992 0.094,-9.8201 1.2756,-14.5861 0.4008,-1.6889 0.8699,-3.3618 1.4059,-5.0126 0.628,-1.6322 1.5505,-3.1359 2.7157,-4.4383 1.847,-2.3013 4.2035,-4.1408 6.8861,-5.369 4.8162,-2.585 10.3414,-3.5366 15.7457,-2.7123 3.2266,0.4631 6.2874,1.726 8.9011,3.6755 0.7136,0.5603 1.381,1.1807 1.9892,1.8533 1.6394,1.8037 3.0381,3.8098 4.1643,5.971 0.1299,0.2964 0.2481,0.5973 0.3536,0.9029 0.3263,1.0013 0.4745,2.0514 0.4399,3.1037 -0.073,0.5718 -0.1509,1.1424 -0.2336,1.7144 -0.3663,1.9807 -0.8817,3.9313 -1.5434,5.8344 0.319,3.7971 0.2073,7.6184 -0.3308,11.3898 -0.2291,1.8476 -0.5382,3.6848 -0.9283,5.5057 -0.2217,1.1333 -0.5763,2.2378 -1.0573,3.2889 -0.1391,1.2583 -0.42,2.4968 -0.8335,3.6939 -0.1491,0.4642 -0.3754,0.9007 -0.6673,1.2918 -0.9957,1.2296 -2.1669,2.305 -3.4755,3.1929 -0.859,0.5428 -1.7261,1.0707 -2.602,1.5859 -0.5145,0.2638 -1.0622,0.4561 -1.6288,0.5718 -0.6208,4.4627 -0.8417,8.9717 -0.6545,13.4724 0.1718,1.4077 0.8253,2.7135 1.8493,3.6952 4.303,3.2275 8.9522,5.9675 13.8598,8.1705 1.956,0.7201 3.7057,1.909 5.0985,3.4602 1.6678,1.998 3.0323,4.2303 4.047,6.6259 1.695,5.2633 2.8568,10.6817 3.4685,16.1773 1.5444,10.9105 2.9571,21.8398 4.2396,32.7846 0.4045,3.7862 0.749,7.5783 1.0337,11.3764 0.1746,1.8836 0.5118,3.7506 1.0135,5.5761 1.1748,4.7724 2.0354,9.6184 2.5736,14.5034 0.6535,1.4273 1.3016,2.8546 1.9487,4.2841 1.3005,3.0928 2.5439,6.2091 3.7306,9.347 0.1963,0.6994 0.3208,1.4153 0.3717,2.1397 0.01,1.0609 -0.073,2.1217 -0.2572,3.1673 -0.018,0.1304 -0.045,0.2595 -0.064,0.3899 -0.3618,1.3586 -0.7208,2.7169 -1.0764,4.0755 0.4953,2.6671 1.1297,5.3082 1.8978,7.909 0.2426,0.901 0.8217,1.6738 1.6181,2.1598 4.5804,2.1219 9.3517,3.8004 14.251,5.0155 2.0531,0.1363 4.1158,-0.039 6.1155,-0.5239 0.6862,-0.9923 1.2103,-2.0887 1.5517,-3.2469 0.045,-0.8263 -0.2472,-1.637 -0.8172,-2.2392 -0.6753,-0.4315 -1.3537,-0.8583 -2.0377,-1.2803 -1.8978,-1.2577 -3.2705,-3.1674 -3.8584,-5.3687 -0.549,-1.5991 -0.549,-3.3369 0,-4.9372 0.2963,-1.1155 0.5735,-2.238 0.8308,-3.3642 0.1335,-0.4801 0.1335,-0.9898 0,-1.4698 -0.082,-0.2371 -0.1991,-0.4636 -0.3428,-0.6699 -0.018,-0.028 -0.036,-0.056 -0.054,-0.085 -0.3737,-0.627 -0.6536,-1.3051 -0.8326,-2.0141 -0.5881,-2.9741 -0.1637,-6.0597 1.2068,-8.7647 0.9565,-2.4858 2.7904,-4.5354 5.1541,-5.76 4.7713,-2.7798 10.4789,-3.4661 15.7717,-1.8966 2.493,0.5192 4.8318,1.6109 6.8292,3.1886 0.3863,0.3142 0.7299,0.6793 1.0159,1.0871 1.6678,2.5072 2.6055,5.4292 2.7099,8.4389 -0.1555,3.7672 -0.8262,7.493 -1.9962,11.0777 -1.8849,4.661 -4.2949,9.0932 -7.186,13.2054 -0.3091,0.3828 -0.6236,0.7621 -0.9401,1.1368 -0.339,0.4718 -0.4727,1.0622 -0.3681,1.6335 0.093,1.0219 0.2408,2.0377 0.4399,3.0441 0.036,0.3461 0.2019,0.6638 0.4663,0.8914 0.064,0.05 0.12,0.1 0.179,0.1506 0.2246,0.2002 0.4382,0.4077 0.6473,0.6246 2.8663,3.2125 5.2158,6.8505 6.9642,10.7849 1.4012,2.5878 2.5012,5.3284 3.2765,8.1662 3.8916,11.5886 7.7169,23.2008 11.4712,34.8332 0.3199,0.6746 0.6134,1.362 0.878,2.0626 0.4489,0.9305 0.8262,1.8955 1.132,2.883 0.1917,1.1605 0.3617,2.3269 0.5099,3.4945 0.01,0.2408 -0.045,0.4813 -0.1436,0.7006 -0.3472,0.7873 -0.9519,1.432 -1.7165,1.8291 -1.0787,0.3118 -2.2274,0.2785 -3.2859,-0.093 -0.659,-0.2833 -1.2495,-0.7041 -1.7331,-1.2328 -0.2691,-0.2607 -0.4727,-0.5796 -0.5972,-0.9329 -0.3591,-1.0373 -0.6227,-2.1041 -0.7918,-3.1888 -0.091,-1.1368 -0.073,-2.2795 0.036,-3.4151 l -4.6335,-8.4282 -7.0946,-13.0383 c -0.3173,9.7262 0.7589,19.4477 3.1958,28.8694 -2.2666,1.9677 -4.7464,3.6747 -7.3922,5.0889 l 1.5316,16.6419 1.3264,14.2794 c 0.3572,-0.2311 0.759,-0.3876 1.1784,-0.4576 1.5622,-0.3366 3.1412,0.4896 3.7577,1.9643 0.1091,0.2988 0.1509,0.6176 0.1163,0.9341 -0.01,0.056 -0.027,0.1091 -0.055,0.1566 -1.5055,2.513 -3.196,4.9123 -5.0545,7.1775 -0.4663,0.6283 -1.0858,1.125 -1.8019,1.4391 -0.7653,0.4255 -1.5908,0.7326 -2.4491,0.9093 -0.3772,0.048 -0.7598,-0.033 -1.0834,-0.2312 -0.1173,-0.093 -0.2036,-0.218 -0.2482,-0.3604 l -11.8588,-38.0611 c -1.8741,0.2205 -3.7624,0.2939 -5.6472,0.2158 l -2.9125,40.6535 c -0.2064,1.6014 -1.0456,3.0524 -2.3306,4.0304 -0.046,0.037 -0.082,0.071 -0.1319,0.1055 -0.4907,0.4149 -1.0728,0.7077 -1.6973,0.8546 -1.0837,0.1222 -2.1789,0.1126 -3.26,-0.025 -0.6035,-0.1351 -1.1925,-0.3283 -1.7579,-0.5784 -2.2903,-1.6311 -4.5982,-3.2396 -6.9205,-4.8247 -0.7871,-0.7135 -1.0241,-1.8526 -0.588,-2.8211 0.4036,-1.3029 1.3738,-2.3519 2.6423,-2.8569 0.9863,-0.2062 2.0105,-0.1162 2.9445,0.2608 0.5563,0.2359 1.0325,0.6283 1.3727,1.1273 0.082,0.029 0.1701,0.015 0.2372,-0.035 0.073,-0.05 0.1073,-0.1317 0.1037,-0.2159 l -5.2086,-38.7817 c -3.8218,-1.3217 -7.4455,-3.1579 -10.773,-5.4576 4.399,-10.3142 8.3215,-20.8217 11.7568,-31.4927 0.689,-2.3839 1.2364,-4.8068 1.6393,-7.2547 0.3582,-2.0187 0.6945,-4.0422 1.0113,-6.0669 0.2963,-2.6328 -0.1664,-5.2929 -1.3336,-7.6696 -0.055,-0.1019 -0.1091,-0.2002 -0.1745,-0.2928 -1.368,-1.9489 -2.8676,-3.8028 -4.4904,-5.5442 -1.49,-1.611 -3.0097,-3.1935 -4.559,-4.7463 -1.0835,-1.163 -2.02,-2.4526 -2.7893,-3.8432 -0.56,-1.1332 -1.0751,-2.2867 -1.5422,-3.4614 -0.1991,-0.9116 -0.3108,-1.8408 -0.329,-2.7762 0.082,-3.4009 0.2317,-6.7983 0.4598,-10.191 -0.8807,-2.9042 -1.8445,-5.7836 -2.89,-8.632 0.082,-1.4142 0.091,-2.8308 0.01,-4.245 -1.1083,-1.8255 -2.33,-3.5811 -3.6589,-5.2537 -1.3738,-1.8421 -2.6908,-3.7257 -3.9497,-5.6484 -2.1646,-3.8491 -4.0269,-7.8616 -5.5726,-11.9987 -0.7981,-2.007 -1.3987,-4.0874 -1.7923,-6.2115 -0.109,-2.493 -0.449,-4.9681 -1.0195,-7.3971 -1.157,-4.5815 -2.5369,-9.1039 -4.13,-13.5515 l -0.5017,65.412 -6.5457,3.0808 2.168,39.6756 -7.1302,47.376 c 0.8963,-0.8298 2.0911,-1.2636 3.3109,-1.2009 1.2198,0.063 2.3636,0.6165 3.1697,1.534 1.2221,1.7649 1.4866,4.0232 0.7063,6.0229 -0.8017,2.1966 -2.0472,4.2035 -3.6594,5.8999 -2.7666,3.3321 -5.7029,6.5209 -8.7955,9.5532 -1.4818,1.509 -3.2362,2.724 -5.1684,3.5834 -1.061,0.3438 -2.1669,0.537 -3.2824,0.5701 -0.6354,-0.076 -1.1961,-0.4552 -1.5078,-1.0147 -0.6972,-1.1072 -1.2636,-2.2901 -1.6928,-3.5254 -0.3473,-1.5907 -0.5054,-3.2159 -0.469,-4.8435 0.018,-2.0177 -0.01,-4.0364 -0.082,-6.0528 0.379,-4.7261 0.7908,-9.4464 1.2316,-14.1644 0.3418,-6.8812 0.52,-13.7709 0.5409,-20.6592 -0.1491,-5.9614 -0.5118,-11.9157 -1.0859,-17.8522 -1.5873,-14.2356 -3.1496,-28.4734 -4.686,-42.715 l -3.6178,0.1304 c -2.7181,39.0829 -5.5868,78.1538 -8.6073,117.2131 -0.7162,3.491 -1.9143,6.8647 -3.5621,10.025 -0.8771,1.7781 -2.679,2.9149 -4.6621,2.9422 -2.768,0.301 -5.492,-0.863 -7.1884,-3.0702 -4.6219,-6.182 -8.1745,-13.0952 -10.5098,-20.4531 -0.3945,-1.2434 -0.3072,-2.5913 0.2428,-3.7743 0.6634,-1.1878 1.5694,-2.225 2.6588,-3.0442 0.7862,-0.6115 1.7899,-0.8676 2.7727,-0.7123 0.9637,0.2786 1.9013,0.6413 2.8034,1.0835 l -3.9166,-105.276 -4.3658,-1.9974 1.9026,-22.8985 c 1.6951,-15.8371 3.4341,-31.6694 5.217,-47.4957 -1.2139,3.1757 -2.5048,6.3218 -3.8704,9.4358 -1.0846,2.749 -2.2488,5.4671 -3.4934,8.1509 -2.5854,6.1748 -5.0083,12.4171 -7.2618,18.7223 -1.5208,4.8922 -3.0204,9.7926 -4.4951,14.7014 -1.2849,4.3801 -2.5023,8.7815 -3.6511,13.2007 0.359,2.2807 0.5189,4.5922 0.4753,6.9026 -0.1436,2.6695 -0.5844,5.3154 -1.3151,7.8865 -0.2791,0.9223 -0.6809,1.8018 -1.1946,2.6163 -0.779,1.1272 -1.7145,2.1408 -2.7784,3.0061 -0.1209,0.094 -0.2536,0.1671 -0.3972,0.2182 -1.035,0.3213 -2.1532,0.2477 -3.136,-0.2122 -2.6396,-0.9033 -4.3864,-3.4188 -4.3122,-6.208 0.055,-2.027 0.3072,-4.0446 0.7544,-6.0218 z"
       id="path3865" />
  </g>
</svg>
