<svg xmlns="http://www.w3.org/2000/svg" width="500" height="500" version="1">
  <path d="M0 0h500v500H0V0z" fill="#0c479d"/>
  <path d="M29.1563 0c-7.7361 0-15.1555 3.0622-20.625 8.5312C3.0618 14.0017 0 21.4206 0 29.1562v441.6875c0 7.7356 3.0618 15.1545 8.5313 20.625C14.0008 496.9378 21.4202 500 29.1563 500h441.6875c7.7361 0 15.1555-3.0622 20.625-8.5313 5.4695-5.4705 8.5312-12.8894 8.5312-20.625V29.1562c0-7.7356-3.0617-15.1545-8.5312-20.625C485.9993 3.0622 478.5799 0 470.8438 0z" fill="#fff"/>
  <path d="M29.1561 12.4999c-4.4198 0-8.6562 1.7501-11.7812 4.875-3.125 3.1265-4.875 7.3616-4.875 11.7813v441.6875c0 4.4195 1.75 8.6547 4.875 11.7812 3.125 3.1249 7.3614 4.875 11.7812 4.875h441.6875c4.4199 0 8.6563-1.7501 11.7813-4.875 3.125-3.1265 4.875-7.3617 4.875-11.7812V29.1562c0-4.4197-1.75-8.6548-4.875-11.7813-3.125-3.1249-7.3614-4.875-11.7813-4.875z" fill="#0c479d"/>
  <path d="M12.4999 423.7177l237.5-411.2178 237.4999 411.2178H12.4999z" fill="#fff"/>
  <path d="M166.8508 405.3877h53.3641l1.4723-21.0524h-49.5864l-5.25 21.0524zm-66.1871 0l8.9359-21.0524H59.4553l-12.1554 21.0524h53.3638zm181.6023 0l-1.4717-21.0524h49.5865l5.2492 21.0524h-53.364zm117.0698 0l-8.9367-21.0524h50.145l12.1558 21.0524h-53.3641zm-288.0391-86.5746h-14.013l-9.7242 16.8429h26.3969c-1.8344-5.4235-2.7335-11.1185-2.6597-16.8429zm261.7136 16.8429h39.4291l-9.7236-16.8429h-22.8062c.031 3.5951-.2925 7.1846-.9671 10.716h-4.2311c-.4379 2.0765-1.0062 4.1223-1.7011 6.1269zm-94.2655-10.6614h-15.9549l-1.1666 23.6514-34.0442 2.112.3965-6.7323 12.8735-9.6143-.3736-15.7755-45.2016-41.3405-1.1665 2.3096c10.9941 8.9169 17.8399 21.9587 18.9344 36.0714 1.0944 14.1116-3.6593 28.0537-13.1463 38.5576l-3.8516-2.309c-14.8449 15.6475-38.4133 19.2317-57.2395 8.7037-18.825-10.5279-28.1102-32.4848-22.5492-53.3256 5.5611-20.8396 24.5507-35.2527 46.1189-35.0022v-4.2462c8.8406.2109 17.4926 2.5908 25.1974 6.9306l16.3509-36.9184c-3.4521-3.3078-4.6552-8.3265-3.0772-12.8399 1.5767-4.5134 5.6445-7.6903 10.4054-8.1277l20.5759-21.2534c1.7288-1.7853 2.7727-4.1218 2.9487-6.6002l-.1099-18.9872c.2438-4.344 1.6584-8.5404 4.0935-12.1449l2.5529-4.5104 3.2785-4.4444c.6318-.6547.9016-1.578.7207-2.47-.1796-.8913-.7868-1.638-1.6224-1.996-1.3118-.5622-2.7342-.8181-4.1597-.7484-3.2417-.4391-5.9579-2.67-7.0199-5.7646l-2.0687-8.6245-3.1691-10.0546c-1.1197-4.8269-.083-9.9026 2.8393-13.9049.5225-.7166 1.1899-1.316 1.9581-1.7599 4.776-3.3103 10.4108-5.1604 16.2187-5.3243 3.4521-.098 6.7264 1.5262 8.7374 4.3338 3.0946 4.1031 5.0936 8.9266 5.8091 14.0154.421 2.9955.7436 6.0036.9683 9.0203.4576 6.1508 2.614 12.0536 6.2277 17.0512.7959 1.101 1.8068 2.029 2.9715 2.7282 1.1545.6938 2.1582 1.6146 2.9492 2.706 3.8876 4.4132 7.1805 9.3176 9.7915 14.5873.7449 1.5017 1.5006 2.9979 2.2676 4.4882.3232.6277.7137 1.2182 1.1665 1.7599.9623 1.1539 1.7624 2.4351 2.3763 3.8065 1.3317 2.9733 2.778 5.8944 4.3356 8.7566l4.4456 10.0768 2.0687 4.7519 3.3223 8.6466 3.016 8.4712c.9796 2.7548 1.9335 5.5196 2.8598 8.2942 1.8843 5.6414.8001 11.8529-2.8827 16.5231-1.3617 1.7264-2.945 3.2646-4.7092 4.5765l-8.2298 14.3008 9.2858 14.7187c16.9767-7.2668 36.5489-4.8473 51.2454 6.3353 14.6961 11.1821 22.2471 29.401 19.7699 47.701h-4.1812c-3.5073 23.2177-23.6051 40.29-47.0853 39.9962-23.4784-.2931-43.1444-17.8633-46.0684-41.1627z"/>
  <path d="M186.2513 296.0405c12.1311 12.7264 12.5324 32.6116.9232 45.8168-11.6092 13.2045-31.3819 15.3537-45.5572 4.9524-14.1758-10.4011-18.0567-29.9079-8.944-44.9438 9.1134-15.036 28.2033-20.6198 43.9829-12.8658.7461.3664 1.4728.7707 2.1786 1.2098l-3.6971 8.1853-1.9143 3.7398-2.091 3.4105c-1.5809 2.5793-3.8629 4.6546-6.5796 5.9845l-.5065-.1982c-3.5872-.9965-7.4002.498-9.3566 3.6659-1.9564 3.1673-1.5839 7.2465.9124 10.0071 2.4971 2.7613 6.5179 3.5416 9.8654 1.9132 3.3482-1.6284 5.2175-5.2733 4.5867-8.9422l.5719-.2859c1.265-.6319 2.3889-1.5155 3.3012-2.5955 1.0404-1.2319 2.0964-2.4495 3.1686-3.6527l2.8616-4.4221 6.0073-11.1773.2865.1982zm128.0994-9.0863c13.4136-4.5356 28.2315-.2468 37.1478 10.752 8.9163 10.9988 10.048 26.385 2.8352 38.569-7.2122 12.184-21.2433 18.5938-35.1752 16.0691-13.932-2.5253-24.8216-13.4537-27.2981-27.3942h27.3977c2.1624 2.145 5.3251 2.9344 8.2407 2.0586 2.9162-.8758 5.1194-3.2772 5.7418-6.2584.6222-2.9805-.4361-6.0632-2.7589-8.0327l-16.131-25.7634z" fill="#fff"/>
  <path d="M306.6928 290.7378l13.6003 21.6278c-1.7455 1.0439-2.9199 2.8248-3.1908 4.8408h-25.7699c.5923-10.7718 6.3016-20.6102 15.3604-26.4686zm-15.7123-24.7295l6.5581 10.2966c-14.0773 8.9572-22.8867 24.2304-23.5914 40.9015h-11.0474v-2.0909l28.0807-49.1072zm-26.4301 9.1092l20.5976-16.2812-21.7858 38.6561 1.1882-22.3749zm-24.7794 31.7699l-41.0642-37.4685 4.3356-9.394h23.1288l12.8514 22.0891.7484 24.7734zm-15.8451-55.07H206.453l7.9222-17.1605c4.6071.2295 8.8334-2.5463 10.4535-6.8651l27.3101-21.209 10.0125 22.8375-16.7244 7.4585c-9.0281 1.5437-16.9047 7.0164-21.501 14.9386z" fill="#fff"/>
</svg>
