<?xml version="1.0" encoding="utf-8"?>
<!DOCTYPE svg PUBLIC "-//W3C//DTD SVG 1.1//EN" "http://www.w3.org/Graphics/SVG/1.1/DTD/svg11.dtd">
<svg xmlns="http://www.w3.org/2000/svg" width="608.37335" height="540.03998">
  <g transform="matrix(1.33333 0 0 -1.33333 0 540.04)">
    <path fill="#e4002b" d="M419.433 0c13.166 0 25.33 7.02344 31.914 18.425 6.582 11.4012 6.582 25.4492 0 36.8504L260.055 386.602c-6.583 11.402-18.748 18.425-31.913 18.425-13.166 0-25.331-7.023-31.914-18.425L4.93711 55.2754c-6.58242-11.4012-6.58242-25.4492 0-36.8504C11.5195 7.02344 23.6852 0 36.8508 0H419.433"/>
    <path fill="#ffcd00" d="M409.614 42.5195H46.6699L228.142 356.838 409.614 42.5195"/>
    <path d="M265.559 53.8586h45.355V167.674c0 8.609-4.592 16.562-12.047 20.867-7.455 4.304-16.641 4.304-24.096 0L223.607 159v73.332l-22.678 22.677-22.677-22.677V122.178c0-8.608 4.592-16.563 12.048-20.867 7.454-4.304 16.639-4.304 24.094 0l51.165 29.541V53.8586"/>
  </g>
</svg>
