<?xml version="1.0" encoding="UTF-8" standalone="no"?>
<svg
   width="806.87"
   height="716.5"
   fill-rule="evenodd"
   version="1.1"
   id="svg12"
   sodipodi:docname="888.svg"
   inkscape:version="1.1.1 (3bf5ae0d25, 2021-09-20)"
   xmlns:inkscape="http://www.inkscape.org/namespaces/inkscape"
   xmlns:sodipodi="http://sodipodi.sourceforge.net/DTD/sodipodi-0.dtd"
   xmlns="http://www.w3.org/2000/svg"
   xmlns:svg="http://www.w3.org/2000/svg">
  <defs
     id="defs16" />
  <sodipodi:namedview
     id="namedview14"
     pagecolor="#ffffff"
     bordercolor="#111111"
     borderopacity="1"
     inkscape:pageshadow="0"
     inkscape:pageopacity="0"
     inkscape:pagecheckerboard="1"
     showgrid="false"
     inkscape:zoom="1.0034892"
     inkscape:cx="403.09353"
     inkscape:cy="322.37517"
     inkscape:window-width="1920"
     inkscape:window-height="1057"
     inkscape:window-x="-8"
     inkscape:window-y="-8"
     inkscape:window-maximized="1"
     inkscape:current-layer="svg12" />
  <path
     d="M66.019,715.461 9.727,617.961 347.143,33.539 459.727,33.539 797.143,617.961 740.851,715.461"
     fill="#e42b38"
     stroke="none"
     id="path2" />
  <circle
     cx="66.019"
     cy="650.461"
     r="65"
     fill="#e42b38"
     stroke="none"
     id="circle4" />
  <circle
     cx="403.435"
     cy="66.039"
     r="65"
     fill="#e42b38"
     stroke="none"
     id="circle6" />
  <circle
     cx="740.851"
     cy="650.461"
     r="65"
     fill="#e42b38"
     stroke="none"
     id="circle8" />
  <path
     d="M83.339,640.461 403.435,86.039 723.531,640.461"
     fill="#fed300"
     stroke="none"
     id="path10" />
  <path
     d="m 361.41139,521.42321 -2.06589,-0.24165 c -5.47618,-0.64731 -10.77416,-2.35646 -15.59929,-5.03042 -3.82133,-2.11835 -7.57032,-4.35664 -11.24696,-6.71664 -1.7854,-1.14825 -3.35556,-2.6034 -4.63816,-4.29843 -1.45725,-1.93316 -3.01683,-3.78517 -4.67167,-5.55428 l -2.42228,-3.8469 -2.51578,-4.29668 -2.57403,-4.87873 -6.06187,-13.81074 -3.56903,-7.976 -1.87539,-4.59829 -2.06589,-6.15398 -0.78862,-2.5893 -0.69335,-2.60869 -0.45163,-1.48338 c -1.1838,-3.89275 -3.76309,-7.21403 -7.24567,-9.32532 -1.18557,-0.71789 -2.55992,-1.05831 -3.94305,-0.9754 -6.12188,0.36511 -12.20142,1.25055 -18.17156,2.64573 -2.97448,0.69495 -6.0548,0.79724 -9.06988,0.29985 -0.84683,-0.13758 -1.65307,-0.45859 -2.36407,-0.93659 -1.35668,-0.91366 -2.51932,-2.08837 -3.4173,-3.45533 -1.61956,-2.46758 -2.42935,-5.37965 -2.30938,-8.33053 0.044,-1.09358 0.46224,-2.13952 1.18205,-2.96498 l 1.72716,-2.68278 2.02887,-2.64574 2.06415,-2.38294 3.39789,-3.49237 7.81024,-7.05529 c 2.57401,-2.32648 4.80046,-5.01102 6.6088,-7.97424 l 0.69332,-1.35108 0.54516,-1.72679 c 0.8133,-2.57518 2.57931,-4.74292 4.93631,-6.05874 5.16213,-2.88385 10.85175,-4.69705 16.73016,-5.33027 l 1.33201,-0.93835 c 2.94449,-2.07249 6.54174,-2.9985 10.11782,-2.61046 l 1.72719,3.49237 3.1562,7.50507 3.99597,2.66513 15.50932,12.08572 c 7.34977,5.72537 15.57812,10.22489 24.36751,13.32216 2.4858,0.87486 5.11979,1.25761 7.75378,1.12533 1.37962,-0.0688 2.75572,-0.16757 4.12829,-0.29986 1.87538,-0.17815 3.76663,-0.14816 5.63495,0.0935 3.65547,0.47271 7.35857,0.4198 10.99995,-0.14993 l 8.6747,-0.58206 7.1504,-0.56265 7.1522,-0.63851 8.78761,-1.12531 c 5.16565,-0.66144 10.31718,-1.43752 15.45109,-2.32649 7.24568,-1.25584 14.59368,-1.82203 21.94522,-1.68973 3.5461,0.0652 7.08689,-0.28399 10.55008,-1.03184 4.67344,-1.00892 9.40863,-1.68798 14.17733,-2.02664 3.7931,-0.26986 7.59148,-0.46389 11.39514,-0.5803 8.35538,-0.25928 16.69841,0.8043 24.72212,3.15195 6.98105,2.04074 13.39402,5.67069 18.73786,10.60234 1.42373,1.31406 2.66574,2.80977 3.69781,4.44661 l 1.18204,0.9948 c 8.0731,6.78718 11.61391,17.5571 9.14223,27.80842 -0.20113,0.83429 -0.73745,1.54688 -1.48196,1.97019 -1.23319,0.70378 -2.46816,1.4093 -3.69783,2.12188 -0.96149,0.55385 -1.41137,1.69857 -1.08852,2.75862 l 0.39342,3.88218 c 0.59454,5.85766 -0.0247,11.77176 -1.82068,17.37719 -1.4096,4.40426 -3.07858,8.7221 -4.99453,12.93059 -3.17384,6.97063 -3.95185,14.79495 -2.21411,22.25415 0.51339,2.21008 1.47137,4.29138 2.81572,6.11694 2.41171,3.28071 4.70343,6.64786 6.87165,10.0979 0.80273,1.27524 0.71981,2.91736 -0.20817,4.109 -1.36726,1.75342 -2.47873,3.69309 -3.30439,5.75993 -2.49463,6.24923 -3.689,12.93942 -3.51082,19.66541 0.0652,2.3928 -0.0988,4.787 -0.48515,7.15036 -0.31227,1.88781 -0.217,3.81833 0.27873,5.66681 0.38991,1.4414 0.21348,2.97786 -0.48515,4.29597 -1.34787,2.53197 -2.9198,4.938 -4.6946,7.18758 -0.58927,0.7461 -1.05326,1.58338 -1.37082,2.47693 -0.49929,1.39871 -1.14674,2.7387 -1.9336,3.99824 -0.71626,1.14172 -1.55957,2.20125 -2.51401,3.15213 -0.80978,0.80272 -1.81362,1.3779 -2.91274,1.66876 l -4.63639,0.26386 -1.87715,0.038 -2.61105,-0.038 c -1.74834,-0.0261 -3.21794,-1.32639 -3.4526,-3.05918 -0.1094,-0.81154 0.18349,-1.62465 0.78686,-2.17708 1.55958,-1.42288 3.22325,-2.72847 4.97511,-3.90317 1.98124,-1.32638 3.62197,-3.10062 4.78988,-5.17788 0.79214,-1.41441 1.61956,-2.80977 2.47698,-4.18554 0.81684,-1.30771 1.41315,-2.74082 1.76422,-4.24077 0.57514,-2.4459 1.05856,-4.91259 1.44668,-7.39289 0.39166,-2.50798 0.44104,-5.05935 0.14819,-7.58249 -0.49223,-4.24077 -1.08676,-8.47112 -1.78188,-12.68437 -1.7007,-10.29014 -7.25273,-19.54756 -15.52519,-25.89558 l -0.19054,1.78148 c -0.40224,3.85041 -0.39166,7.73259 0.0388,11.57949 0.46576,4.14957 -0.43047,8.33866 -2.55283,11.93527 -0.81684,1.38618 -1.67602,2.7505 -2.57048,4.08906 -1.39198,2.07743 -2.43639,4.36494 -3.09798,6.77433 -0.43753,1.58461 -0.89976,3.16112 -1.38845,4.72845 -0.62102,1.97743 -1.2967,3.93773 -2.03062,5.87371 -1.09205,2.89037 -2.40817,5.68762 -3.9413,8.36915 -1.6019,2.8029 -3.24617,5.58093 -4.93805,8.33214 -0.87153,1.42269 -2.02887,2.64909 -3.39792,3.60331 -0.80978,0.56496 -1.68658,1.03149 -2.60751,1.38831 -1.34611,0.52032 -2.57047,1.30364 -3.60433,2.30814 -1.4643,1.41934 -3.07681,2.67678 -4.80751,3.75376 -1.97418,1.22428 -4.23062,1.92363 -6.5541,2.027 -3.51434,0.15504 -7.01986,-0.46512 -10.26781,-1.82238 -0.50985,-0.2122 -0.79918,-0.75105 -0.69335,-1.29396 0.13938,-0.72493 0.46225,-1.40346 0.93858,-1.97054 l 1.57721,-1.18158 2.02711,-1.18299 2.90922,-1.53859 3.30438,-1.5758 4.35588,-1.97037 c 1.26319,-0.572 2.37641,-1.4331 3.24794,-2.51485 1.08853,-1.3525 2.14178,-2.73535 3.15268,-4.14781 0.78508,-1.09075 1.3849,-2.30126 1.78364,-3.58268 0.65275,-2.10142 1.82067,-4.00318 3.3979,-5.53611 0.86447,-0.84065 1.52606,-1.86719 1.93358,-3.00274 1.04796,-2.91912 1.95654,-5.88869 2.7222,-8.89478 0.80627,-3.15354 1.72542,-6.27673 2.75926,-9.36344 0.56632,-1.68462 0.81331,-3.46009 0.73392,-5.23432 l 0.0176,-7.395 -0.26111,-5.4601 -0.39519,-5.68655 -1.31434,-12.27093 -0.54516,-4.54185 -3.26557,0.93837 c -5.9825,1.71795 -11.95088,3.47649 -17.91221,5.27382 -2.76631,0.83429 -5.6067,1.40048 -8.48241,1.68975 -3.80719,0.37921 -7.60557,0.8237 -11.3969,1.32992 -3.32909,0.44448 -6.64584,0.9701 -9.95024,1.57686 -5.73727,1.053 -11.55392,1.62977 -17.38292,1.72677 -7.87905,0.13057 -15.75807,0.21167 -23.63888,0.24342 l 0.63864,3.39712 c 0.96151,5.10627 1.3267,10.30778 1.0903,15.49924 -0.0917,2.00142 0.17642,4.00299 0.78685,5.91146 1.31964,4.10654 2.72219,8.18538 4.20768,12.23458 1.00032,2.73393 1.74305,5.55322 2.21587,8.4249 0.16407,1.00945 0.52044,1.97743 1.04971,2.85247 l 0.73039,1.87758 1.7854,3.80792 1.06912,2.64785 0.90152,2.13722 0.33874,1.18371 c 0.51515,1.80174 0.3546,3.73101 -0.45166,5.42234 -1.35492,2.84911 -2.8845,5.61338 -4.57992,8.27499 -1.32317,2.07725 -3.45258,3.50682 -5.87664,3.94091 -0.60161,0.10834 -1.21026,0.15855 -1.82068,0.14956 -2.4805,-0.0324 -4.95395,-0.26316 -7.39741,-0.69388 -0.89622,-0.15839 -1.63015,-0.8096 -1.89302,-1.68111 -0.2611,-0.87504 -0.009,-1.82096 0.65453,-2.44589 l 4.05597,-3.99823 1.66894,-1.7259 1.03386,-1.183 c 1.37431,-1.57439 2.15764,-3.57791 2.21408,-5.66698 0.0423,-1.53859 -0.2258,-3.06959 -0.7886,-4.5027 l -1.21908,-4.12911 -0.48868,-2.11993 -0.59985,-2.2152 -0.93857,-3.00061 -0.73392,-2.06544 -1.42549,-3.20875 -1.27553,-2.56988 c -1.21556,-2.44802 -2.35701,-4.93324 -3.41907,-7.45005 -1.18027,-2.8057 -2.0571,-5.73047 -2.60754,-8.72616 -0.35636,-1.9305 -0.66864,-3.87018 -0.94033,-5.81692 -0.14468,-1.04947 -0.27521,-2.10071 -0.39343,-3.15194 -0.18171,-1.64389 -0.79212,-3.20663 -1.76422,-4.54185 -0.9174,-1.25759 -1.69894,-2.61045 -2.32877,-4.03386 -0.39342,-0.89073 -0.70747,-1.81497 -0.93682,-2.75862 l -0.94208,3.11491 -0.93681,2.27004 -0.88213,2.15892 -0.93855,1.9702 -1.05324,2.27004 -0.67571,1.68974 -0.63689,1.51917 c -0.80801,1.92381 -1.34433,3.95151 -1.59485,6.02329 -0.1976,1.62941 -0.42342,3.2576 -0.6757,4.88015 -0.29286,1.87405 -0.464,3.76876 -0.50634,5.66698 -0.0546,2.30126 -0.38989,4.58859 -0.99678,6.81066 -0.80449,2.94541 -1.36376,5.95077 -1.67073,8.98791 -0.17288,1.71215 -0.38637,3.42093 -0.63688,5.12267 -0.55574,3.74812 -1.75012,7.37225 -3.53022,10.71523 -0.6263,1.17329 -1.16615,2.38945 -1.61427,3.64 -0.48693,1.35392 -0.98268,2.70571 -1.48371,4.05469 -0.66689,1.79486 -1.84892,3.35531 -3.39967,4.48327 -2.47345,1.80722 -5.52733,2.64785 -8.57768,2.36529 -1.43607,-0.13299 -2.86862,-0.28238 -4.29943,-0.45118 -1.19085,-0.13794 -2.34287,-0.50163 -3.39611,-1.068 -0.64043,-0.34448 -1.06913,-0.9784 -1.14677,-1.69838 -0.0794,-0.72 0.20113,-1.43312 0.74981,-1.90512 1.33728,-1.15053 2.68162,-2.28943 4.0383,-3.41598 1.1097,-0.92125 2.20882,-1.85343 3.30264,-2.79532 l 0.93858,-2.2702 1.23848,-2.77663 1.42727,-2.75932 2.10295,-3.05917 1.14498,-1.14384 c 1.62133,-1.62113 2.65693,-3.73296 2.94803,-6.00459 0.30167,-2.35629 0.63159,-4.70923 0.99325,-7.05722 0.31404,-2.02364 0.44459,-4.07003 0.39696,-6.11625 -0.0512,-2.02769 0.19583,-4.04991 0.73039,-6.00457 0.86094,-3.14191 0.79566,-6.46618 -0.18701,-9.57016 -0.34226,-1.08034 -0.65453,-2.17039 -0.94034,-3.26572 -0.95797,-3.69785 -1.37433,-7.51654 -1.23672,-11.33345"
     style="fill:#000000;fill-opacity:1;fill-rule:evenodd;stroke:none;stroke-width:0.176401"
     id="path16"
     sodipodi:nodetypes="ccccccccccccccccccccccccccccccccccccccccccccccccccccccccccsccccccccccccccccccccccccccccccsccccccccccccccccccccccccccccccccccccccccscccccccccccccccsccccccccccccccccccccccccccccccccccsccccccscccccccccccccccccc" />
</svg>
