<?xml version="1.0" encoding="UTF-8" standalone="no"?>
<svg
   width="806.87"
   height="716.5"
   fill-rule="evenodd"
   version="1.1"
   id="svg12"
   sodipodi:docname="888.svg"
   inkscape:version="1.1.1 (3bf5ae0d25, 2021-09-20)"
   xmlns:inkscape="http://www.inkscape.org/namespaces/inkscape"
   xmlns:sodipodi="http://sodipodi.sourceforge.net/DTD/sodipodi-0.dtd"
   xmlns="http://www.w3.org/2000/svg"
   xmlns:svg="http://www.w3.org/2000/svg">
  <defs
     id="defs16" />
  <sodipodi:namedview
     id="namedview14"
     pagecolor="#ffffff"
     bordercolor="#111111"
     borderopacity="1"
     inkscape:pageshadow="0"
     inkscape:pageopacity="0"
     inkscape:pagecheckerboard="1"
     showgrid="false"
     inkscape:zoom="1.0034892"
     inkscape:cx="310.4169"
     inkscape:cy="367.21871"
     inkscape:window-width="1920"
     inkscape:window-height="1057"
     inkscape:window-x="-8"
     inkscape:window-y="-8"
     inkscape:window-maximized="1"
     inkscape:current-layer="svg12" />
  <path
     d="M66.019,715.461 9.727,617.961 347.143,33.539 459.727,33.539 797.143,617.961 740.851,715.461"
     fill="#e42b38"
     stroke="none"
     id="path2" />
  <circle
     cx="66.019"
     cy="650.461"
     r="65"
     fill="#e42b38"
     stroke="none"
     id="circle4" />
  <circle
     cx="403.435"
     cy="66.039"
     r="65"
     fill="#e42b38"
     stroke="none"
     id="circle6" />
  <circle
     cx="740.851"
     cy="650.461"
     r="65"
     fill="#e42b38"
     stroke="none"
     id="circle8" />
  <path
     d="M83.339,640.461 403.435,86.039 723.531,640.461"
     fill="#fed300"
     stroke="none"
     id="path10" />
  <path
     id="path16"
     style="fill:#000000;fill-opacity:1;fill-rule:evenodd;stroke:none;stroke-width:0.17639"
     d="m 271.81018,374.02518 c -0.42158,-0.1217 -0.86741,0.0904 -1.03321,0.4961 -0.25754,0.63323 -0.25754,1.34139 0,1.97464 l 0.57031,1.39845 1.03322,3.06449 1.40041,3.57428 c -0.0512,0.0212 -0.10586,0.0336 -0.16407,0.0371 -1.81328,0.0529 -3.58908,0.53238 -5.18365,1.39846 -1.19592,0.65264 -2.39257,1.29723 -3.59378,1.93753 -1.10598,0.58913 -2.07257,1.40519 -2.83987,2.39651 -0.31044,0.40041 -0.70005,0.73492 -1.14456,0.97657 -0.57855,0.32103 -1.26167,0.40081 -1.89844,0.22266 -1.09891,-0.30515 -2.0707,-0.95841 -2.76566,-1.8633 l -4.98053,-6.46884 c -0.34396,-0.32104 -0.77047,-0.53002 -1.23438,-0.60939 -0.46919,-0.0794 -0.94171,0.12932 -1.19923,0.53322 -0.41099,0.65087 -0.48693,1.46161 -0.20117,2.17776 l 0.75587,1.89847 1.56837,3.63091 1.10548,2.21292 1.19728,1.7676 0.97853,1.32814 1.86133,3.35552 c 0.29281,0.45157 0.26296,1.03723 -0.0723,1.45705 -0.85549,1.06186 -1.76367,2.07814 -2.72854,3.04301 -0.78847,0.78494 -1.7676,1.34942 -2.84182,1.63869 -1.27883,0.34573 -2.29091,1.32963 -2.67191,2.59965 -0.34925,1.16948 -0.60613,2.36637 -0.75782,3.57817 -0.2346,1.85387 -1.07535,3.57948 -2.3965,4.90241 -0.94194,0.94371 -1.78111,1.98096 -2.50785,3.09575 -1.12184,1.72687 -2.32377,3.39818 -3.59379,5.0157 -1.01423,1.28413 -1.84296,2.69503 -2.47267,4.20318 -0.7038,1.6863 -1.70236,3.23548 -2.95121,4.57428 l -7.09773,7.61144 c -0.27692,0.95075 -0.33553,1.95625 -0.16797,2.93168 0.27694,1.58398 0.68973,3.13645 1.23829,4.6446 0.43392,1.20297 1.07825,2.32008 1.89846,3.30082 0.77083,0.92076 1.62243,1.77217 2.54495,2.54301 1.06539,0.88725 2.30286,1.54927 3.63285,1.93557 1.42523,0.41626 2.95446,0.26932 4.27739,-0.40626 0.78669,-0.40041 1.61347,-0.71001 2.47073,-0.91993 1.32293,-0.32632 2.70011,-0.36509 4.03715,-0.10938 1.24707,0.23461 2.49534,0.46817 3.74418,0.69923 1.85387,0.34573 3.75872,0.32448 5.60553,-0.0547 1.47461,-0.30339 2.94925,-0.59922 4.42387,-0.88673 1.48521,-0.28928 2.93701,-0.72653 4.33403,-1.30861 1.04952,-0.43745 2.2213,-0.48326 3.30081,-0.12695 1.30882,0.42686 2.57283,0.97548 3.77934,1.63869 2.8346,1.55753 5.89753,2.65868 9.07431,3.26372 1.03365,0.19579 2.06758,0.39771 3.09769,0.60938 1.7057,0.34396 3.44054,0.53503 5.17974,0.57032 1.3,0.0247 2.5819,0.32018 3.76371,0.86525 2.346,1.0848 4.35156,2.7948 5.78913,4.94147 1.89972,2.83108 3.59397,5.79458 5.07036,8.86732 1.18357,2.46417 2.46543,4.88254 3.83598,7.24619 1.10243,1.9015 2.0514,3.88597 2.83987,5.93563 1.03012,2.67937 2.16664,5.31713 3.4102,7.90831 0.88018,1.82918 1.69118,3.6951 2.43556,5.58602 0.23107,0.58914 0.53372,1.14687 0.90236,1.66017 3.06567,4.26161 7.41491,7.4332 12.41028,9.04896 l 3.08011,0.99806 -3.11917,2.93168 -6.54499,5.71492 -3.42777,3.37114 -2.6387,2.9688 c -0.93135,1.39879 -1.87854,2.79041 -2.83987,4.16803 -0.66852,0.9578 -1.24913,1.97565 -1.73244,3.04105 -0.65792,1.44641 -0.84738,3.06595 -0.53516,4.62702 0.32808,1.64678 0.92835,3.22771 1.77149,4.68171 l 1.65823,2.85941 2.10353,2.74612 6.04695,5.80477 2.76565,2.67387 2.50979,2.6016 1.3633,1.76956 4.14848,5.1075 7.21101,7.64658 3.70511,3.54303 2.93167,2.26565 2.43363,1.56838 1.67774,0.77344 0.83009,0.0918 c 1.08304,2.61836 2.72408,4.96444 4.81255,6.87511 0.83962,0.76835 1.86105,1.30997 2.96878,1.56837 0.93134,0.21838 1.86435,0.42206 2.80276,0.60939 0.68439,0.13441 1.39263,0.10983 2.06643,-0.0762 l 0.73634,-0.20117 -5.4395,-18.30495 c -0.13058,-0.69939 -0.66833,-1.2542 -1.36331,-1.40236 l -5.01567,-1.06838 c -0.38277,-0.22402 -0.57226,-0.67474 -0.4629,-1.10548 0.26283,-1.01284 0.59569,-2.00607 0.99611,-2.97074 0.54327,-1.30091 0.007,-2.80007 -1.23439,-3.46491 -0.82903,-0.44238 -1.70005,-0.79972 -2.59963,-1.06837 -1.26826,-0.37888 -2.46509,-0.96426 -3.54106,-1.73245 -1.36527,-0.97844 -2.69499,-2.00519 -3.98441,-3.08012 -1.85915,-1.5503 -3.40991,-3.44063 -4.57232,-5.56844 -1.09185,-2.0015 -2.20354,-3.99167 -3.33597,-5.97273 -0.83256,-1.4538 -1.35468,-3.06685 -1.52931,-4.73639 -0.19402,-1.82935 0.27666,-3.66987 1.32618,-5.17976 1.13242,-1.63162 2.67976,-2.92901 4.48247,-3.75982 2.13609,-0.98778 4.25687,-2.00929 6.35945,-3.06059 1.94911,-0.97544 3.94108,-1.8571 5.97662,-2.63676 1.89972,-0.73203 3.70174,-1.69674 5.36333,-2.87504 1.13948,-0.80963 2.30978,-1.57818 3.50395,-2.30666 2.4677,-1.5011 4.50011,-3.61638 5.9024,-6.13877 l 0.73634,-1.32814 2.80081,5.77157 1.14454,2.54496 0.96095,1.99026 1.76955,2.59768 2.30275,3.2442 3.377,4.90631 2.96878,4.57037 3.04104,4.97664 1.52931,2.35941 4.24224,7.65244 1.73244,3.26176 2.17775,4.27937 1.16017,2.70902 0.81056,2.28714 c 0.56446,1.22644 0.9311,2.53235 1.08985,3.87115 0.127,1.06593 0.3039,2.12273 0.53321,3.16996 0.44274,2.01192 -0.11463,4.11105 -1.4922,5.6407 l -3.70708,4.11139 -0.60937,0.8672 c -3.49783,0.94051 -6.10214,3.86451 -6.63484,7.44737 l -0.13281,0.86525 h 19.49239 c 2.53296,-2.72983 3.13257,-6.73199 1.50977,-10.08413 l -0.5332,-1.10548 c -0.0705,-0.16546 -0.0556,-0.35808 0.0449,-0.50977 0.10054,-0.15363 0.27144,-0.24609 0.45313,-0.24609 h 2.26761 c 0.77964,-0.13442 1.46862,-0.58428 1.90431,-1.24222 0.43744,-0.66146 0.58207,-1.47261 0.40039,-2.24221 l -1.05079,-4.45905 -1.49416,-5.64265 -1.80665,-6.71298 -1.82424,-6.13682 -1.14649,-4.64459 -1.08596,-4.13092 -0.64453,-2.74613 -0.69923,-2.67387 -0.46289,-2.59769 -0.57032,-2.56253 -0.4629,-1.97464 -1.17775,-4.81062 c -0.78141,-2.16961 -1.48284,-4.36311 -2.10549,-6.58212 -0.93134,-3.3232 -2.20057,-6.54346 -3.79691,-9.60561 l -0.93946,-1.8047 8.84969,-0.20313 c 3.18563,0.0441 6.37271,-0.0232 9.55479,-0.20312 4.40624,-0.24872 8.82681,0.0929 13.14663,1.01368 6.06253,1.29646 12.23756,2.0117 18.43769,2.1387 7.42074,0.15346 14.83349,-0.50844 22.1096,-1.97073 3.57896,-0.72144 7.1641,-1.4225 10.75011,-2.10159 l 1.45705,-0.27735 c 2.49768,2.05671 5.21879,3.82515 8.11336,5.27156 l 0.47853,0.23828 -1.64064,8.90638 c 0.0388,1.64926 1.2409,3.04147 2.86721,3.3184 1.62631,0.27871 3.22105,-0.63239 3.80668,-2.17581 l 2.83988,-7.48643 4.16605,0.94141 -0.91993,7.41027 c -0.15169,0.86607 -3.2e-4,1.75813 0.42578,2.52542 0.48155,0.87136 1.38039,1.43071 2.37699,1.47658 0.82903,0.037 1.65914,-0.0303 2.46877,-0.20312 0.94722,-0.20108 1.68181,-0.94966 1.86525,-1.90041 l 1.60354,-8.35169 3.83597,0.20508 c 0.29282,1.80977 0.41677,3.64198 0.36914,5.47469 -0.0635,2.23134 -0.21772,4.45473 -0.46289,6.67197 -0.20638,1.87505 -0.69334,3.70913 -1.43946,5.43953 -1.6228,3.77653 -3.45865,7.4545 -5.4942,11.02359 l -1.27151,2.23245 -2.50783,4.44147 c -1.04071,2.37722 -2.45521,4.57377 -4.18559,6.50791 l -1.40041,1.56837 -1.56642,1.56643 -4.0391,3.4102 -3.30082,2.76567 -3.90824,3.33598 c -0.4939,0.33426 -0.96314,0.7042 -1.40236,1.10743 -2.59999,2.38058 -4.64115,5.3079 -5.97467,8.57045 l -0.36914,0.9043 c -1.67395,0.67045 -3.23566,1.58958 -4.63091,2.72856 -1.71275,1.4 -3.08805,3.17137 -4.01762,5.17976 l -0.46095,0.9961 h 19.36348 l 0.459,-0.0723 5.58795,-10.38101 c 0.0794,-0.32032 0.37114,-0.54009 0.69922,-0.53321 0.23107,0.004 0.45409,0.0901 0.62696,0.23828 l 1.40236,1.19729 c 0.35807,0.3893 0.91886,0.50696 1.40041,0.29687 0.56268,-0.24801 1.06539,-0.61348 1.47461,-1.07033 l 0.62697,-0.70117 2.17775,-2.52543 1.64065,-2.30472 6.13873,-10.24819 c 0.71967,-1.08534 1.4475,-2.16786 2.17776,-3.24613 1.06539,-1.57095 2.38619,-2.95502 3.9102,-4.09187 l 3.13479,-2.33987 12.05873,-8.94348 c 0.50624,-0.57186 0.8621,-1.26153 1.03321,-2.00785 l 3.37308,-14.78536 0.70118,-2.70902 1.60354,-3.83404 1.73438,-2.93168 1.30861,-1.40236 c 1.83446,3.53136 4.13585,6.79923 6.83992,9.71498 1.46051,1.5734 2.96193,3.11188 4.50004,4.60944 1.88738,1.838 3.47027,3.96689 4.6856,6.30478 2.53649,4.88532 4.34204,10.11479 5.36334,15.52364 0.54504,2.87323 1.04802,5.75554 1.51368,8.64465 0.43746,2.71608 0.43746,5.48701 0,8.2052 -0.13581,0.8442 -0.49345,1.63974 -1.03321,2.30472 -0.5962,0.73379 -1.13433,1.51648 -1.60353,2.33988 -0.3475,0.60977 -0.55823,1.29086 -0.60938,1.99026 l -0.16602,2.21292 -2.06447,2.26761 -2.30667,2.1016 c -0.74437,1.04387 -1.24903,2.24098 -1.47658,3.50199 l -0.45704,2.56254 h 19.32442 l 1.84377,-3.02347 c 0.5627,-1.04036 0.72536,-2.25397 0.45899,-3.41021 -0.18166,-0.78689 -0.48608,-1.53817 -0.90235,-2.2305 -0.2981,-0.49266 -0.53184,-1.01733 -0.70118,-1.56644 -0.20637,-0.67187 -0.34799,-1.36508 -0.42383,-2.06447 -0.044,-0.417 0.0585,-0.83383 0.29492,-1.18166 0.28927,-0.42387 0.73168,-0.72054 1.23439,-0.82814 l 2.17776,-0.46093 c 0.32985,-0.0344 0.63429,-0.20849 0.83008,-0.47853 0.65795,-0.92325 0.80981,-2.11427 0.40235,-3.17192 -0.16933,-0.44098 -0.29133,-0.898 -0.36719,-1.36526 -0.71966,-4.42689 -1.50062,-8.84588 -2.34377,-13.25213 l -0.69923,-3.66997 -1.21486,-9.25404 c -0.28575,-1.45046 -0.53909,-2.90692 -0.75782,-4.3692 -0.21872,-1.46617 -0.17443,-2.95761 0.12891,-4.40631 0.58209,-2.77816 1.03715,-5.58588 1.36525,-8.40637 0.2928,-2.52062 0.63634,-5.03442 1.03322,-7.53916 0.21167,-1.34941 0.23623,-2.72175 0.0723,-4.0782 -0.22754,-1.88385 -0.87016,-3.69627 -1.88088,-5.3067 -0.48155,-0.76909 -0.88154,-1.58147 -1.19727,-2.43168 l -1.28323,-3.65435 c -0.14639,-0.40041 -0.28334,-0.80134 -0.41211,-1.20705 -0.82727,-2.53296 -1.35802,-5.15187 -1.58205,-7.80479 -0.15169,-1.15007 -0.1965,-2.30778 -0.13476,-3.46489 0.0794,-1.4429 0.0794,-2.8894 0,-4.33405 -0.0724,-1.37762 0.0252,-2.75652 0.29687,-4.10943 0.68617,-3.43787 1.15346,-6.91833 1.40041,-10.41616 0.17109,-2.41304 0.31794,-4.82788 0.44141,-7.2462 l 0.22071,-4.29302 0.70313,-5.27547 0.69923,-6.83799 c 0.097,-0.84491 0.097,-1.6981 0,-2.543 l -0.73634,-6.54696 c 0.71967,2.97747 1.29676,5.98556 1.73244,9.0177 l 1.62307,11.27945 0.10937,1.4551 0.36914,3.24614 0.22072,2.3594 0.0371,3.65045 -0.0938,3.22857 0.33595,5.43561 0.36914,6.74814 0.27344,5.16024 -0.10937,8.68567 -0.16602,3.00394 -0.25781,2.72855 -0.57228,3.37309 c 0.0688,1.72687 0.0582,3.45485 -0.0371,5.18171 -0.0423,0.76554 0.0516,1.53189 0.27736,2.26567 0.38805,1.26119 0.65185,2.56075 0.79296,3.8731 0.14289,1.34763 0.3784,2.68418 0.70119,4.00006 0.34396,1.40054 0.53152,2.83434 0.57032,4.27544 l 0.0742,2.89457 c 0.0441,0.53623 0.33612,1.02286 0.79298,1.30862 0.75671,0.47449 1.61705,0.76129 2.50783,0.83009 0.74084,0.0599 1.48788,-0.0548 2.1758,-0.33009 1.04777,-0.41982 1.73244,-1.43362 1.73244,-2.56253 v -5.67781 c -0.0229,-2.51709 -0.25648,-5.02749 -0.69922,-7.50402 -0.37218,-2.07082 -0.4092,-4.18625 -0.10938,-6.26767 0.0952,-0.68616 0.22099,-1.37131 0.36915,-2.0469 0.14817,-0.67909 0.2275,-1.36969 0.23633,-2.06643 0.0106,-0.568 -0.17867,-1.12173 -0.53321,-1.56448 -0.64383,-0.80786 -1.16065,-1.70881 -1.52931,-2.67191 -0.49037,-1.27884 -0.93844,-2.56956 -1.34767,-3.87309 -0.33515,-1.06894 -0.47851,-2.18411 -0.42384,-3.29888 0.0882,-1.87857 0.13249,-3.76058 0.12891,-5.64266 -0.005,-2.36011 0.18579,-4.71647 0.57032,-7.04307 0.34573,-2.08318 0.52458,-4.18964 0.53516,-6.30281 l 0.0742,-14.45333 0.16602,-18.19557 -0.20509,-8.03723 c -0.10226,-1.40054 -0.16942,-2.80107 -0.20117,-4.20513 -0.0935,-4.34276 -0.90425,-8.64273 -2.3965,-12.72088 -1.43936,-3.92646 -3.60064,-7.54833 -6.37703,-10.67397 -2.58412,-2.90693 -5.48604,-5.51613 -8.65048,-7.77745 -2.02673,-1.44995 -4.21322,-2.66978 -6.50983,-3.63286 -3.37611,-1.41642 -6.84435,-2.59739 -10.38096,-3.54108 -2.35659,-0.62618 -4.77507,-0.98546 -7.21102,-1.06837 -2.28073,-0.0794 -4.56114,-0.14472 -6.84187,-0.20117 -3.84707,-0.097 -7.69228,0.18077 -11.48644,0.82813 -1.55223,0.26634 -3.10659,0.51074 -4.66412,0.73828 -2.24544,0.32809 -4.49561,0.60256 -6.74811,0.8301 -5.35698,0.538 -10.72515,0.96106 -16.09977,1.27151 -10.47053,0.60325 -20.92331,1.47055 -31.34799,2.59768 -3.79945,0.41276 -7.6022,0.76888 -11.41223,1.07228 -1.27883,0.0988 -2.55696,0.19753 -3.83402,0.29103 -1.27354,0.097 -2.55172,0.0654 -3.81645,-0.0898 -1.11479,-0.13758 -2.22861,-0.28462 -3.33987,-0.44337 -3.74477,-0.53092 -7.52104,-0.79649 -11.30286,-0.79298 -10.1248,0.007 -20.23915,-0.71862 -30.25812,-2.17386 -10.92739,-1.5875 -21.9503,-2.4267 -32.99058,-2.50784 -3.07626,-0.0247 -6.15142,0.0849 -9.21884,0.33008 -3.1274,0.25048 -6.24694,0.53931 -9.36729,0.86916 -3.16091,0.33338 -6.32626,0.62005 -9.49424,0.86525 -3.59131,0.27692 -7.19257,0.34423 -10.78917,0.20312 -2.61587,-0.10411 -5.2272,-0.2703 -7.83602,-0.4961 -3.02157,-0.26634 -6.01184,-0.79224 -8.94345,-1.56838 -3.59308,-0.95426 -7.1218,-2.13523 -10.56847,-3.54107 -1.27002,-0.51682 -2.49678,-1.13992 -3.66801,-1.86135 l -2.06447,-1.26955 0.9043,-2.10354 c 0.41451,-0.4745 0.58441,-1.11684 0.46094,-1.73245 -0.17638,-0.86785 -0.78175,-1.58096 -1.60548,-1.89846 -1.13421,-0.43568 -2.27596,-0.84829 -3.42777,-1.23634 -0.86785,-0.28929 -1.71415,-0.63092 -2.54495,-1.01369 -1.14654,-0.53269 -2.3559,-0.92941 -3.59769,-1.18166 -1.22944,-0.24695 -2.33576,-0.9123 -3.1348,-1.87894 l -4.627,-5.60359 c -0.19403,-0.19934 -0.43465,-0.34622 -0.69923,-0.42383 z" />
</svg>
