<?xml version="1.0" encoding="utf-8"?>
<!DOCTYPE svg PUBLIC "-//W3C//DTD SVG 1.1//EN" "http://www.w3.org/Graphics/SVG/1.1/DTD/svg11.dtd">
<svg xmlns="http://www.w3.org/2000/svg" width="608.37335" height="540.03998">
  <g transform="matrix(1.33333 0 0 -1.33333 0 540.04)">
    <path fill="#e4002b" d="M419.433 0c13.166 0 25.331 7.02422 31.914 18.425 6.582 11.4012 6.582 25.4488 0 36.8512L260.056 386.602c-6.583 11.402-18.748 18.425-31.914 18.425-13.165 0-25.33-7.023-31.913-18.425L4.93711 55.2762c-6.58281-11.4024-6.58281-25.45 0-36.8512C11.5195 7.02422 23.6852 0 36.8508 0H419.433"/>
    <path fill="#ffcd00" d="M46.6699 42.5199L228.142 356.838 409.614 42.5199z"/>
    <path d="M53.2164 53.859h73.4456l-12.473 12.4711 2.834 18.9918 19.843 8.5043 9.071-9.0703h12.756l5.386-19.843-6.236-11.0539h92.409L254.221 72l6.519 12.473.283 13.0391 4.82 11.9049 3.401 20.409 4.819 11.339 1.133 8.396 3.119 8.504.85 9.637 7.371 14.173-.284 20.977 4.819 12.472 5.669 22.698L409.614 42.5199H46.6699l6.5465 11.3391"/>
    <path d="M241.748 205.686l-.283-12.756 29.479-7.653 16.159 24.377-13.04 15.308 1.133 14.457-21.826 5.952-9.638-8.787-.284-3.685-11.338-12.473 9.638-14.74M196.394 136.913l28.914 14.915 17.007-17.466-2.267-26.079-17.575-11.3381-11.339 5.1021-14.74-3.4009-6.52 13.0399 7.087 8.504-.567 16.723"/>
  </g>
</svg>
