<?xml version="1.0" encoding="UTF-8" standalone="no"?>
<svg
   width="806.87"
   height="716.5"
   fill-rule="evenodd"
   version="1.1"
   id="svg12"
   sodipodi:docname="888.svg"
   inkscape:version="1.1.1 (3bf5ae0d25, 2021-09-20)"
   xmlns:inkscape="http://www.inkscape.org/namespaces/inkscape"
   xmlns:sodipodi="http://sodipodi.sourceforge.net/DTD/sodipodi-0.dtd"
   xmlns="http://www.w3.org/2000/svg"
   xmlns:svg="http://www.w3.org/2000/svg">
  <defs
     id="defs16" />
  <sodipodi:namedview
     id="namedview14"
     pagecolor="#ffffff"
     bordercolor="#111111"
     borderopacity="1"
     inkscape:pageshadow="0"
     inkscape:pageopacity="0"
     inkscape:pagecheckerboard="1"
     showgrid="false"
     inkscape:zoom="1.0034892"
     inkscape:cx="233.68463"
     inkscape:cy="379.17698"
     inkscape:window-width="1920"
     inkscape:window-height="1057"
     inkscape:window-x="-8"
     inkscape:window-y="-8"
     inkscape:window-maximized="1"
     inkscape:current-layer="svg12" />
  <path
     d="M66.019,715.461 9.727,617.961 347.143,33.539 459.727,33.539 797.143,617.961 740.851,715.461"
     fill="#e42b38"
     stroke="none"
     id="path2" />
  <circle
     cx="66.019"
     cy="650.461"
     r="65"
     fill="#e42b38"
     stroke="none"
     id="circle4" />
  <circle
     cx="403.435"
     cy="66.039"
     r="65"
     fill="#e42b38"
     stroke="none"
     id="circle6" />
  <circle
     cx="740.851"
     cy="650.461"
     r="65"
     fill="#e42b38"
     stroke="none"
     id="circle8" />
  <path
     d="M83.339,640.461 403.435,86.039 723.531,640.461"
     fill="#fed300"
     stroke="none"
     id="path10" />
  <path
     id="path16"
     style="fill:#000000;fill-opacity:1;fill-rule:evenodd;stroke:none;stroke-width:0.176382"
     d="m 300.63716,361.01764 c -0.28581,0.0403 -0.56912,0.12369 -0.83985,0.24805 -1.0812,0.49741 -1.77035,1.58085 -1.75977,2.77148 0.004,0.4498 0.016,0.89768 0.0371,1.34571 0.11813,2.54883 0.6211,5.06575 1.49415,7.46289 l 0.97461,2.69335 1.38475,3.05665 c 0.13935,0.16229 0.20987,0.37446 0.18165,0.58789 -0.0388,0.32632 -0.20574,0.621 -0.46679,0.82031 -0.25927,0.19756 -0.58954,0.28181 -0.91407,0.23242 l -0.47851,-0.0742 -0.97656,-0.36914 -0.97658,-0.57226 -1.64062,-1.06641 -5.88087,-4.79297 -0.90234,-0.73633 -1.04883,-0.90234 -0.84962,-0.81055 -0.64649,-0.78125 -1.22851,-1.22265 c -0.10053,-0.0811 -0.20006,-0.1632 -0.29883,-0.2461 -0.15522,-0.127 -0.36439,-0.16954 -0.55664,-0.11133 -0.19577,0.0599 -0.34394,0.21243 -0.40039,0.40821 -0.18519,0.63676 -0.19764,1.30929 -0.0371,1.95312 0.67551,2.71816 1.54294,5.38559 2.59766,7.97852 l 1.8789,4.625 0.48048,1.45508 0.10938,0.62695 c 0.0794,0.34749 -0.0888,0.70491 -0.40625,0.86719 -0.48151,0.24695 -1.0584,0.23274 -1.52931,-0.0371 l -1.95312,-1.125 -2.33986,-1.41992 -2.28515,-1.45508 -2.44923,-1.64063 -3.88868,-3.02148 -4.9961,-4.29297 -4.22071,-4.08984 c -0.30686,-0.22227 -0.65014,-0.39045 -1.01172,-0.49805 -0.47268,-0.13934 -0.98067,0.0305 -1.27344,0.42383 -0.33513,0.45332 -0.40582,1.04959 -0.18359,1.5664 2.54157,5.91435 6.13167,11.31974 10.59572,15.95703 2.07416,2.15194 4.289,4.15728 6.63478,6.00586 2.75145,2.16781 5.65677,4.12743 8.69923,5.86133 0.97537,0.55563 1.93316,1.1397 2.875,1.75 1.35631,0.88195 2.68065,1.81476 3.9629,2.80078 1.35105,1.03541 2.56211,2.23718 3.6133,3.57422 l 0.9375,1.19727 c -6.60523,0.39688 -13.17169,1.32797 -19.627,2.7832 -5.28065,1.19062 -10.303,3.33247 -14.81642,6.32227 -4.20477,2.78165 -7.01195,7.23902 -7.7051,12.23437 -0.46388,3.35845 1.51226,6.57921 4.71876,7.68164 0.87481,0.30341 1.83932,0.14958 2.58008,-0.4043 l 0.44141,-0.32812 c 0.58908,2.19957 2.02813,4.07499 4,5.21094 2.49746,1.4411 5.36338,2.10827 8.2383,1.91601 2.61033,-0.1711 5.21648,-0.4153 7.81447,-0.73633 2.34931,-0.28575 4.69176,-0.63783 7.02346,-1.04882 1.44096,-0.25576 2.90837,-0.31785 4.36523,-0.18555 1.46039,0.13406 2.81643,0.81011 3.79884,1.89844 0.75841,0.84314 1.41866,1.7706 1.9707,2.76367 0.92246,1.67041 1.95632,3.27753 3.0957,4.80859 3.11479,4.19631 7.11037,7.66174 11.70316,10.15235 2.45513,1.33351 4.9691,2.55324 7.53712,3.65039 2.68971,1.15182 5.48688,2.04027 8.34767,2.65234 5.01787,1.07774 10.0656,2.02297 15.13285,2.83789 3.13769,0.50622 6.21447,1.34195 9.17581,2.49024 2.5398,0.98425 4.90852,2.35776 7.02148,4.07226 2.73206,2.60527 4.24654,6.23698 4.17775,10.01172 l -0.16016,5.46484 c -0.10226,3.34788 0.6748,6.66638 2.24806,9.61914 0.36687,0.68616 0.68579,1.39242 0.96093,2.11915 0.19047,0.51152 0.3461,1.0337 0.45899,1.5664 0.4815,2.22251 0.57888,4.50941 0.29492,6.76367 -0.27161,2.15372 -0.64684,4.29365 -1.12305,6.41211 -0.41272,1.82915 -1.10674,3.58153 -2.06445,5.19727 -1.59972,2.70051 -3.32953,5.32895 -5.17971,7.86719 l -8.05275,11.05664 -3.02149,4.21875 -4.88477,7.03906 -4.40627,6.39453 -4.42188,6.48633 -5.97071,9.39844 c -1.75492,3.14678 -3.85812,6.08788 -6.26564,8.76953 -2.64208,2.93864 -5.15102,5.99607 -7.5215,9.16015 -2.22231,2.96757 -4.95553,5.51796 -8.07032,7.53321 l -3.75978,2.43359 -4.07226,2.32227 -4.56642,2.47265 -1.09181,0.68164 c -0.14815,0.1102 -0.30219,0.21405 -0.46092,0.31055 -0.42329,0.25364 -0.62158,0.76234 -0.48048,1.23437 0.2434,0.81315 0.8719,1.45306 1.6797,1.71289 1.59795,0.51541 3.276,0.74186 4.95507,0.66407 4.24005,-0.19297 8.48208,-0.43477 12.71683,-0.71875 3.64214,-0.24518 7.20589,-1.16941 10.50588,-2.72656 1.14995,-0.54242 2.25469,-1.17842 3.29884,-1.89844 1.31046,-0.9026 2.46825,-2.00947 3.42773,-3.2793 0.642,-0.85091 1.28631,-1.69894 1.9336,-2.54297 4.5293,-5.91186 8.89001,-11.94482 13.08595,-18.0957 2.3599,-3.46092 4.90224,-6.79598 7.61135,-9.98828 4.16774,-4.90926 8.21147,-9.92268 12.12699,-15.03516 4.82561,-6.30116 9.95427,-12.36637 15.36721,-18.16992 1.52211,-1.62737 3.01501,-3.27956 4.48243,-4.95703 1.14644,-1.31057 2.35532,-2.56739 3.62696,-3.75977 1.98069,-1.85739 3.46612,-4.18114 4.31446,-6.76172 0.73549,-2.23133 1.55885,-4.4314 2.47071,-6.5957 2.06182,-4.89658 7.02595,-7.92232 12.32424,-7.50781 5.29477,0.41275 9.73264,4.17442 11.00784,9.33203 l 0.80859,3.28125 0.53516,2.57812 0.58985,3.24219 0.31444,1.84375 c 1.16759,4.7484 2.16248,9.53526 2.98438,14.35352 0.23283,1.36225 0.4932,2.72025 0.7754,4.07422 0.25222,1.20579 0.60436,2.38652 1.04883,3.53711 1.37749,3.54174 3.11801,6.93407 5.19922,10.11523 1.61559,2.4737 3.62676,4.66564 5.95315,6.48828 l 9.35938,7.33203 5.71486,4.95899 2.54102,2.41211 -5.17775,2.17382 -3.11328,1.49415 -2.91407,1.23437 c -2.45865,0.75988 -4.90881,1.54514 -7.35157,2.35742 -1.46392,0.4879 -2.89611,1.06027 -4.29298,1.71485 -1.81138,0.84738 -3.42431,2.06678 -4.7383,3.57421 -0.4568,0.5251 -0.7045,1.20046 -0.6992,1.89844 0.0195,2.28213 0.90076,4.47618 2.46873,6.13672 1.16408,1.23138 2.6529,2.10663 4.29495,2.52149 2.49745,0.63394 5.0769,0.87717 7.64844,0.7207 4.99844,-0.30462 9.8489,-1.8156 14.1348,-4.4043 l 10.92971,-6.5957 1.16014,-0.79297 c 4.63514,3.77916 9.5464,7.2093 14.68949,10.26367 3.25587,1.9327 6.69387,3.54423 10.26369,4.8086 2.33696,0.82673 4.7712,1.34373 7.24221,1.53124 l 1.45703,0.10935 c 0.20282,-1.57797 0.14073,-3.17846 -0.18555,-4.73633 -0.3369,-1.62067 -0.86248,-3.19725 -1.56445,-4.69726 -0.55029,-1.17335 -1.22315,-2.2863 -2.00978,-3.31641 -1.31752,-1.72721 -2.72699,-3.38257 -4.22266,-4.95703 l -1.71093,-1.80664 -2.06447,-2.00781 -2.5254,-2.08204 -2.32226,-1.76953 -1.86134,-1.36523 -1.9707,-1.17774 -1.82617,-0.95898 c 2.83259,-2.91799 5.83182,-5.67368 8.97658,-8.25391 4.65805,-3.82271 9.33385,-7.62429 14.02541,-11.40625 4.44288,-3.583 8.35353,-7.78566 11.6094,-12.47656 1.23639,-1.78242 1.94439,-3.87782 2.04493,-6.04492 l 0.0742,-1.60156 0.3496,-3.72266 c 1.01239,-8.84224 3.58824,-17.43396 7.61135,-25.375 l 0.71875,-1.41602 c 4.09719,7.72586 12.01439,12.66559 20.752,12.95313 6.26661,0.20637 12.41937,-1.70145 17.47074,-5.41797 l 4.81055,-3.53906 3.9258,-2.72461 4.27539,-2.65625 c 0.49916,-0.24517 1.04618,-0.3849 1.60352,-0.4043 2.22056,-0.0811 4.39779,0.61621 6.15626,1.97266 0.61907,0.47626 1.14645,1.05673 1.56446,1.71289 0.5009,0.78847 0.94015,1.61325 1.31054,2.46875 0.54677,1.26471 0.91134,2.5994 1.08595,3.96289 0.12698,0.97189 0.26163,1.94373 0.40625,2.91211 0.21693,1.43933 0.40452,2.88192 0.57031,4.33008 0.25222,2.19782 0.69494,4.36614 1.32813,6.48633 0.64023,2.14842 1.24402,4.31249 1.80664,6.48437 1.36868,5.29365 3.50357,10.36068 6.33791,15.03711 2.22231,3.66697 4.77014,7.12847 7.61329,10.33789 1.12174,1.26718 2.40345,2.38138 3.81446,3.31641 l 5.12111,3.39062 c 3.70738,2.45146 8.0552,3.7524 12.49806,3.74219 1.6932,-0.005 3.16504,-1.16089 3.57422,-2.80274 0.95773,-3.84617 0.43202,-7.91203 -1.47461,-11.38671 -2.77965,-5.06768 -6.50783,-9.55421 -10.98244,-13.21289 -1.46744,-1.19891 -2.96171,-2.36706 -4.47852,-3.50196 -1.08294,-0.80681 -1.97539,-1.83648 -2.61915,-3.01953 -2.65972,-4.88721 -4.69563,-10.08646 -6.06251,-15.48047 -1.65088,-6.50876 -2.82096,-13.1303 -3.50001,-19.80664 l -0.60937,-5.9707 -0.29492,-3.53906 -0.11133,-1.71289 c 0.0159,-2.68817 -0.4708,-5.35893 -1.43555,-7.86719 -1.28931,-3.3514 -4.0184,-5.94577 -7.42775,-7.06055 -1.14465,-0.37219 -2.3644,-0.43565 -3.53906,-0.18164 -0.67728,0.14641 -1.35361,0.29147 -2.02736,0.44141 l -2.08203,0.45898 -1.67579,0.44531 -1.74999,0.43946 -2.58009,0.51757 -2.76758,0.75391 -2.94923,0.75586 -2.74415,0.70117 -1.60351,0.58789 c -0.77781,0.38806 -1.59209,0.69088 -2.43164,0.9043 -0.35628,0.09 -0.72829,0.10242 -1.08986,0.0371 -2.82022,-0.51506 -4.79954,-3.07431 -4.58789,-5.93359 0.37744,-5.09764 0.26568,-10.21843 -0.33399,-15.29493 l -0.2207,-1.8789 c 0.64201,-0.11814 1.22815,-0.43686 1.67969,-0.9043 3.00718,-3.11504 4.58768,-7.33881 4.3672,-11.66211 -0.12169,-2.40596 -0.90075,-4.73335 -2.25001,-6.72656 -3.81674,-5.64623 -8.98573,-10.24447 -15.03714,-13.37891 l -4.66408,-2.41406 -2.43163,-1.01172 -2.48635,-0.95898 -2.21288,-0.90235 -2.34181,-0.9414 -2.58007,-0.99414 c -1.20819,-0.35454 -2.42245,-0.68003 -3.6465,-0.97461 -3.41814,-0.82551 -6.906,-1.33722 -10.41408,-1.53125 -2.82903,-0.15522 -5.66354,-0.22777 -8.49612,-0.22071 -4.43054,0.0119 -8.85995,-0.0356 -13.28517,-0.14843 -4.64395,-0.11469 -9.28798,0.0199 -13.91604,0.40625 -0.89423,0.0758 -1.79541,0.10067 -2.69141,0.0742 -3.42343,-0.097 -6.82975,-0.47588 -10.19143,-1.125 -2.50276,-0.48508 -4.96012,-1.16651 -7.35354,-2.04493 -1.76374,-0.64558 -3.54473,-1.24207 -5.34376,-1.78711 -1.16054,-0.35101 -2.28485,-0.81464 -3.35546,-1.38086 -1.24696,-0.66146 -2.52529,-1.25991 -3.834,-1.78906 -1.9119,-0.77435 -3.77072,-1.67365 -5.56446,-2.6914 -1.9701,-1.11479 -3.96201,-2.19619 -5.97267,-3.24219 -2.05653,-1.07067 -4.09596,-2.17517 -6.1172,-3.31641 -2.1941,-1.23826 -4.52565,-2.21696 -6.94727,-2.91015 -4.65805,-1.3388 -9.47378,-2.04689 -14.3223,-2.10157 -6.22779,-0.0741 -12.44358,0.53835 -18.53909,1.82422 -5.68455,1.19769 -11.3145,2.62962 -16.88089,4.29297 l -4.62501,1.38086 -1.75195,0.51563 0.70117,-1.01172 1.56641,-1.93555 1.3086,-1.60352 2.06445,-2.11914 1.9336,-1.84179 2.69141,-2.24805 4.25782,-3.70313 3.6504,-3.27929 2.94922,-3.0586 3.62891,-4.62695 c 0.9683,-1.68451 1.81265,-3.44218 2.52345,-5.25195 0.86775,-2.20487 1.33341,-4.54301 1.38281,-6.91016 0.0512,-2.45887 -0.19467,-4.91556 -0.73437,-7.31445 -0.0406,-0.17111 -0.19453,-0.29492 -0.36915,-0.29492 h -0.24218 c -2.56096,4.95478 -5.44669,9.72857 -8.6426,14.29882 -1.57503,2.24896 -3.54183,4.19776 -5.8047,5.75 l -1.63867,1.12305 c 1.1041,-3.72181 1.6916,-7.57683 1.74805,-11.46094 l 0.0371,-2.54492 -0.14649,-3.35351 -0.29687,-2.00586 c -0.224,-0.58032 -0.78717,-0.95533 -1.40626,-0.93946 -0.62081,0.0176 -1.16322,0.42277 -1.35547,1.01368 l -0.61133,1.85937 -1.0293,2.61719 -1.23632,3.3164 -0.97657,2.21094 -1.5293,3.13281 c -0.59262,1.36173 -1.49014,2.57246 -2.61719,3.53907 -0.88538,0.75847 -2.1491,0.89155 -3.17384,0.33593 -1.02473,-0.55564 -1.60286,-1.68664 -1.45117,-2.84375 l 1.01368,-7.75781 c 0.19753,-0.77964 0.33215,-1.57419 0.40624,-2.375 0.03,-0.35278 -0.18442,-0.68008 -0.51952,-0.79297 -0.57146,-0.19403 -1.20309,-0.0845 -1.67579,0.29297 l -3.77539,3.02344 -2.83986,2.74609 -2.56251,2.58008 -5.75002,6.44922 c -0.54676,0.53799 -1.35127,0.71728 -2.07617,0.4668 -0.72845,-0.24871 -1.24926,-0.88644 -1.35156,-1.64844 l -0.46094,-3.44336 -0.47851,-3.46484 -0.33009,-3.57618 -0.20507,-3.81445 -0.18165,-1.41797 c -0.0953,-0.30692 -0.38036,-0.51738 -0.70313,-0.51562 -0.56088,10e-4 -1.08984,0.26018 -1.43554,0.70117 -2.81318,3.5701 -5.18377,7.46757 -7.05862,11.60742 -0.59262,1.30352 -1.39473,2.50014 -2.3789,3.53906 -0.50442,0.53446 -1.25266,0.76032 -1.96875,0.60157 -0.71783,-0.15699 -1.3004,-0.67845 -1.53321,-1.37696 -0.52561,-1.57339 -1.03544,-3.15236 -1.5293,-4.73632 -0.38272,-1.23474 -0.45338,-2.54425 -0.20117,-3.8125 0.53618,-2.70052 0.64036,-5.46713 0.31054,-8.20118 l -0.38476,-3.22461 c -0.0476,-0.71791 -0.53089,-1.3313 -1.21875,-1.54297 -0.6861,-0.21341 -1.43445,0.0197 -1.87892,0.58594 -1.08293,1.37937 -2.02119,2.86803 -2.80078,4.44141 -1.53974,3.10447 -2.43352,6.48847 -2.63281,9.94922 l -0.11133,1.91601 c -3.06716,-3.30555 -5.63459,-7.04207 -7.61525,-11.09375 l -0.40235,-0.82812 -2.06641,11.64453 -0.8086,-1.82227 -0.7207,-1.71289 -1.10547,-2.54492 -2.08204,-4.10742 -2.83789,-4.27539 c -0.50619,-0.50095 -1.02845,-0.98766 -1.56641,-1.45508 -0.67065,-0.58738 -1.55664,-0.8398 -2.41406,-0.71875 z" />
  <path
     id="path18"
     style="fill:#fed300;fill-opacity:1;fill-rule:evenodd;stroke:none;stroke-width:0.176382"
     d="m 497.39173,511.74811 c -2.76202,1.55225 -5.72734,2.71154 -8.80859,3.44531 -9.2967,2.21192 -18.98896,2.14828 -28.25391,-0.18359 -1.99125,-0.50272 -4.01851,-0.8408 -6.06445,-1.01367 -2.47629,-0.21169 -4.96353,-0.24155 -7.44336,-0.0899 -0.79368,7.13847 -1.0098,14.32624 -0.64648,21.5 0.19049,3.73982 0.84568,7.44341 1.95508,11.01953 0.94006,2.96952 2.29692,5.78951 4.02539,8.37891 l 4.19336,5.38672 c 3.96842,5.08286 8.405,9.78491 13.25,14.04101 l 1.21679,1.06836 c 8.51005,-6.34243 15.44608,-14.55652 20.27344,-24.00976 2.56978,-5.03539 4.37696,-10.42411 5.35938,-15.99414 1.21526,-6.86331 1.59435,-13.84948 1.12695,-20.80274 z" />
</svg>
