<svg xmlns="http://www.w3.org/2000/svg" width="570.80585" height="506.68124" version="1">
  <path d="M285.40293.2c-16.4564 0-31.67743 8.7797-39.90625 23.0313L6.3717 437.38748c-8.2289 14.2519-8.2289 31.80945 0 46.06255 8.2275 14.2518 23.4497 23.0312 39.9062 23.0312h478.24998c16.4566 0 31.6788-8.7794 39.9063-23.0312 8.2289-14.2531 8.2289-31.81066 0-46.06255L325.30918 23.2313C317.08038 8.9797 301.85933.2 285.40293.2z" fill="#ce252c"/>
  <path d="M512.24488 453.33127L285.40272 60.43014 58.5606 453.33127h453.68428z" fill="#ffd100"/>
  <path d="M341.8162 397.46606h51.0978v8.08632c0 6.69756 5.4314 12.12886 12.129 12.12886 6.6987 0 12.1288-5.4313 12.1288-12.12886v-15.30764l4.5063-16.81764c2.2512-10.78135-1.6288-21.9252-10.0876-28.97902l-14.4039-27.089c-1.6762-3.1525-4.6151-5.44-8.0813-6.2926-11.1689-2.7475-22.6352-4.1062-34.1366-4.0475l-10.52-19.7877c-1.6763-3.15-4.6163-5.44-8.0814-6.2925-11.17-2.7475-22.634-4.1063-34.1378-4.0476l-10.52-19.7876c-1.6751-3.1526-4.6151-5.4401-8.0801-6.2926-21.949-5.4-44.8792-5.4-66.8269 0-3.4675.8525-6.4063 3.14-8.0826 6.2926l-14.4026 27.089c-8.4588 7.0538-12.3388 18.1977-10.0876 28.979l4.5063 16.8176v15.3076c0 4.34886 2.3276 8.36514 6.1013 10.52516 3.775 2.16127 8.4176 2.13502 12.1676-.065 3.75-2.20252 6.0351-6.2438 5.9876-10.59386v-7.9513h23.3477c0 2.045.21 4.085.6275 6.0888l4.5063 16.8164v15.30638c0 4.35004 2.3275 8.36508 6.1026 10.52635 3.7737 2.1613 8.4162 2.1351 12.1663-.0663 3.75-2.2012 6.0338-6.2438 5.9875-10.5913v-7.9538h23.3477c0 2.0463.2101 4.0863.6288 6.0888l4.5051 16.81768v15.30764c0 4.3488 2.33 8.3638 6.1025 10.52634 3.7751 2.16003 8.4176 2.13503 12.1676-.0675 3.7501-2.2025 6.0338-6.24254 5.9876-10.5926v-7.9526h23.3465z"/>
  <path d="M317.1459 313.69288c1.4851-1.2613 3.2413-2.1614 5.1325-2.6264 6.2114-1.5275 12.5201-2.6275 18.8815-3.2925l-7.6939-14.4701c-20.0152-5.1563-41.0103-5.1563-61.0255 0l-10.8401 20.389h55.5455zm8.0339 9.7376l-10.8414 20.3901h82.7082l-10.8426-20.3901c-20.0151-5.1564-41.0091-5.1564-61.0242 0zm-60.7719-39.8642c1.4838-1.2625 3.24-2.1625 5.1326-2.6275 6.2113-1.5275 12.5201-2.6275 18.8814-3.2937l-7.695-14.4702c-20.014-5.1563-41.0092-5.1563-61.0244 0l-10.8426 20.3914h55.548z" fill="#ffd100"/>
</svg>
