<?xml version="1.0" encoding="UTF-8" standalone="no"?>
<svg
   width="806.87"
   height="716.5"
   fill-rule="evenodd"
   version="1.1"
   id="svg12"
   sodipodi:docname="888.svg"
   inkscape:version="1.1.1 (3bf5ae0d25, 2021-09-20)"
   xmlns:inkscape="http://www.inkscape.org/namespaces/inkscape"
   xmlns:sodipodi="http://sodipodi.sourceforge.net/DTD/sodipodi-0.dtd"
   xmlns="http://www.w3.org/2000/svg"
   xmlns:svg="http://www.w3.org/2000/svg">
  <defs
     id="defs16" />
  <sodipodi:namedview
     id="namedview14"
     pagecolor="#ffffff"
     bordercolor="#111111"
     borderopacity="1"
     inkscape:pageshadow="0"
     inkscape:pageopacity="0"
     inkscape:pagecheckerboard="1"
     showgrid="false"
     inkscape:zoom="1.0034892"
     inkscape:cx="259.59423"
     inkscape:cy="232.68811"
     inkscape:window-width="1920"
     inkscape:window-height="1057"
     inkscape:window-x="-8"
     inkscape:window-y="-8"
     inkscape:window-maximized="1"
     inkscape:current-layer="svg12" />
  <path
     d="M66.019,715.461 9.727,617.961 347.143,33.539 459.727,33.539 797.143,617.961 740.851,715.461"
     fill="#e42b38"
     stroke="none"
     id="path2" />
  <circle
     cx="66.019"
     cy="650.461"
     r="65"
     fill="#e42b38"
     stroke="none"
     id="circle4" />
  <circle
     cx="403.435"
     cy="66.039"
     r="65"
     fill="#e42b38"
     stroke="none"
     id="circle6" />
  <circle
     cx="740.851"
     cy="650.461"
     r="65"
     fill="#e42b38"
     stroke="none"
     id="circle8" />
  <path
     d="M83.339,640.461 403.435,86.039 723.531,640.461"
     fill="#fed300"
     stroke="none"
     id="path10" />
  <path
     id="path16"
     style="fill:#000000;fill-opacity:1;fill-rule:evenodd;stroke:none;stroke-width:0.176376"
     d="m 330.30775,277.36493 c -1.05646,-0.0476 -2.08649,0.33793 -2.85547,1.0664 -1.52736,1.45341 -2.54858,3.35953 -2.91016,5.43557 -0.10052,0.57325 -0.23517,1.1397 -0.40624,1.69532 l -0.20313,0.66406 -0.36914,0.25977 c -1.84659,-0.17108 -3.60431,-0.87033 -5.06641,-2.00978 -0.67021,-0.52208 -1.42269,-0.9274 -2.23047,-1.19726 -0.59084,-0.19755 -1.20337,-0.32324 -1.82421,-0.36914 -0.82189,-0.0617 -1.64686,0.0658 -2.41407,0.36914 -0.48149,0.19049 -0.90808,0.50019 -1.23437,0.90234 -0.54145,0.65967 -0.88498,1.45807 -0.9961,2.3047 -0.11993,0.91015 0.19528,1.82319 0.84961,2.46876 1.56617,1.54687 3.3171,2.8956 5.21485,4.01564 1.26457,0.74609 2.51794,1.51625 3.75781,2.30469 0.73723,0.46741 1.33558,1.12217 1.73242,1.89649 0.55204,1.0689 0.81046,2.26368 0.75586,3.46485 -0.0476,1.03538 -0.13082,2.06741 -0.25781,3.09571 -0.2081,1.72152 -1.40425,3.16151 -3.0586,3.68361 -0.61376,0.19402 -1.27773,0.15519 -1.86328,-0.10938 -4.14646,-1.87496 -8.57218,-3.06969 -13.09961,-3.53712 -2.06881,-0.21342 -3.9707,1.14488 -4.44335,3.16798 -0.22223,0.95601 0.0468,1.95754 0.71874,2.67189 0.66845,0.71258 1.40343,1.36054 2.19532,1.93555 1.36334,0.99303 2.85387,1.79137 4.43945,2.37697 l 3.24219,1.19726 4.16601,1.26953 c 0.76545,0.39511 1.55861,0.72819 2.37696,0.99806 0.87833,0.28926 1.71054,0.70348 2.4707,1.23438 0.53262,0.37217 1.09899,0.69246 1.69336,0.95703 0.32628,0.14463 0.61138,0.36779 0.83008,0.64649 0.53793,0.67907 1.00185,1.41356 1.38281,2.19141 0.4515,0.91897 0.76294,1.89949 0.91992,2.91016 0.16048,1.00891 0.27219,2.02329 0.33399,3.04103 0.067,1.12179 -0.0766,2.2493 -0.42579,3.31642 l -0.5332,1.64063 c -2.13232,1.16942 -4.48683,1.87744 -6.91015,2.08203 l -7.90625,0.66408 -6.46875,0.2207 -6.35938,0.4414 -2.08203,0.44336 -1.41797,0.53321 c -0.82894,-0.5115 -1.63451,-1.05839 -2.41406,-1.63867 -1.28926,-0.95955 -2.53233,-1.98091 -3.72461,-3.05861 -1.27338,-1.15532 -2.41876,-2.44579 -3.4082,-3.85158 -0.77425,-1.09885 -1.69126,-2.09005 -2.72657,-2.94728 -0.81483,-0.67378 -1.80978,-1.09681 -2.85742,-1.21679 -1.04233,-0.11818 -2.07587,0.29765 -2.74609,1.10546 -0.83599,1.00718 -1.0784,2.37646 -0.64453,3.6094 1.21519,3.45006 2.98912,6.67538 5.25195,9.54691 l 1.99023,2.52343 -10.43164,10.30082 c -1.97533,0.34217 -3.94773,0.70514 -5.91601,1.08789 -1.64377,0.31925 -3.20687,0.95819 -4.60547,1.87892 -1.44624,0.95246 -2.34722,2.54332 -2.41602,4.2754 -0.0547,1.36169 0.67625,2.63728 1.88086,3.27931 1.67729,0.89602 3.58022,1.27834 5.47266,1.10547 l 3.61133,-0.33008 c 2.71962,-0.0741 5.4322,-0.29719 8.1289,-0.66406 2.8325,-0.38627 5.70063,-0.46059 8.55078,-0.22071 2.55207,0.21343 5.11061,0.39557 7.66797,0.55078 2.76372,0.16933 5.47224,0.83853 7.9961,1.97267 2.53796,1.14296 4.93188,2.57684 7.13476,4.2754 1.49738,1.15531 2.92438,2.39785 4.27539,3.72071 1.71078,1.67919 2.98524,3.74478 3.72071,6.02541 0.83423,2.58756 1.2077,5.29758 1.10547,8.01566 -0.13229,3.55942 -0.68275,7.09086 -1.63868,10.52151 -1.34923,4.83469 -3.22604,9.50955 -5.60351,13.92974 l -3.0586,5.69337 -2.08203,2.85548 -21.71094,0.11133 c -2.2628,-5.45025 -4.34853,-10.97668 -6.24804,-16.56451 -0.34392,-1.0142 -0.99358,-1.89551 -1.86133,-2.52344 -0.69667,-0.50794 -1.59415,-0.65343 -2.41602,-0.39063 -0.82188,0.26106 -1.47114,0.90014 -1.74804,1.71681 -0.70195,2.07956 -0.85588,4.30964 -0.44141,6.46682 0.37391,1.94903 1.03947,3.83075 1.9707,5.58399 0.48854,0.91368 0.56834,1.98945 0.22266,2.96485 -0.44975,1.26821 -1.62461,2.13517 -2.9668,2.19337 -3.32634,0.1411 -6.6351,-0.53494 -9.63867,-1.97071 -3.02475,-1.44458 -6.06134,-2.8712 -9.10547,-4.27345 -2.10233,-0.97012 -4.05509,-2.22883 -5.80468,-3.74219 -1.59615,-1.37758 -3.24258,-2.69281 -4.9375,-3.94337 -1.18168,-0.86957 -2.52201,-1.50329 -3.94532,-1.86134 -1.00883,-0.25399 -2.07411,0.0912 -2.74609,0.88672 -0.83599,0.98952 -0.92441,2.40997 -0.2207,3.50001 l 1.41797,2.19337 3.52148,4.16212 2.83789,3.18946 2.41406,1.85938 c -3.1623,0.58911 -6.41265,0.47776 -9.52734,-0.33007 l -5.05078,-1.30665 c -1.30336,-0.47446 -2.75619,-0.23052 -3.83203,0.64258 -1.08644,0.88015 -1.36779,2.42265 -0.66407,3.63087 0.64551,1.10593 1.55027,2.04377 2.63672,2.72462 l 3.83203,2.41603 c 1.55911,4.9352 3.8111,9.62596 6.68946,13.92973 l 2.1914,3.28125 2.63672,2.96486 2.7461,2.74806 c -1.76724,-0.004 -3.50578,0.44765 -5.05079,1.30664 -1.23811,0.68966 -2.02547,1.97232 -2.08007,3.38868 -0.0617,1.56454 0.9996,2.94784 2.52343,3.29884 1.80428,0.41275 3.63153,0.71033 5.47461,0.88673 2.64731,0.25045 5.3187,0.0642 7.9043,-0.55666 3.26812,-0.77961 6.55617,-1.47508 9.86133,-2.08007 l 16.76953,-3.07619 11.62891,-0.86914 c -1.01766,2.52933 -2.7774,4.69059 -5.05079,6.19338 -2.11293,1.39872 -4.21257,2.81834 -6.30078,4.25587 -3.00713,2.07075 -5.78153,4.46045 -8.27539,7.13088 -0.68962,0.73729 -1.45621,1.39924 -2.28515,1.97071 -1.06705,0.73728 -2.14713,1.45079 -3.24414,2.13868 -1.71256,1.07595 -3.26002,2.40007 -4.58985,3.9258 -0.94887,1.09004 -1.71357,2.32708 -2.26562,3.66407 -0.53087,1.29112 -0.39299,2.75989 0.36718,3.92579 0.35096,0.53973 0.71071,1.07455 1.07227,1.60548 0.3157,0.46389 0.68204,0.89731 1.08594,1.28711 0.34391,0.33513 0.68752,0.66448 1.0332,0.99609 0.49913,0.48154 1.07095,0.88685 1.69531,1.19728 0.47796,0.2399 0.93645,0.52505 1.36328,0.84961 0.49558,0.37569 0.9826,0.76853 1.45704,1.17773 0.30336,0.26458 0.56513,0.57441 0.77148,0.92189 0.40389,0.66848 0.99159,1.20821 1.69531,1.54687 0.73725,0.35453 1.52872,0.57937 2.3418,0.66407 1.70196,0.17814 3.4229,0.10926 5.10547,-0.20118 1.44094,-0.2681 2.87488,-0.55348 4.31055,-0.85156 2.07411,-0.43214 4.10497,-1.0533 6.06445,-1.85938 0.4515,-0.18696 0.93119,-0.30371 1.41797,-0.34961 0.86068,-0.0811 1.72293,-0.0811 2.58008,0 0.92595,0.0864 1.8555,0.15372 2.7832,0.20312 2.17113,0.1111 4.3486,0.13772 6.52148,0.0742 0.77249,-0.0229 1.54296,-0.0726 2.30664,-0.14844 0.80248,-0.0793 1.60804,-0.14129 2.41407,-0.18359 0.99825,-0.0547 1.99336,-0.1344 2.98632,-0.24023 0.64729,-0.0705 1.29879,-0.12542 1.95313,-0.16602 0.56437,-0.0353 1.12185,-0.1486 1.65625,-0.33203 1.36862,-0.47095 2.77277,-0.82306 4.20312,-1.04883 1.36335,-0.21695 2.7582,0.11928 3.8711,0.93945 0.71254,0.52387 1.36756,1.12216 1.95312,1.78712 0.60493,0.6826 1.11293,1.44545 1.50977,2.26563 0.54851,1.12535 1.07278,2.26172 1.56836,3.40821 1.0406,2.40235 2.33105,4.6859 3.84961,6.81839 1.48503,2.08131 3.37962,3.83534 5.56836,5.15821 2.61381,1.58217 5.64763,2.32919 8.69531,2.13868 4.20642,-0.26103 8.42759,-0.21314 12.62695,0.14844 1.13054,0.097 2.26343,0.2192 3.38867,0.36914 1.00532,0.1305 2.01284,0.22922 3.02344,0.29102 0.74781,0.0494 1.49324,0.14153 2.23047,0.27734 1.4039,0.26106 2.82726,0.40986 4.25586,0.44336 3.72846,0.09 7.45904,0.0953 11.1875,0.0176 2.00357,-0.0405 4.00045,0.2392 5.91406,0.83009 2.22051,0.68613 3.89818,2.51919 4.38672,4.79102 0.52382,2.44997 0.22121,5.00385 -0.86523,7.25979 -0.67551,1.40577 -1.32896,2.82363 -1.95508,4.25588 -0.50442,1.1553 -1.09385,2.26903 -1.76758,3.3379 -1.06527,1.68799 -2.06372,3.41912 -2.98438,5.19338 -1.05646,2.02699 -2.2002,4.00785 -3.42773,5.9336 -0.58025,0.90591 -1.16831,1.80068 -1.77148,2.68947 -0.45858,0.67873 -0.88347,1.38018 -1.27149,2.10157 -1.34746,2.50642 -2.8416,4.931 -4.47656,7.25978 -1.71785,2.44592 -3.42113,4.90317 -5.10547,7.37113 -0.85717,1.2525 -1.70522,2.51108 -2.54297,3.7754 -0.7778,1.17471 -1.60819,2.31111 -2.48828,3.41016 -1.36334,1.70051 -2.65937,3.45358 -3.88867,5.25198 -0.84129,1.23116 -1.7462,2.41755 -2.71094,3.55665 -0.94887,1.12091 -1.85686,2.27653 -2.72461,3.4629 -1.90127,2.5976 -3.89848,5.12424 -5.99023,7.57228 -0.16049,0.18802 -0.36055,0.33423 -0.58985,0.42383 -3.40922,1.37121 -6.43829,3.54808 -8.82812,6.33987 -1.07056,1.25393 -2.1047,2.53752 -3.09766,3.85158 -0.74782,0.99215 -1.48933,1.98674 -2.22656,2.98438 -0.46561,0.62845 -0.98986,1.20678 -1.56836,1.73047 -0.8113,0.73727 -1.59745,1.49816 -2.35937,2.28712 -0.73018,0.75438 -1.52509,1.44571 -2.37696,2.06446 -0.97002,0.70412 -1.93141,1.42967 -2.875,2.17383 -0.68431,0.53744 -1.41733,1.00563 -2.19336,1.39845 -0.9083,0.4616 -1.78995,0.97912 -2.63476,1.54883 -0.33683,0.22595 -0.46247,0.6626 -0.29492,1.03125 0.25749,0.57872 0.80787,0.97131 1.4375,1.03321 1.64907,0.15708 3.3115,0.14544 4.95703,-0.0371 1.56441,-0.17215 3.12953,-0.30785 4.69922,-0.40625 1.30514,-0.0794 2.60816,-0.19091 3.90625,-0.33204 0.99296,-0.10693 1.98807,-0.15101 2.98632,-0.12891 0.58203,0.0125 1.16262,-0.0733 1.71289,-0.25585 3.59971,-1.19536 6.8518,-3.25138 9.47266,-5.99221 0.51148,-0.5318 1.03396,-1.05258 1.56836,-1.5625 0.3792,-0.36176 0.72262,-0.75814 1.03125,-1.17969 0.30866,-0.42245 0.71055,-0.76328 1.17969,-0.9961 0.31041,-0.15293 0.61327,-0.32619 0.90429,-0.51563 0.4568,-0.29755 0.98432,-0.46845 1.5293,-0.49805 0.50442,-0.0256 0.99652,-0.1515 1.45508,-0.36914 1.58558,-0.75581 2.98596,-1.85711 4.0918,-3.22266 0.67374,-0.83377 1.21356,-1.76661 1.60156,-2.76564 0.30689,-0.78543 0.62742,-1.56465 0.95898,-2.33985 0.38627,-0.89903 0.76167,-1.80097 1.125,-2.70899 0.76368,-1.90653 1.78703,-3.69815 3.04102,-5.32423 2.00004,-2.59407 4.00595,-5.17965 6.02539,-7.75785 3.21875,-4.11326 6.6465,-8.0613 10.26562,-11.83011 5.98952,-6.23409 12.11173,-12.3357 18.3711,-18.29693 1.18168,-1.12445 2.30971,-2.30384 3.375,-3.53713 0.43916,-0.50639 0.87452,-1.01602 1.30664,-1.5293 1.06173,-1.25408 1.99503,-2.61117 2.78516,-4.05469 0.70194,-1.28143 1.45962,-2.53815 2.26562,-3.75978 1.58028,-2.39159 3.31193,-4.67873 5.17969,-6.85354 2.41098,-2.8045 5.18002,-5.27573 8.23828,-7.35354 1.9824,-1.34403 4.17411,-2.35274 6.48633,-2.98243 1.52208,-0.41795 3.10821,-0.54199 4.67968,-0.36914 2.80427,0.30691 5.20231,2.15586 6.2129,4.79102 2.70728,7.06594 4.6386,14.40604 5.76562,21.8907 0.56968,3.75838 1.14334,7.51917 1.73242,11.27543 0.23458,1.48479 0.51783,2.95969 0.84766,4.42384 0.61905,2.7283 1.92035,5.25703 3.7793,7.35159 l 1.45703,1.63867 1.95312,1.4922 2.875,1.73242 3.16797,2.48829 6.89258,5.50783 4.20117,3.42775 2.71094,2.56251 2.58008,2.76368 1.17773,1.54688 c -2.22931,0.65791 -4.32907,1.69092 -6.21094,3.0586 -0.64727,0.47181 -1.29878,0.93934 -1.95312,1.40234 -1.34746,0.95072 -2.6009,2.03121 -3.74024,3.22463 -0.42682,0.44643 -0.88879,0.85885 -1.38086,1.23438 -0.99473,0.75792 -1.9916,1.51105 -2.98632,2.26563 -1.54324,1.16782 -3.20394,2.16774 -4.95704,2.98634 -1.50621,0.70059 -3.00419,1.41318 -4.49804,2.13672 -1.13936,0.55119 -2.33592,0.96573 -3.57227,1.23243 -0.5203,0.11359 -1.0091,0.33501 -1.43945,0.64649 -0.29453,0.21572 -0.41488,0.59497 -0.29492,0.93945 0.18695,0.53744 0.56747,0.98509 1.06836,1.25392 3.31223,1.7707 7.02633,2.65169 10.78125,2.55859 4.64911,-0.11147 9.23455,-1.11111 13.50976,-2.94532 2.5997,-1.11615 5.01626,-2.62127 7.16797,-4.46095 l 1.39844,-1.19727 c 2.91892,0.15927 5.68869,-1.30069 7.20898,-3.79494 l 0.51563,-0.84765 c 1.90128,3.18318 4.63283,5.78986 7.90625,7.53518 0.55204,0.29615 1.12905,0.53096 1.73047,0.70117 0.38096,0.10883 0.75462,0.23155 1.125,0.36719 0.5203,0.19368 1.04101,0.37901 1.56836,0.55469 0.83247,0.27905 1.65026,0.60652 2.44921,0.97656 1.44095,0.67044 2.85397,1.39335 4.24024,2.17189 0.78133,0.43955 1.55487,0.89483 2.32031,1.36524 0.73018,0.4459 1.44376,0.9204 2.13867,1.41797 0.62082,0.44784 1.28807,0.83108 1.98828,1.14453 1.29279,0.57535 2.56052,1.20736 3.79688,1.89649 0.42683,0.23638 0.92262,0.31371 1.40234,0.22071 0.35628,-0.0704 0.66757,-0.29492 0.84571,-0.61524 0.17633,-0.31696 0.20487,-0.70043 0.0762,-1.04298 -1.65788,-4.3736 -3.77181,-8.56135 -6.30274,-12.49418 -1.28925,-1.99454 -2.69881,-3.90966 -4.22265,-5.72852 -1.15521,-1.38145 -2.43347,-2.65829 -3.81446,-3.81448 -2.00178,-1.67565 -4.2379,-3.05486 -6.63476,-4.0918 l -0.68164,-0.29297 c 1.76193,-1.90037 3.57327,-3.75005 5.4375,-5.54494 3.37043,-3.24862 6.75911,-6.4741 10.17187,-9.67581 2.83249,-2.65828 5.72203,-5.25591 8.66211,-7.79495 3.11116,-2.68368 6.26277,-5.31924 9.45508,-7.90432 2.30868,-1.86931 4.01671,-4.37325 4.91797,-7.2051 0.36508,-1.14031 0.72652,-2.28407 1.08984,-3.42775 0.32453,-1.03219 0.51198,-2.10573 0.55078,-3.18751 0.10935,-2.8745 0.37321,-5.74037 0.79297,-8.58596 0.39331,-2.65811 0.8114,-5.31169 1.25586,-7.96096 0.58554,-3.51357 1.55026,-6.95458 2.87305,-10.26176 l 1.07031,-2.67384 c 1.23988,1.7268 2.52872,3.4192 3.86914,5.06838 1.08996,1.34405 2.19664,2.67714 3.31836,4.00001 0.62082,0.73199 1.28997,1.42243 2.00781,2.06447 0.71076,0.6332 1.43678,1.25438 2.17579,1.85938 0.77249,0.63146 1.56547,1.24021 2.375,1.82227 0.86422,0.62263 1.76911,1.18209 2.71093,1.67774 0.76721,0.40567 1.56735,0.7452 2.39453,1.01367 3.15879,1.03227 6.56286,1.04302 9.73047,0.0371 2.77076,-0.88138 5.42997,-2.08045 7.92383,-3.57618 1.88542,-1.12532 3.64346,-2.44921 5.25195,-3.94142 1.19579,-1.11121 2.41228,-2.19639 3.6504,-3.26172 2.0988,-1.80441 4.63389,-3.03084 7.35351,-3.5547 0.69314,-0.13401 1.39589,-0.22098 2.09961,-0.25978 0.82895,-0.0441 1.65405,0.0799 2.43359,0.36915 0.56264,0.20637 1.11675,0.44188 1.65821,0.70117 0.6949,0.32985 1.30915,0.81652 1.78711,1.41797 0.58909,0.7373 1.14144,1.49832 1.6582,2.28322 1.72314,2.61576 3.01915,5.49029 3.83398,8.51174 0.84128,3.11512 1.62727,6.24094 2.35743,9.38285 0.51854,2.21855 0.95408,4.45393 1.30859,6.70705 0.53265,3.35888 1.31179,6.66986 2.3418,9.91018 1.66492,5.24673 5.08851,9.75713 9.69531,12.77153 0.41624,0.27409 0.87808,0.47807 1.36133,0.60547 1.86601,0.49616 3.64182,1.2711 5.27148,2.3047 2.97711,1.88783 5.69303,4.16272 8.07227,6.76369 0.66138,0.72352 1.31289,1.45288 1.95312,2.19141 0.59083,0.68066 1.18222,1.36285 1.76953,2.04493 0.54498,0.63393 1.11174,1.24776 1.69727,1.84376 0.35451,0.36176 0.75091,0.68275 1.17773,0.95703 0.15697,0.0999 0.34726,0.12712 0.52539,0.0742 0.17814,-0.0538 0.32074,-0.18082 0.39844,-0.34961 0.22573,-0.51328 0.24497,-1.09602 0.0527,-1.62305 -0.74782,-2.04764 -1.23289,-4.18511 -1.4375,-6.35549 -0.16931,-1.77761 -0.47742,-3.54012 -0.92188,-5.26955 -0.97004,-3.77356 -2.79873,-7.27552 -5.34375,-10.22659 l -0.92187,-1.06837 -1.67579,-1.71485 -0.77539,-0.7539 c 0.21341,-0.41346 0.34638,-0.8646 0.38868,-1.32618 0.0547,-0.61805 -0.10297,-1.23745 -0.44336,-1.75196 -0.53264,-0.80485 -1.0976,-1.58194 -1.69727,-2.33985 -0.57848,-0.73042 -1.24575,-1.39013 -1.98828,-1.95509 -0.25926,-0.19631 -0.51423,-0.40592 -0.75586,-0.625 -0.37566,-0.33901 -0.72625,-0.7002 -1.05078,-1.08594 -0.69842,-0.83026 -1.34995,-1.69847 -1.95313,-2.59766 -1.05647,-1.58464 -1.94359,-3.27656 -2.63672,-5.0508 -0.3933,-1.00715 -0.77396,-2.02258 -1.14257,-3.04103 -0.61024,-1.69081 -1.08658,-3.42796 -1.41993,-5.19532 -0.74075,-3.91678 -1.40097,-7.84909 -1.98828,-11.79301 -0.17454,-1.17824 -0.27372,-2.36588 -0.29492,-3.5547 -0.0406,-2.27005 -0.2371,-4.53768 -0.58984,-6.78127 l -0.90235,-6.54103 c -0.22752,-1.90495 -0.62253,-3.78693 -1.18164,-5.62307 l -1.84375,-6.05862 c -0.48501,-1.60333 -1.29386,-3.09037 -2.375,-4.36916 -0.73018,-0.86427 -1.70906,-1.48725 -2.80078,-1.7871 -1.04059,-0.28221 -2.11182,-0.4502 -3.18945,-0.4961 -1.224,-0.0529 -2.44559,0.0408 -3.64844,0.27539 -1.41979,0.28046 -2.81131,0.67151 -4.16406,1.17774 -4.10943,1.5363 -8.20647,3.10472 -12.29297,4.69923 -1.36687,0.53444 -2.74264,1.04444 -4.12891,1.53126 -0.65786,0.23102 -1.34649,0.35056 -2.04492,0.35156 -0.51324,0 -1.01938,-0.1275 -1.47265,-0.36914 -1.72844,-0.92777 -2.94432,-2.58777 -3.29883,-4.51564 -0.35627,-1.92082 -0.4149,-3.88381 -0.16797,-5.82228 0.60495,-4.76588 0.88661,-9.56665 0.84961,-14.3731 -0.0441,-5.04809 -1.06207,-10.04136 -3.00391,-14.70317 l -0.36914,-0.88672 c 3.76726,-2.90327 5.78832,-7.53388 5.36328,-12.27153 -0.0599,-0.6632 -0.12374,-1.32526 -0.18554,-1.99023 -0.14462,-1.50103 -0.71274,-2.93463 -1.63868,-4.12697 -0.93477,-1.19764 -2.0324,-2.25947 -3.26171,-3.14844 -1.51501,-1.09887 -3.16353,-2.00177 -4.9043,-2.69142 -1.85189,-0.73377 -3.77119,-1.28415 -5.73242,-1.63868 -1.75136,-0.31926 -3.51635,-0.56541 -5.28711,-0.73828 -1.08115,-0.10582 -2.16105,-0.21024 -3.24219,-0.3125 -1.56792,-0.15169 -3.14553,-0.19436 -4.71875,-0.13086 -1.99652,0.0829 -3.99391,0.13601 -5.99219,0.16601 -0.8942,0.0123 -1.78453,0.0886 -2.66992,0.22266 -0.4709,0.0706 -0.94901,0.0828 -1.41992,0.0352 -1.85013,-0.18344 -3.7057,-0.29324 -5.56641,-0.33204 -1.30337,-0.0247 -2.60463,-0.053 -3.90625,-0.0918 -1.79897,-0.0477 -3.59967,-0.0599 -5.40039,-0.0352 -0.74252,0.0105 -1.486,0.005 -2.22851,-0.0195 -1.31396,-0.037 -2.6296,-0.0441 -3.94532,-0.0176 -1.65611,0.0351 -3.31673,0.009 -4.97461,-0.0742 -1.35806,-0.0687 -2.71596,-0.083 -4.07226,-0.0371 -2.25577,0.0724 -4.50811,0.11701 -6.76563,0.12891 -4.03889,0.0247 -8.07717,0.19461 -12.10547,0.51562 -3.2064,0.25579 -6.42187,0.37975 -9.64062,0.36915 -2.98947,-0.007 -5.98144,-0.002 -8.97266,0.0195 -1.2981,0.009 -2.5943,-0.0304 -3.89062,-0.11328 -4.59974,-0.29281 -9.196,-0.6608 -13.78516,-1.10352 -3.64557,-0.35277 -7.26969,-0.91028 -10.85351,-1.67579 -3.55387,-0.75843 -7.13019,-1.40657 -10.72461,-1.9375 -4.1782,-0.61558 -8.40428,-0.86334 -12.62305,-0.73634 -4.87488,0.14815 -9.71721,0.81202 -14.44922,1.99024 -2.8572,0.71084 -5.59061,1.84715 -8.10742,3.37111 -0.63315,0.38275 -1.25304,0.78275 -1.86328,1.19726 -0.62965,0.43038 -1.25109,0.87111 -1.86133,1.32619 -1.33513,0.99479 -2.75148,1.87128 -4.23828,2.61915 -3.71436,1.86967 -7.63413,3.29464 -11.68359,4.23829 -3.72317,0.8678 -7.53158,1.31427 -11.35352,1.32617 -4.34399,0.0159 -8.68698,-0.27106 -12.99219,-0.84961 -5.99657,-0.80606 -11.90103,-2.21298 -17.61718,-4.19727 l -3.87305,-1.34767 c 0.45502,-0.96481 0.81999,-1.97031 1.08984,-3.00392 0.30159,-1.1659 0.45694,-2.36581 0.46094,-3.57227 0.002,-0.56442 -0.0621,-1.12565 -0.18555,-1.67774 -0.0935,-0.41626 -0.25276,-0.81811 -0.47851,-1.1797 -0.3298,-0.53796 -0.70506,-1.04236 -1.12305,-1.50976 -0.47091,-0.5274 -1.08521,-0.90797 -1.76953,-1.08789 -1.03176,-0.27513 -2.11867,-0.24354 -3.13281,0.0898 -0.85009,0.28045 -1.6592,0.66476 -2.41407,1.14453 -1.06705,0.67731 -2.06222,1.46146 -2.96875,2.33986 l -1.19726,1.16015 -1.56641,1.56837 -0.64453,0.47852 -0.92187,0.23828 c 2.83604,-6.69376 7.31844,-12.56477 13.02929,-17.06256 3.57503,-2.81508 7.14959,-5.62597 10.72461,-8.43752 3.52035,-2.7657 6.59744,-6.05481 9.12305,-9.75003 l 2.69531,-4.29299 2.35352,-4.4961 c 2.4057,-5.06575 3.57242,-10.62701 3.41015,-16.23247 -0.0406,-1.39166 -0.11315,-2.77947 -0.2207,-4.16409 -0.0511,-0.65791 -0.15748,-1.31109 -0.31445,-1.95312 -0.41271,-1.68095 -0.86069,-3.35198 -1.34571,-5.01174 -0.46209,-1.58922 -0.84451,-3.20187 -1.14257,-4.82814 -0.36512,-1.99137 -0.37732,-4.03052 -0.0352,-6.02541 0.61905,-3.62998 2.19811,-7.0246 4.57031,-9.83792 2.03178,-2.41116 4.28926,-4.62062 6.7461,-6.59964 0.73547,-0.59266 1.49659,-1.15192 2.2832,-1.67578 0.66493,-0.44273 1.33585,-0.87997 2.00781,-1.3086 0.85186,-0.54149 1.70534,-1.07241 2.5625,-1.60156 0.97003,-0.59618 1.96868,-1.15023 2.98633,-1.65822 1.08645,-0.54151 2.17894,-1.07071 3.28125,-1.58398 0.89771,-0.42155 1.80767,-0.82352 2.72656,-1.19922 0.39506,-0.16228 0.77226,-0.36578 1.125,-0.60743 1.18168,-0.81136 2.34307,-1.65387 3.48242,-2.52344 1.14993,-0.88016 2.15197,-1.93712 2.9668,-3.13478 0.59261,-0.86781 1.15216,-1.7598 1.67773,-2.66993 0.32982,-0.57324 0.58302,-1.18573 0.75586,-1.82423 0.18342,-0.68085 0.38696,-1.35885 0.60743,-2.02735 0.13227,-0.39863 0.23865,-0.80406 0.31445,-1.2168 0.0798,-0.43039 0.1113,-0.86939 0.0918,-1.30859 -0.033,-0.76727 -0.0441,-1.53548 -0.0371,-2.30274 0.005,-0.5415 -0.0549,-1.07967 -0.1836,-1.60353 -0.12345,-0.50622 -0.33772,-0.98406 -0.62695,-1.41797 -0.20283,-0.30337 -0.49322,-0.54053 -0.83008,-0.68164 -0.35275,-0.14816 -0.72451,-0.24732 -1.10547,-0.29492 -0.51678,-0.0653 -1.03714,0.0887 -1.4375,0.42383 -1.53089,1.28406 -2.93118,2.71598 -4.18164,4.27344 -1.49386,1.86085 -3.10694,3.62037 -4.83008,5.26956 -0.78132,0.74962 -1.64706,1.40458 -2.58007,1.95312 -0.75662,0.44627 -1.55872,0.80397 -2.39649,1.07032 -0.98415,0.31042 -2.04445,0.27142 -3.0039,-0.11132 -0.44445,-0.17815 -0.81947,-0.49314 -1.06641,-0.90236 -0.56261,-0.91896 -0.89574,-1.96332 -0.96094,-3.04101 l -0.27539,-4.38479 c -0.20812,-3.27015 -0.511,-6.53073 -0.9043,-9.78323 -0.10406,-0.8678 -0.25792,-1.7301 -0.45898,-2.58204 -0.0582,-0.23812 -0.17154,-0.45914 -0.33203,-0.64258 -0.24692,-0.28221 -0.49332,-0.56563 -0.74024,-0.84961 -0.22045,-0.25399 -0.51588,-0.4273 -0.8457,-0.4961 -0.28924,-0.06 -0.57775,-0.12902 -0.86523,-0.20312 -0.23105,-0.06 -0.47718,-0.0476 -0.70117,0.0371 -0.74427,0.28045 -1.40091,0.75841 -1.89649,1.38281 -0.4815,0.60498 -0.92076,1.24576 -1.31055,1.91603 -0.41093,0.70905 -0.70299,1.48066 -0.86523,2.2832 -0.0917,0.45684 -0.21394,0.90652 -0.36914,1.34571 -0.29806,0.85017 -0.42877,1.75103 -0.38477,2.65236 0.10407,2.26123 0.23133,4.52374 0.38477,6.78322 0.0899,1.32463 0.10061,2.65212 0.0371,3.97853 -0.15521,3.14668 -0.72894,6.25856 -1.71485,9.25003 -0.41447,1.26467 -0.89585,2.50562 -1.43554,3.72266 -0.33862,0.76021 -0.71603,1.50359 -1.12696,2.22853 -0.32805,0.58559 -0.66061,1.16989 -0.99218,1.75195 -0.42153,0.73376 -0.86251,1.45055 -1.32813,2.15431 -0.32276,0.48859 -0.66616,0.96308 -1.03125,1.41992 -0.32804,0.40744 -0.67166,0.80204 -1.0332,1.17774 -0.33864,0.35453 -0.70498,0.68919 -1.08594,0.9961 -0.79719,0.63851 -1.59595,1.26876 -2.39844,1.89844 -0.91358,0.71612 -1.94203,1.27702 -3.03906,1.65626 -1.30514,0.45507 -2.71428,0.51891 -4.05469,0.18554 -1.23282,-0.30515 -2.42435,-0.75115 -3.55664,-1.32617 -0.94711,-0.48328 -1.89955,-0.95584 -2.85547,-1.41797 -0.75662,-0.36688 -1.48421,-0.79173 -2.17382,-1.27149 l -2.23243,-1.54883 c 0.0794,-1.66154 0.007,-3.3272 -0.2207,-4.97463 -0.0847,-0.60853 -0.16443,-1.21746 -0.24023,-1.82423 -0.19577,-1.5751 -0.55513,-3.12399 -1.06836,-4.62501 -0.21341,-0.6244 -0.42237,-1.25098 -0.62696,-1.87892 -0.51325,-1.58569 -1.02835,-3.17195 -1.54687,-4.75586 -0.35627,-1.08653 -0.58464,-2.21233 -0.68164,-3.35353 -0.34922,-4.07975 -0.0166,-8.18806 0.97461,-12.1602 0.75134,-2.99324 1.29847,-6.03429 1.64062,-9.10159 0.14459,-1.29819 0.19952,-2.60297 0.16602,-3.90821 l -0.16602,-6.3926 c -0.03,-1.21705 -0.18926,-2.42958 -0.47851,-3.61134 -0.13934,-0.56973 -0.47033,-1.07069 -0.93946,-1.41993 -0.72312,-0.5362 -1.59074,-0.84221 -2.49023,-0.88281 z" />
  <path
     id="path18"
     style="fill:#fed300;fill-opacity:1;fill-rule:evenodd;stroke:none;stroke-width:0.176376"
     d="m 315.34486,346.04303 c -3.33538,0.0539 -6.66314,0.31181 -9.96875,0.76953 -0.58555,0.0811 -1.1645,0.19811 -1.73242,0.35156 -0.56966,0.15168 -1.14144,0.30032 -1.71289,0.44141 -0.43386,0.10761 -0.85898,0.24203 -1.27344,0.4043 -1.33336,0.52387 -2.70724,0.93453 -4.10938,1.23437 -0.74075,0.15875 -1.46316,0.41388 -2.13867,0.75782 -0.43915,0.22048 -0.78778,0.58324 -0.99414,1.03125 -0.0953,0.20636 -0.10479,0.44301 -0.0254,0.6582 0.0811,0.21518 0.23936,0.38907 0.44922,0.48437 1.98771,0.9066 4.03269,1.68549 6.11914,2.33985 1.89951,0.59619 3.85763,0.99617 5.8418,1.19726 0.53969,0.0547 1.08833,-0.009 1.60156,-0.18554 1.83952,-0.62969 3.69688,-1.2068 5.56641,-1.73243 0.612,-0.17117 1.24612,-0.24345 1.88281,-0.21875 1.12878,0.0441 2.22596,0.40156 3.16601,1.03125 0.34569,0.23105 0.58492,0.58865 0.66602,0.9961 0.11472,0.58206 0.16906,1.17494 0.16406,1.76758 -0.009,1.00892 -0.0635,2.01786 -0.16406,3.02148 -0.0794,0.77609 -0.0369,1.5603 0.12891,2.32227 l 0.25781,1.19921 c 0.78131,1.03185 1.55329,2.0689 2.32226,3.11133 2.0318,2.76567 3.58609,5.85638 4.58789,9.14063 l 0.60743,1.98828 c 1.65434,-1.23998 3.13984,-2.68939 4.42383,-4.30859 0.79366,-1.00538 1.66813,-1.94004 2.61523,-2.80079 0.83954,-0.76017 2.01652,-1.02419 3.09766,-0.68554 1.07939,0.33689 1.90051,1.22379 2.15625,2.32617 0.22055,0.94718 0.2684,1.92581 0.14843,2.89062 -0.1552,1.20823 -0.61747,2.35683 -1.34765,3.33399 -1.39685,1.87671 -2.7193,3.80633 -3.96094,5.78711 -1.29985,2.07427 -2.54974,4.18255 -3.74024,6.32031 -2.21166,3.96332 -4.08674,8.10375 -5.60351,12.38281 -0.99473,2.80095 -2.04998,5.57655 -3.16992,8.32813 l -1.32813,3.25976 0.0391,0.16602 c 6.87491,-3.97215 13.33192,-8.62754 19.27735,-13.89258 2.23461,-1.97901 4.2581,-4.18265 6.04297,-6.57617 2.21168,-2.96676 4.0104,-6.22395 5.34375,-9.67578 0.99297,-2.5646 1.648,-5.2444 1.95312,-7.97656 0.43739,-3.9069 -0.0689,-7.86462 -1.47461,-11.53516 -2.07587,-5.42553 -5.75956,-10.0857 -10.55859,-13.35938 -3.16583,-2.15892 -6.70122,-3.72002 -10.42969,-4.60546 -3.73552,-0.88721 -7.55262,-1.38111 -11.38867,-1.47461 -1.11245,-0.0273 -2.2261,-0.0336 -3.33789,-0.0156 z" />
  <path
     id="path20"
     style="fill:#fed300;fill-opacity:1;fill-rule:evenodd;stroke:none;stroke-width:0.176375"
     d="m 517.21515,522.711 c -1.51323,0.17108 -3.02519,0.37442 -4.53313,0.60547 -3.52911,0.54502 -7.08583,0.92039 -10.65022,1.125 -5.44092,0.31212 -10.8887,0.32984 -16.32788,0.0547 -0.7319,-0.0352 -1.46334,-0.0813 -2.19527,-0.12891 -1.79012,-0.11995 -3.57974,-0.2988 -5.35929,-0.53516 -2.32099,-0.30691 -4.67938,-0.0979 -6.91396,0.60938 -0.79365,0.254 -1.41284,0.88029 -1.65622,1.67578 -1.44093,4.71648 -2.41646,9.55892 -2.91207,14.46484 -0.24338,2.39421 -0.37276,4.7985 -0.38866,7.20313 -0.007,1.26625 0.004,2.53256 0.0391,3.79687 0.03,1.25533 0.11106,2.51116 0.23632,3.75977 0.15344,1.47439 0.52344,2.91265 1.10545,4.27344 0.62256,1.44899 1.26903,2.88822 1.93747,4.31445 0.39857,0.85088 0.88911,1.65913 1.457,2.41016 2.00706,2.6595 4.04479,5.2949 6.1171,7.90625 1.39508,1.76048 2.92473,3.41144 4.57024,4.9375 l 8.994,8.34765 c 3.3686,-2.60234 6.38363,-5.63151 8.97446,-9.00976 2.45328,-3.2003 4.83092,-6.45492 7.13075,-9.76563 2.50088,-3.59644 4.5033,-7.51399 5.95304,-11.64453 1.11992,-3.18672 2.09019,-6.41933 2.91206,-9.69336 0.52558,-2.09807 0.92236,-4.22665 1.18162,-6.375 0.42152,-3.50984 0.66028,-7.0397 0.71678,-10.57617 l 0.0176,-1.16016 -0.0742,-1.69726 z" />
  <path
     id="path22"
     style="fill:#fed300;fill-opacity:1;fill-rule:evenodd;stroke:none;stroke-width:0.176376"
     d="m 259.81947,428.03522 -10.48633,0.0547 -6.02539,0.18554 c 0.56264,3.30366 1.72204,6.47395 3.42578,9.36133 2.12173,3.5894 5.22157,6.49728 8.93945,8.38281 1.08292,0.55031 2.25497,0.89897 3.46485,1.03125 0.87657,0.097 1.75467,0.18397 2.63476,0.25977 0.44798,0.0371 0.89774,0.0371 1.34571,0 0.26631,-0.0247 0.53371,-0.0743 0.79297,-0.14844 l 1.27148,-0.36914 c -0.37391,-1.26113 -1.08912,-2.39738 -2.06445,-3.2793 -1.44799,-1.30876 -2.68558,-2.82939 -3.66797,-4.51562 -0.6508,-1.11297 -0.36594,-2.5366 0.66406,-3.31445 1.25575,-0.95071 2.84851,-1.34364 4.40234,-1.08789 1.59791,0.26281 3.15447,0.73366 4.62891,1.40039 1.69669,0.76902 3.32881,1.67536 4.88086,2.70898 1.36511,0.90836 2.69474,1.87486 3.98047,2.89258 l 1.14453,0.90234 c 5.18177,0.73375 10.44509,0.67345 15.60742,-0.18554 l 3.66992,-0.60547 2.41407,-0.58985 c -0.32452,-1.1165 -0.85759,-2.16092 -1.56836,-3.07812 -0.94359,-1.22233 -2.0589,-2.29324 -3.31641,-3.1875 -1.59087,-1.13061 -3.30998,-2.06531 -5.12305,-2.7832 -2.4833,-0.98422 -5.06639,-1.68512 -7.70312,-2.09961 -4.65441,-0.73023 -9.34096,-1.25421 -14.04297,-1.56641 l -2.76562,-0.18555 -2.04493,-0.0547 z" />
</svg>
