<?xml version="1.0" encoding="utf-8"?>
<!DOCTYPE svg PUBLIC "-//W3C//DTD SVG 1.1//EN" "http://www.w3.org/Graphics/SVG/1.1/DTD/svg11.dtd">
<svg xmlns="http://www.w3.org/2000/svg" width="608.37335" height="540.03998">
  <g transform="matrix(1.33333 0 0 -1.33333 0 540.04)">
    <path fill="#e4002b" d="M36.8508 0C23.6852 0 11.5199 7.02461 4.93711 18.425c-6.58242 11.402-6.58242 25.4488 0 36.8512L196.229 386.602c6.582 11.402 18.748 18.425 31.913 18.425s25.331-7.023 31.913-18.425L451.347 55.2762c6.583-11.4024 6.583-25.4492 0-36.8512C444.764 7.02461 432.598 0 419.434 0H36.8508"/>
    <path fill="#ffcd00" d="M46.6699 42.5207L228.142 356.831 409.614 42.5207H46.6699"/>
    <path d="M246.073 99.8828c-4.156-5.7609-10.827-9.1738-17.931-9.1738-7.104 0-13.775 3.4129-17.931 9.1738l-21.197 29.3812c-5.855 8.116-15.365 12.784-25.366 12.452-10-.332-19.18-5.621-24.483-14.107l-.926-1.482c-.255-.408-.493-.827-.712-1.255-.612-1.196-1.256-2.376-1.93-3.539-.534-.921-1.028-1.865-1.479-2.83-.785-1.676-1.579-3.35-2.38-5.018-.974-2.025-2.047-4-3.217-5.918-.861-1.412-1.784-2.786-2.766-4.117-.868-1.175-1.836-2.273-2.895-3.281-.95-.9034-1.96-1.7413-3.024-2.5081-.984-.7105-2.04-1.3144-3.151-1.8015-1.689-.7414-3.46-1.2801-5.275-1.6086-2.612-.4707-5.26-.707-7.913-.707H87.5434V56.6934H368.74v36.8504h-15.954c-2.652 0-5.3.2363-7.912.707-1.814.3285-3.586.8672-5.274 1.6086-1.112.4871-2.168 1.091-3.153 1.8015-1.063.7668-2.074 1.6047-3.023 2.5081-1.059 1.008-2.028 2.106-2.895 3.281-.982 1.331-1.905 2.705-2.766 4.117-1.17 1.918-2.243 3.893-3.217 5.918-.801 1.668-1.595 3.342-2.38 5.018-.451.965-.945 1.909-1.479 2.83-.674 1.163-1.318 2.343-1.93 3.539-.219.428-.457.847-.712 1.255l-.926 1.482c-5.303 8.486-14.482 13.775-24.483 14.107-10.001.332-19.511-4.336-25.365-12.452l-21.198-29.3812"/>
  </g>
</svg>
