<svg xmlns="http://www.w3.org/2000/svg" width="570.80585" height="506.68124" version="1">
  <path d="M285.40293.2c-16.4564 0-31.67743 8.7797-39.90625 23.0313L6.3717 437.38748c-8.2289 14.2519-8.2289 31.80945 0 46.06255 8.2275 14.2518 23.4497 23.0312 39.9062 23.0312h478.24998c16.4566 0 31.6788-8.7794 39.9063-23.0312 8.2289-14.2531 8.2289-31.81066 0-46.06255L325.30918 23.2313C317.08038 8.9797 301.85933.2 285.40293.2z" fill="#ce252c"/>
  <path d="M58.5606 453.33127L285.40276 60.43014l226.84212 392.90113H58.5606z" fill="#ffd100"/>
  <path d="M339.27332 420.92714l16.6427 22.619 10.275-69.4481-69.4493-10.9839 16.9639 23.059c-26.2664 11.6501-56.9905 6.0151-77.412-14.2026l-30.36892 29.764c35.25402 35.3028 89.57072 43.1203 133.34862 19.1926zm2.25-194.9792l10.6214-25.9952-64.6155 27.4503 26.8452 64.9855 10.8288-26.5002c23.6402 16.3364 34.8528 45.4904 28.254 73.4581l41.2329 10.3901c11.7376-48.4916-9.9189-98.9133-53.1668-123.7886zm-168.19012 95.4247l-27.8654 3.485 55.603 42.8616 43.48052-55.2567-28.4065 3.5537c2.65-28.6139 22.5626-52.6804 50.1754-60.638l-11.1589-41.0329c-48.01912 13.5427-81.34942 57.1368-81.82812 107.0273z"/>
</svg>
