<svg xmlns="http://www.w3.org/2000/svg" width="570.80585" height="506.68124" version="1">
  <path d="M285.40293.2c-16.4564 0-31.67743 8.7797-39.90625 23.0313L6.3717 437.38748c-8.2289 14.2519-8.2289 31.80945 0 46.06255 8.2275 14.2518 23.4497 23.0312 39.9062 23.0312h478.24998c16.4566 0 31.6788-8.7794 39.9063-23.0312 8.2289-14.2531 8.2289-31.81066 0-46.06255L325.30918 23.2313C317.08038 8.9797 301.85933.2 285.40293.2z" fill="#ce252c"/>
  <path d="M512.24488 453.33127L285.40272 60.43014 58.5606 453.33127h453.68428z" fill="#ffd100"/>
  <path d="M151.2626 322.99726c0 .7963.4038 1.5226 1.0625 1.9688l18.125 12.2187c.8925.6038 1.9025 1.0063 2.9687 1.1563l56.2813 5.8125 63.74996 84.5937h38.25l-34.53125-59.8125v-25.2812c21.1252-.5675 42.19107-2.4038 63.09377-5.5l16.34375 26.6875h21.28126l-6.9375-36.2813 8.5924-5.5625-8.5924-5.5625 6.9375-36.2812H376.6063l-16.34374 26.6875c-20.9027-3.0962-41.96855-4.9325-63.09375-5.5v-25.2813l34.53127-59.8125h-38.25l-63.74996 84.5938-56.2813 5.8125c-1.0662.15-2.0762.5524-2.9687 1.1562l-18.125 12.2188c-.6587.4462-1.0625 1.1724-1.0625 1.9687z"/>
</svg>
