<?xml version="1.0" encoding="UTF-8" standalone="no"?>
<svg
   width="806.87"
   height="716.5"
   fill-rule="evenodd"
   version="1.1"
   id="svg12"
   sodipodi:docname="8888.svg"
   inkscape:version="1.1.1 (3bf5ae0d25, 2021-09-20)"
   xmlns:inkscape="http://www.inkscape.org/namespaces/inkscape"
   xmlns:sodipodi="http://sodipodi.sourceforge.net/DTD/sodipodi-0.dtd"
   xmlns="http://www.w3.org/2000/svg"
   xmlns:svg="http://www.w3.org/2000/svg">
  <defs
     id="defs16" />
  <sodipodi:namedview
     id="namedview14"
     pagecolor="#ffffff"
     bordercolor="#111111"
     borderopacity="1"
     inkscape:pageshadow="0"
     inkscape:pageopacity="0"
     inkscape:pagecheckerboard="1"
     showgrid="false"
     inkscape:zoom="1.0034892"
     inkscape:cx="114.10188"
     inkscape:cy="473.84666"
     inkscape:window-width="1920"
     inkscape:window-height="1057"
     inkscape:window-x="-8"
     inkscape:window-y="-8"
     inkscape:window-maximized="1"
     inkscape:current-layer="svg12" />
  <path
     d="M66.019,715.461 9.727,617.961 347.143,33.539 459.727,33.539 797.143,617.961 740.851,715.461"
     fill="#e42b38"
     stroke="none"
     id="path2" />
  <circle
     cx="66.019"
     cy="650.461"
     r="65"
     fill="#e42b38"
     stroke="none"
     id="circle4" />
  <circle
     cx="403.435"
     cy="66.039"
     r="65"
     fill="#e42b38"
     stroke="none"
     id="circle6" />
  <circle
     cx="740.851"
     cy="650.461"
     r="65"
     fill="#e42b38"
     stroke="none"
     id="circle8" />
  <path
     d="M83.339,640.461 403.435,86.039 723.531,640.461"
     fill="#fed300"
     stroke="none"
     id="path10" />
  <path
     d="m 520.7183,514.40377 10.27451,26.70542 c 1.84741,4.24145 3.85007,8.41392 6.00802,12.50716 1.47156,2.76825 3.3472,5.30133 5.5669,7.51478 l 16.38839,16.33033 c 1.29688,1.49191 2.62379,2.95629 3.98067,4.39245 1.1063,1.17207 2.04501,2.49516 2.7843,3.92849 0.89991,1.74346 1.64803,3.56069 2.23736,5.43364 0.7305,2.32226 0.70227,4.81619 -0.0794,7.12469 -0.81518,2.40907 -1.7433,4.77615 -2.78257,7.09842 -1.70448,3.81083 -4.96522,6.70857 -8.94762,7.95507 -1.26513,0.39622 -2.47909,0.93779 -3.61718,1.6131 -1.16278,0.68925 -1.95503,1.86342 -2.15971,3.19887 l -0.77989,5.09596 h 21.64299 l 30.82707,-28.60271 -34.80595,-54.39644 -6.21798,-10.19337 -0.62288,-3.27595 -3.85183,-18.12445 -4.81348,-24.96036 -5.22635,-41.63118 c 5.03049,2.87547 9.36581,6.8271 12.69361,11.57253 l 6.89376,9.82786 c 1.72742,2.14338 3.00842,4.60961 3.77245,7.25401 l 8.2983,28.78495 c 2.45261,5.50577 6.96082,9.83844 12.56302,12.06472 3.13899,1.25076 6.57265,1.56477 9.88809,0.91028 3.46011,-0.68271 6.0539,-3.56349 6.37327,-7.07583 0.31937,-3.51233 -1.71506,-6.81474 -4.99522,-8.11137 -1.34982,-0.52922 -2.59905,-1.28603 -3.69478,-2.23511 -1.91094,-1.64944 -3.12843,-3.9622 -3.40897,-6.47429 l -3.77065,-33.85499 c -0.0599,-2.59678 -0.99519,-5.09652 -2.65379,-7.09877 L 569.51999,424.8012 551.98468,405.11726 c -3.16016,-3.56702 -6.9079,-6.56598 -11.08086,-8.8664 l -16.18195,-8.92109 c -1.12045,-0.93144 -2.13149,-1.98637 -3.01548,-3.14541 -1.95858,-2.56323 -2.31146,-6.01206 -0.91223,-8.91932 l 8.29829,-17.23888 c 1.47157,-2.19982 2.34323,-4.74367 2.52497,-7.38453 0.75517,-10.96924 -2.80199,-21.80087 -9.91103,-30.18919 -2.69437,-3.17893 -6.34504,-5.40347 -10.40684,-6.34551 -13.23355,-3.06073 -27.10581,0.97732 -36.62689,10.66226 -2.14382,2.18222 -3.3666,5.10534 -3.40895,8.1643 l -0.15526,11.20739 c -0.0529,0.9685 0.0705,1.93699 0.36346,2.86138 l 6.0098,18.90419 c 0.39172,0.69506 0.854,1.34778 1.3798,1.94935 3.40721,3.89161 7.24668,7.381 11.44614,10.40117 1.16807,0.83971 1.90209,2.15573 2.00971,3.58996 0.10415,1.43422 -0.43053,2.84374 -1.46449,3.84751 -2.47732,2.40096 -4.91406,4.84777 -7.31021,7.33165 -5.34106,5.54107 -9.41698,12.17586 -11.94018,19.44929 l -5.5669,16.0428 -9.72752,28.31745 -7.18139,0.57156 c -0.66343,-1.91053 -1.87562,-3.58466 -3.48482,-4.81071 l -0.547,-0.41457 c 3.30838,-17.61108 4.75527,-35.52383 4.31766,-53.4366 l -0.20819,-8.52769 c -0.14117,-2.30039 -1.10104,-4.47907 -2.70494,-6.13734 -2.38733,-2.46974 -4.71289,-5.00125 -6.97141,-7.5927 -7.93484,-9.1028 -16.71485,-17.43469 -26.2218,-24.88275 -4.62822,-3.62879 -9.27758,-7.23462 -13.94461,-10.81752 -5.54045,-4.25678 -11.77079,-7.53805 -18.41578,-9.70083 l -9.83339,-3.19657 c -1.69389,-1.13785 -3.16015,-2.58441 -4.31942,-4.26562 -1.14868,-1.66354 -1.58978,-3.71697 -1.22278,-5.70688 0.36525,-1.99169 1.50685,-3.75403 3.17604,-4.9007 3.30486,-2.27747 6.6097,-4.55668 9.91105,-6.83767 2.84609,-1.97053 4.93875,-4.8513 5.93037,-8.16606 0.83812,-2.80671 1.49099,-5.66456 1.95151,-8.55592 1.83328,-11.52669 -0.0529,-23.33916 -5.38517,-33.72445 -2.96783,-5.77746 -8.98469,-9.34626 -15.47969,-9.17866 -4.56115,0.11816 -9.12408,0.0917 -13.68347,-0.0777 -1.86856,-0.0688 -3.7389,0.0952 -5.5669,0.49396 -2.14206,0.46572 -4.28239,0.9332 -6.42267,1.40423 -3.32074,0.72857 -6.47209,2.07813 -9.28817,3.97806 -1.83682,1.23839 -3.41777,2.81904 -4.65643,4.65372 -0.7252,1.07611 -1.54391,2.08519 -2.44556,3.01662 -1.79096,1.85231 -2.81433,4.31501 -2.86197,6.8906 l -0.3635,19.65746 c -0.23114,5.3823 0.77462,10.74693 2.93962,15.67938 0.97401,2.22103 2.5726,4.10863 4.60351,5.43523 2.10324,1.37423 4.17649,2.79612 6.21799,4.26384 1.63742,1.17844 2.68199,3.00959 2.8602,5.0189 0.40937,4.55317 -2.32202,8.80113 -6.63264,10.32356 -2.57259,0.90674 -5.09048,1.95816 -7.54311,3.14539 -2.6573,1.28781 -5.32869,2.54386 -8.01245,3.77168 -2.28147,1.04082 -4.45883,2.29511 -6.50385,3.74342 -2.18794,1.5489 -3.99298,3.57587 -5.28105,5.92741 l -33.1932,60.66417 -31.7887,22.727 c -4.07241,3.18775 -8.32831,6.13029 -12.74653,8.81349 -2.27794,1.38481 -4.20826,3.27066 -5.6463,5.51282 -0.91401,1.43072 -0.8099,3.28477 0.26112,4.60256 2.80551,3.4506 6.22859,6.35255 10.09278,8.55592 2.12442,1.21018 4.50294,1.90524 6.94672,2.02697 2.86198,0.14466 5.31459,-2.02873 5.51397,-4.88658 l 0.36524,-5.20412 c -0.21703,-0.89793 0.29114,-1.81351 1.16986,-2.10281 l 39.43589,-13.0544 20.83839,-26.44399 c -4.34411,11.22326 -9.27758,22.21013 -14.77743,32.92003 -6.3768,12.41579 -14.78099,23.68314 -24.86844,33.33281 l -3.0437,2.91256 c 8.39533,7.82909 18.06286,14.1693 28.5897,18.74894 l 2.80902,1.22252 c -4.56292,9.348 -7.409,19.44222 -8.40241,29.79754 -0.42874,4.47556 -0.77457,8.95637 -1.04103,13.44426 -0.44642,7.57791 -1.59507,15.09814 -3.43366,22.464 -1.46626,5.88011 -3.15839,11.70097 -5.07108,17.44878 -1.17337,3.52134 -3.18134,6.70644 -5.85452,9.28221 -3.46542,3.3437 -7.53605,5.99867 -11.99131,7.82823 -7.31904,3.00251 -15.05801,4.86099 -22.9452,5.51284 -1.46802,0.12001 -2.90782,0.47207 -4.26647,1.03852 -1.5845,0.66296 -3.08607,1.5092 -4.47293,2.52215 -1.3763,1.00466 -2.32205,2.48968 -2.65376,4.16012 l -0.88579,4.4729 62.71987,13.26186 c 3.83065,-3.29113 5.96389,-8.13837 5.80157,-13.18248 -0.12875,-3.98177 -0.31054,-7.95913 -0.54698,-11.93543 -0.21528,-3.62117 0.81342,-7.20866 2.9149,-10.1676 4.70761,-6.63129 9.25287,-13.37565 13.63053,-20.22939 4.85581,-7.60365 8.36712,-15.98723 10.37862,-24.78025 1.28806,-5.62997 1.94269,-11.38695 1.9515,-17.16264 0.007,-3.87223 0.5223,-7.7268 1.53509,-11.46672 0.8628,-3.18951 2.46673,-6.1285 4.6829,-8.58062 l 2.652,-2.939 c 8.60002,1.95993 17.40648,2.84903 26.2218,2.65322 l 3.48659,-0.0776 c -0.11474,7.20109 1.23866,14.34925 3.98062,21.00877 3.73716,9.07633 8.09188,17.88487 13.03238,26.36775 2.99785,5.14433 5.03404,10.79283 6.0098,16.66537 0.74459,4.49159 1.63038,8.95708 2.65375,13.39274 0.59993,2.60207 0.52759,5.31367 -0.20996,7.87852 -0.94046,3.27877 -3.01195,6.1158 -5.85275,8.00957 -3.44071,2.29459 -6.95378,4.47908 -10.53564,6.5512 -4.03181,2.3348 -7.69485,5.25316 -10.87267,8.6607 -1.27043,1.36033 -1.97797,3.15407 -1.97797,5.01678 v 2.49726 h 61.21122 c 1.65862,-6.22605 1.18397,-12.8277 -1.35334,-18.7484 l -4.86464,-11.36351 c -1.06222,-1.98937 -1.70977,-4.17388 -1.89858,-6.42239 l -1.50687,-17.99392 -0.34052,-9.04793 -0.0777,-7.74903 c 0.26996,-3.62664 -0.0106,-7.27411 -0.83282,-10.81751 -0.50464,-2.17621 -0.97223,-4.36068 -1.40275,-6.5517 -0.63698,-3.22656 -1.81564,-6.32257 -3.48836,-9.15221 -3.29074,-5.57633 -5.18225,-11.8654 -5.51397,-18.3326 l -0.26115,-5.09652 c 12.6442,-3.29183 24.69552,-8.53652 35.71818,-15.54885 l 3.71949,-2.36742 -9.28639,-15.62647 -6.42444,-13.13203 -10.61505,-26.20935 -6.06096,-18.77363 -7.25727,-28.37039 32.02161,19.3999 c 0.88929,0.79385 1.46275,1.88408 1.61273,3.06777 l 2.02914,15.8858 0.75518,9.20511 0.49405,12.92387 c 0.4129,2.82257 0.0988,5.70512 -0.91046,8.37421 -1.1275,2.97958 -1.87916,6.0897 -2.23734,9.25627 -0.19939,1.76236 0.27526,3.53706 1.32687,4.96598 2.54085,3.45235 5.92862,6.19202 9.83163,7.95612 0.98988,0.44809 2.13326,0.38988 3.07194,-0.15524 0.57345,-0.33342 1.24572,-0.45337 1.89858,-0.33695 0.64402,0.11114 1.29865,0.15523 1.94973,0.12874 0.9281,-0.037 1.8527,0.13231 2.7067,0.49396 7.0667,3.0025 14.66628,4.5514 22.34525,4.5514 h 3.56423 l 11.78488,-25.04152 c 1.50158,18.1562 1.25809,36.41649 -0.72872,54.52682 -0.6652,6.065 -2.09091,12.02416 -4.24178,17.73458 l -2.57435,6.83768 -4.55234,13.59846 -7.02261,25.38038 -3.82536,13.23435 c -1.708,2.8418 -4.04946,5.25368 -6.84085,7.04533 -1.86326,1.19622 -3.8536,2.18165 -5.93037,2.93969 -2.285,0.83036 -4.58234,1.61876 -6.89556,2.36709 l -7.33489,2.36496 c -1.91446,0.82701 -3.24311,2.61035 -3.4866,4.68122 l -0.62463,5.30397 47.94418,8.65862 12.61597,-40.79642 5.72569,-16.38345 2.36441,-5.7196 9.574,-19.60505"
     style="fill:#000000;fill-opacity:1;fill-rule:evenodd;stroke:none;stroke-width:0.176429"
     id="path16"
     sodipodi:nodetypes="ccccccccccccccccccccccccccccsccccccccccccccccscccccccccccccccccccccccccccccccccccccccccccccccccccccccccccccccscccccccccccccccccccccccccccccccsccccccccccccccccccccccccccsccccccsccccccccccccccccccc" />
</svg>
