<svg xmlns="http://www.w3.org/2000/svg" width="1000.3998" height="1000.3998" viewBox="-50 -30 100.03994 100.03999">
  <path d="M.02 70.02c-27.61427 0-50.00002-22.38576-50.00002-50.00002 0-27.6142 22.38575-49.99998 50-49.99998 27.61422 0 49.99998 22.38577 49.99998 49.99998 0 27.61426-22.38576 50-49.99997 50z" fill="#ce252c"/>
  <path d="M.01998 58.3535c-21.171 0-38.3335-17.1625-38.3335-38.3335s17.1625-38.3335 38.3335-38.3335c21.17098 0 38.3335 17.1625 38.3335 38.3335S21.19094 58.3535.01996 58.3535z" fill="#ffd100"/>
  <path d="M-27.98004 34.57398v1.6h60.765v-1.6z"/>
  <path d="M17.87056 9.3083c2.5616 0 5.12233.30866 7.6281.925.79123.1949 1.46418.71782 1.84687 1.4375l3.2875 6.18434c1.93157 1.61102 2.81704 4.15382 2.3031 6.6156l-1.0281 3.84062v3.49374c0 .99307-.53192 1.90982-1.39376 2.40312-.86155.4933-1.9217.48708-2.7781-.01563-.8561-.50274-1.37655-1.42288-1.36564-2.41565V29.9582H9.3706v1.81876c.0109.99277-.50954 1.9129-1.36563 2.41562-.8564.5027-1.91657.5089-2.77812.01562-.86183-.4933-1.39375-1.41005-1.39375-2.40312v-3.49374l-1.02812-3.8406c-.51392-2.4618.37155-5.0046 2.30312-6.61562l3.2875-6.18435c.38268-.71968 1.05563-1.2426 1.84686-1.4375 2.50577-.61634 5.0665-.925 7.6281-.925zm0 2.8656c-2.34083 0-4.6806.29256-6.9656.88126l-2.475 4.65623h18.8812l-2.475-4.65626c-2.285-.5887-4.62477-.88125-6.9656-.88125z"/>
  <path d="M-23.50628-4.95102c-1.52933 0-2.76875 1.2391-2.76875 2.76875V16.7271h-.4625c-.84978 0-1.5375.69102-1.5375 1.54063v9.44375c0 .40805.1612.7991.45 1.0875.28854.28868.67954.45 1.0875.45h.4625v2.55625c0 1.5296 1.23942 2.76875 2.76875 2.76875 1.52932 0 2.76875-1.23916 2.76875-2.76875v-2.55625h12.325v2.55625c0 1.5296 1.23943 2.76875 2.76875 2.76875 1.52933 0 2.76875-1.23916 2.76875-2.76875v-2.55625h.4625c.40796 0 .79896-.16132 1.0875-.45.2888-.2884.45-.67945.45-1.0875v-9.44375c0-.8496-.6877-1.54062-1.5375-1.54062h-.4625V-2.18224c0-1.52964-1.23942-2.76875-2.76875-2.76875h-17.8625z" fill="#ce252c"/>
</svg>
