<svg xmlns="http://www.w3.org/2000/svg" width="1000.3998" height="1000.3998" viewBox="-50 -30 100.03993 100.03998">
  <path d="M.02 70.01998c-27.61427 0-50.00003-22.38574-50.00003-50C-49.98003-7.59422-27.59426-29.98.02-29.98c27.6142 0 49.99996 22.38577 49.99996 49.99998 0 27.61426-22.38576 50-49.99997 50z" fill="#ce252c"/>
  <path d="M.01998 58.3535c-21.171 0-38.3335-17.1625-38.3335-38.3335s17.1625-38.3335 38.3335-38.3335c21.17097 0 38.33348 17.1625 38.33348 38.3335S21.19096 58.3535.01998 58.3535z" fill="#ffd100"/>
  <path d="M-32.74504 30.728v1.6h65.53v-1.6h-65.53z"/>
  <path d="M-17.83064 5.46232c-2.5616 0-5.12232.30867-7.6281.925-.79123.1949-1.46418.71783-1.84687 1.4375l-3.2875 6.18435c-1.9316 1.61102-2.81707 4.15382-2.3031 6.6156l1.0281 3.84062v3.4937c0 .99307.5319 1.90982 1.39372 2.40312.86155.4933 1.92172.48708 2.77812-.01563.8561-.5027 1.37653-1.42285 1.36562-2.4156v-1.81877H-9.3307V27.931c-.0109.99277.50953 1.9129 1.36563 2.41562.8564.5027 1.91657.50892 2.77812.01563.86183-.4933 1.39374-1.41005 1.39374-2.40312V24.4654l1.0281-3.84062c.51393-2.4618-.37154-5.0046-2.3031-6.6156l-3.2875-6.18436c-.3827-.71967-1.05564-1.2426-1.84687-1.4375-2.50578-.61633-5.0665-.925-7.6281-.925zm0 2.86562c2.34084 0 4.6806.29255 6.9656.88125l2.475 4.6562h-18.8812l2.475-4.65624c2.285-.5887 4.62477-.88126 6.9656-.88126z" fill="#ce252c"/>
  <path d="M17.87056 5.46232c2.5616 0 5.12233.30867 7.6281.925.79123.1949 1.46418.71783 1.84687 1.4375l3.2875 6.18435c1.93156 1.61102 2.81703 4.15382 2.3031 6.6156l-1.0281 3.84062v3.4937c0 .99307-.53193 1.90982-1.39376 2.40312-.86155.4933-1.92172.48708-2.77812-.01563-.8561-.5027-1.37653-1.42285-1.36562-2.4156v-1.81877H9.37058V27.931c.0109.99277-.50952 1.9129-1.36562 2.41562-.8564.5027-1.91656.50892-2.7781.01563-.86185-.4933-1.39376-1.41005-1.39376-2.40312V24.4654l-1.02812-3.84062c-.51393-2.4618.37155-5.0046 2.30312-6.6156L8.39558 7.8248c.3827-.71967 1.05564-1.2426 1.84687-1.4375 2.50578-.61633 5.0665-.925 7.6281-.925zm0 2.86562c-2.34083 0-4.6806.29255-6.9656.88125l-2.475 4.6562h18.8812l-2.475-4.65624c-2.285-.5887-4.62477-.88126-6.9656-.88126z"/>
</svg>
