<?xml version="1.0" encoding="utf-8"?>
<!DOCTYPE svg PUBLIC "-//W3C//DTD SVG 1.1//EN" "http://www.w3.org/Graphics/SVG/1.1/DTD/svg11.dtd">
<svg xmlns="http://www.w3.org/2000/svg" width="608.37335" height="540.03998">
  <g transform="matrix(1.33333 0 0 -1.33333 0 540.04)">
    <path fill="#e4002b" d="M36.85 0C23.6844 0 11.5191 7.02344 4.93672 18.4246c-6.58281 11.4027-6.58281 25.4496 0 36.8508L196.229 386.602c6.582 11.402 18.748 18.425 31.912 18.425 13.166 0 25.332-7.023 31.914-18.425L451.346 55.2754c6.583-11.4012 6.583-25.4481 0-36.8508C444.764 7.02344 432.598 0 419.432 0H36.85"/>
    <path fill="#ffcd00" d="M46.6695 42.5195H409.613L228.141 356.838 46.6695 42.5195"/>
    <path d="M257.18 91.252h-14.069l-1.027-20.8543-30.018-1.8614.35 5.9356 11.352 8.4773-.33 13.9094-39.855 36.4494-1.028-2.037c9.693-7.861 15.728-19.36 16.694-31.803.965-12.4438-3.226-24.7356-11.591-33.9973l-3.396 2.0371c-13.088-13.7976-33.869-16.9578-50.468-7.6746-16.598 9.282-24.785 28.6426-19.882 47.0178 4.903 18.375 21.647 31.082 40.663 30.861v3.744c7.794-.186 15.423-2.285 22.216-6.111l14.418 32.551c-3.045 2.917-4.105 7.342-2.715 11.321 1.392 3.979 4.977 6.78 9.176 7.166l18.141 18.739c1.525 1.574 2.445 3.634 2.601 5.819l-.098 16.742c.215 3.829 1.463 7.53 3.61 10.708l2.25 3.977 2.891 3.918c.557.577.794 1.392.636 2.178-.159.786-.693 1.444-1.431 1.76-1.157.496-2.411.721-3.668.66-2.858.387-5.252 2.354-6.189 5.082l-1.823 7.604-2.795 8.866c-.986 4.256-.074 8.731 2.504 12.259.461.632 1.049 1.161 1.726 1.553 4.211 2.918 9.179 4.549 14.3 4.694 3.044.087 5.931-1.346 7.703-3.822 2.73-3.616 4.492-7.87 5.122-12.356.371-2.642.657-5.294.854-7.954.404-5.423 2.305-10.627 5.492-15.034.701-.97 1.592-1.789 2.619-2.405 1.019-.612 1.903-1.424 2.6-2.387 3.428-3.89 6.332-8.214 8.635-12.861.656-1.324 1.322-2.643 1.998-3.957.285-.554.629-1.074 1.029-1.552.848-1.017 1.553-2.147 2.096-3.356 1.173-2.622 2.449-5.197 3.822-7.721l3.919-8.885 1.823-4.189 2.93-7.624 2.659-7.469c.864-2.429 1.706-4.867 2.522-7.312 1.661-4.975.706-10.451-2.542-14.57-1.2-1.521-2.596-2.877-4.152-4.034l-7.257-12.609 8.188-12.979c14.969 6.408 32.226 4.275 45.183-5.585 12.957-9.859 19.616-25.922 17.432-42.0572h-3.687c-3.092-20.4718-20.813-35.5246-41.514-35.2656-20.703.2598-38.041 15.7508-40.619 36.2938"/>
    <path fill="#ffcd00" d="M175.627 116.78c10.697-11.22 11.051-28.7534.814-40.396-10.235-11.6426-27.669-13.5371-40.167-4.3672-12.499 9.1719-15.921 26.3711-7.886 39.6282 8.035 13.257 24.866 18.18 38.78 11.343.658-.323 1.299-.679 1.921-1.067l-3.26-7.217-1.688-3.297-1.844-3.007c-1.393-2.274-3.405-4.104-5.801-5.276l-.446.174c-3.163.879-6.526-.439-8.25-3.232-1.725-2.7926-1.398-6.389.804-8.8238 2.203-2.4344 5.748-3.1219 8.699-1.6863 2.952 1.4355 4.599 4.6492 4.043 7.8847l.506.252c1.115.5566 2.105 1.3359 2.91 2.289.918 1.0864 1.848 2.1584 2.793 3.2194l2.523 3.9 5.297 9.854.252-.175m112.947 8.012c11.825 3.999 24.891.217 32.752-9.48 7.862-9.698 8.86-23.2632 2.5-34.0061-6.359-10.7422-18.73-16.3946-31.013-14.168-12.285 2.2266-21.885 11.8613-24.069 24.1523H292.9c1.907-1.891 4.694-2.5859 7.266-1.8144 2.57.7722 4.514 2.8906 5.063 5.5176.548 2.6289-.385 5.3456-2.432 7.0826l-14.223 22.716"/>
    <path fill="#ffcd00" d="M281.821 121.456l11.992-19.069c-1.54-.92-2.575-2.4913-2.814-4.2686h-22.722c.524 9.4976 5.557 18.1716 13.544 23.3376m-13.854 21.804l5.783-9.079c-12.412-7.898-20.18-21.363-20.801-36.0626h-9.74v1.8433l24.758 43.2983m-23.303-8.031l18.162 14.354-19.21-34.083 1.048 19.729m-21.848-28.012l-36.207 33.036 3.823 8.283h20.392l11.332-19.476.66-21.843m-13.97 48.554h-15.407l6.986 15.133c4.061-.204 7.788 2.244 9.216 6.051l24.08 18.7 8.828-20.135-14.746-6.577c-7.96-1.36-14.905-6.186-18.957-13.172"/>
  </g>
</svg>
