<?xml version="1.0" encoding="UTF-8" standalone="no"?>
<!-- Created with Inkscape (http://www.inkscape.org/) -->

<svg
   xmlns:dc="http://purl.org/dc/elements/1.1/"
   xmlns:cc="http://creativecommons.org/ns#"
   xmlns:rdf="http://www.w3.org/1999/02/22-rdf-syntax-ns#"
   xmlns:svg="http://www.w3.org/2000/svg"
   xmlns="http://www.w3.org/2000/svg"
   xmlns:sodipodi="http://sodipodi.sourceforge.net/DTD/sodipodi-0.dtd"
   xmlns:inkscape="http://www.inkscape.org/namespaces/inkscape"
   width="500"
   height="500"
   id="svg2"
   sodipodi:version="0.32"
   inkscape:version="0.48.4 r9939"
   version="1.0"
   sodipodi:docname="AJAX.svg"
   inkscape:output_extension="org.inkscape.output.svg.inkscape">
  <defs
     id="defs4">
    <inkscape:perspective
       sodipodi:type="inkscape:persp3d"
       inkscape:vp_x="0 : 300.5 : 1"
       inkscape:vp_y="0 : 1000 : 0"
       inkscape:vp_z="601 : 300.5 : 1"
       inkscape:persp3d-origin="300.5 : 200.33333 : 1"
       id="perspective3380" />
    <inkscape:perspective
       id="perspective3990"
       inkscape:persp3d-origin="375 : 250 : 1"
       inkscape:vp_z="750 : 375 : 1"
       inkscape:vp_y="0 : 1000 : 0"
       inkscape:vp_x="0 : 375 : 1"
       sodipodi:type="inkscape:persp3d" />
  </defs>
  <sodipodi:namedview
     id="base"
     pagecolor="#ffffff"
     bordercolor="#666666"
     borderopacity="1.0"
     gridtolerance="10000"
     guidetolerance="10"
     objecttolerance="10"
     inkscape:pageopacity="0.0"
     inkscape:pageshadow="2"
     inkscape:zoom="0.81832973"
     inkscape:cx="224.6564"
     inkscape:cy="281.15913"
     inkscape:document-units="px"
     inkscape:current-layer="layer1"
     width="601px"
     height="601px"
     inkscape:window-width="1280"
     inkscape:window-height="1001"
     inkscape:window-x="-8"
     inkscape:window-y="-8"
     showgrid="false"
     fit-margin-top="0"
     fit-margin-left="0"
     fit-margin-right="0"
     fit-margin-bottom="0"
     inkscape:window-maximized="1"
     showguides="true"
     inkscape:guide-bbox="true" />
  <metadata
     id="metadata7">
    <rdf:RDF>
      <cc:Work
         rdf:about="">
        <dc:format>image/svg+xml</dc:format>
        <dc:type
           rdf:resource="http://purl.org/dc/dcmitype/StillImage" />
        <dc:title />
      </cc:Work>
    </rdf:RDF>
  </metadata>
  <g
     inkscape:label="Layer 1"
     inkscape:groupmode="layer"
     id="layer1"
     transform="translate(2503.2096,3754.6446)">
    <rect
       style="color:#000000;fill:#000000;fill-opacity:1;fill-rule:nonzero;stroke:none;stroke-width:0.8735441;marker:none;visibility:visible;display:inline;overflow:visible"
       id="rect3653"
       width="0"
       height="27.202072"
       x="578.73834"
       y="298.1684"
       rx="249.48199"
       ry="27.202072" />
    <path
       inkscape:connector-curvature="0"
       style="fill:#0c479d;fill-rule:nonzero;stroke:none;fill-opacity:1"
       d="m -2503.2096,-3754.6446 500,0 0,500 -500,0 0,-500 z"
       id="path11" />
    <path
       style="fill:#ffffff;fill-rule:nonzero;stroke:none"
       d="m -2474.0533,-3754.6446 c -7.7361,0 -15.1555,3.0622 -20.625,8.5312 -5.4695,5.4705 -8.5313,12.8894 -8.5313,20.625 l 0,441.6875 c 0,7.7356 3.0618,15.1545 8.5313,20.625 5.4695,5.4691 12.8889,8.5313 20.625,8.5313 l 441.6875,0 c 7.7361,0 15.1555,-3.0622 20.625,-8.5313 5.4695,-5.4705 8.5312,-12.8894 8.5312,-20.625 l 0,-441.6875 c 0,-7.7356 -3.0617,-15.1545 -8.5312,-20.625 -5.4695,-5.469 -12.8889,-8.5312 -20.625,-8.5312 z"
       id="path13"
       inkscape:connector-curvature="0"
       sodipodi:nodetypes="scsscsscsscss" />
    <path
       style="fill:#0c479d;fill-rule:nonzero;stroke:none;fill-opacity:1"
       d="m -2486.2096,-3287.9852 c 0,4.336 1.7169,8.4922 4.7826,11.558 3.0673,3.0658 7.2221,4.7826 11.5581,4.7826 l 433.3187,0 c 4.3358,0 8.4907,-1.7168 11.558,-4.7826 3.0657,-3.0658 4.7826,-7.222 4.7826,-11.558 l 0,-433.3187 c 0,-4.3361 -1.7169,-8.4923 -4.7826,-11.5581 -3.0673,-3.0658 -7.2222,-4.7826 -11.558,-4.7826 l -433.3187,0 c -4.336,0 -8.4908,1.7168 -11.5581,4.7826 -3.0657,3.0658 -4.7826,7.222 -4.7826,11.5581 z"
       id="path15"
       inkscape:connector-curvature="0"
       sodipodi:nodetypes="scsscsscsscss" />
    <path
       inkscape:connector-curvature="0"
       style="fill:#ffffff;fill-rule:nonzero;stroke:none"
       d="m -2222.8281,-3312.9544 0,-154.3136 25.1677,-14.3287 0,168.6423 -25.1677,0 z"
       id="path17" />
    <path
       inkscape:connector-curvature="0"
       style="fill:#ffffff;fill-rule:nonzero;stroke:none"
       d="m -2411.1533,-3416.4563 49.4931,-46.9077 -19.2726,-33.8475 -65.5988,18.6207 35.3783,62.1345 z"
       id="path19" />
    <path
       inkscape:connector-curvature="0"
       style="fill:#ffffff;fill-rule:nonzero;stroke:none"
       d="m -2069.0497,-3594.4883 c 5.0461,8.8649 1.952,20.142 -6.913,25.1912 l -234.538,133.535 c -8.8635,5.0461 -20.142,1.9521 -25.1897,-6.9144 l -49.7784,-87.427 c -2.423,-4.2584 -3.0575,-9.3031 -1.7612,-14.0273 1.2977,-4.7244 4.4168,-8.7386 8.673,-11.164 l 234.5377,-133.5341 c 8.8635,-5.0471 20.1436,-1.9523 25.1898,6.9117 l 49.7798,87.4289 z"
       id="path21" />
  </g>
</svg>
