<?xml version="1.0" encoding="UTF-8" standalone="no"?>
<svg
   xmlns:dc="http://purl.org/dc/elements/1.1/"
   xmlns:cc="http://creativecommons.org/ns#"
   xmlns:rdf="http://www.w3.org/1999/02/22-rdf-syntax-ns#"
   xmlns:svg="http://www.w3.org/2000/svg"
   xmlns="http://www.w3.org/2000/svg"
   xmlns:sodipodi="http://sodipodi.sourceforge.net/DTD/sodipodi-0.dtd"
   xmlns:inkscape="http://www.inkscape.org/namespaces/inkscape"
   width="1010.3999"
   height="1010.4001"
   viewBox="-50 -30 101.03981 101.04002"
   id="svg2"
   version="1.1"
   inkscape:version="0.48.4 r9939"
   sodipodi:docname="AJAX.svg">
  <metadata
     id="metadata14">
    <rdf:RDF>
      <cc:Work
         rdf:about="">
        <dc:format>image/svg+xml</dc:format>
        <dc:type
           rdf:resource="http://purl.org/dc/dcmitype/StillImage" />
        <dc:title />
      </cc:Work>
    </rdf:RDF>
  </metadata>
  <defs
     id="defs12" />
  <sodipodi:namedview
     pagecolor="#ffffff"
     bordercolor="#666666"
     borderopacity="1"
     objecttolerance="10"
     gridtolerance="10"
     guidetolerance="10"
     inkscape:pageopacity="0"
     inkscape:pageshadow="2"
     inkscape:window-width="1280"
     inkscape:window-height="1001"
     id="namedview10"
     showgrid="false"
     fit-margin-top="0.2"
     fit-margin-left="0.2"
     fit-margin-right="0.2"
     fit-margin-bottom="0.2"
     inkscape:zoom="0.45254834"
     inkscape:cx="451.85573"
     inkscape:cy="358.62389"
     inkscape:window-x="-8"
     inkscape:window-y="-8"
     inkscape:window-maximized="1"
     inkscape:current-layer="svg2"
     showguides="true"
     inkscape:guide-bbox="true"
     inkscape:showpageshadow="true"
     borderlayer="false"
     showborder="true" />
  <path
     sodipodi:nodetypes="sssss"
     style="fill:#0c479d;fill-opacity:1;stroke:none"
     d="m 0.51993727,-29.98 c -27.89042027,0 -50.50003327,22.609618 -50.50003327,50.500028 0,27.890357 22.609612,50.499992 50.50003327,50.499992 C 28.410286,71.02002 51.019907,48.410385 51.019907,20.520028 51.019907,-7.370382 28.410284,-29.98 0.51993727,-29.98 z"
     id="path3986"
     inkscape:connector-curvature="0" />
  <path
     sodipodi:nodetypes="sssss"
     style="fill:#ffffff;fill-opacity:1;stroke:none"
     d="m 0.51994327,-29.479971 c -27.61427027,0 -50.00001927,22.38575 -50.00001927,50.000007 0,27.61421 22.385749,49.99998 50.00001927,49.99998 27.61419873,0 49.99995373,-22.38577 49.99995373,-49.99998 0,-27.614257 -22.385756,-50.000007 -49.99995373,-50.000007 z"
     id="path3988"
     inkscape:connector-curvature="0" />
  <path
     inkscape:connector-curvature="0"
     id="path3990"
     d="m 0.51990427,-27.147396 c 26.32601173,0 47.66742273,21.341415 47.66742273,47.667422 0,26.32596 -21.341412,47.66739 -47.66742273,47.66739 -26.32595527,0 -47.66738027,-21.34143 -47.66738027,-47.66739 0,-26.326007 21.341426,-47.667422 47.66738027,-47.667422 z"
     style="fill:#0c479d;fill-opacity:1;stroke:none"
     sodipodi:nodetypes="sssss" />
  <path
     inkscape:connector-curvature="0"
     style="fill:#ffffff;fill-rule:nonzero;stroke:none"
     d="m 8.5544549,29.528249 2.5988221,-0.170205 c 0.939576,7.065335 7.086515,12.265043 14.210048,12.01986 7.123554,-0.245183 12.898299,-5.855294 13.349565,-12.968549 l 0.6059,0.04586 c 0.25518,-3.987376 -1.15095,-7.902959 -3.885008,-10.817519 -2.733764,-2.913973 -6.55146,-4.567344 -10.5473,-4.567344 -2.24515,0 -4.460337,0.523287 -6.468535,1.527841 L 14.463852,7.7495219 15.93053,4.4551304 19.944904,2.6256608 C 20.520221,2.3634222 20.835372,1.7360558 20.702491,1.1178093 20.56961,0.4995628 20.02428,0.0574052 19.391906,0.0547652 16.071362,-0.0563641 12.749027,-0.1060339 9.4267189,-0.0945839 8.9695605,-0.1140839 8.5603338,0.1864645 8.4415645,0.628322 8.3230292,1.0704795 8.5271745,1.5352669 8.9325187,1.7475256 10.674976,2.7038603 12.459746,3.5816954 14.280994,4.3781009 l -1.438481,3.2308918 -25.064482,0 1.870922,-4.6308439 c -0.642063,-1.068344 -0.575927,-2.4180264 0.166749,-3.4187508 0.7431248,-1.0007544 2.0160778,-1.4543718 3.2240722,-1.1491836 l 0.01176,0.003 2.7123037,0.6895961 0.7452398,0.189469 0.3792399,-1.4911516 -0.7455459,-0.1895089 -2.7231686,-0.6924561 -0.0047,-4.7e-4 c -1.6668913,-0.4208676 -3.4301681,0.1200193 -4.5740501,1.4036021 -1.144772,1.2834828 -1.48022,3.0967825 -0.871673,4.7051635 l -4.908372,12.1483405 c -2.206058,-1.341452 -4.731664,-2.067887 -7.313799,-2.103757 l 0,0.607666 c -6.561243,-0.0948 -12.289081,4.426985 -13.720543,10.830851 -1.431142,6.404225 1.827099,12.93392 7.804676,15.64152 5.977607,2.707304 13.034766,0.850203 16.904475,-4.44946 l 0.491547,0.356898 C -8.1452842,29.7215 -9.4173442,20.848979 -15.639469,16.066435 l 0.840204,-2.080228 15.19277837,13.207022 c -0.6835272,1.411423 -0.5462239,3.08302 0.358661,4.363617 0.90547333,1.280598 2.43506473,1.968228 3.99377193,1.795366 l 0.9016629,2.949549 -0.9463486,0 0,1.538422 3.9232378,0 0,-1.538422 -1.3682053,0 -1.0363081,-3.389644 c 1.3005886,-0.66029 2.1790157,-1.933538 2.3339569,-3.383765 z"
     id="path19" />
  <path
     inkscape:connector-curvature="0"
     style="fill:#0c479d;fill-opacity:1;fill-rule:nonzero;stroke:none"
     d="m -19.252317,25.007878 c -0.860786,2.092878 -2.938833,3.424337 -5.199981,3.332026 -0.274179,0 -0.527377,-0.146405 -0.664046,-0.384238 -0.13688,-0.237836 -0.13618,-0.530351 0.002,-0.767009 0.137819,-0.237246 0.391587,-0.382473 0.665796,-0.381297 1.541961,0.09055 2.988643,-0.749956 3.673059,-2.134624 l 2.744345,-6.792221 c -5.201021,-3.460201 -12.208412,-2.176668 -15.845621,2.902215 -3.637179,5.078587 -2.596186,12.125991 2.354187,15.936033 4.950072,3.810337 12.029152,3.012462 16.007939,-1.803596 3.978507,-4.816058 3.425512,-11.918439 -1.250892,-16.060389 l -2.486526,6.15457 0,-0.0014 z"
     id="path21" />
  <path
     inkscape:connector-curvature="0"
     style="fill:#0c479d;fill-opacity:1;fill-rule:nonzero;stroke:none"
     d="m 24.93124,25.878955 c 0.768758,0.02046 1.422299,0.568567 1.576041,1.322638 0.153813,0.753485 -0.232601,1.51373 -0.931626,1.834173 -0.699402,0.320443 -1.527263,0.116111 -1.997638,-0.492425 L 13.416446,29.20951 c 0.72466,4.958348 4.553824,8.889511 9.491003,9.744712 4.937463,0.855791 9.865537,-1.558118 12.216828,-5.983176 2.350996,-4.425353 1.592221,-9.860251 -1.88062,-13.472736 -3.472548,-3.612484 -8.873645,-4.584689 -13.38777,-2.410091 l 5.075353,8.790736 z"
     id="path23" />
  <path
     inkscape:connector-curvature="0"
     style="fill:#0c479d;fill-opacity:1;fill-rule:nonzero;stroke:none"
     d="m 23.548337,26.560705 -5.031561,-8.71429 c -3.302038,2.171954 -5.270254,5.877044 -5.221452,9.829375 l 10.019282,-0.656762 0.233778,-0.458323 z"
     id="path25" />
  <path
     inkscape:connector-curvature="0"
     style="fill:#0c479d;fill-opacity:1;fill-rule:nonzero;stroke:none"
     d="m 13.690438,9.486662 3.390231,5.871467 c -3.397287,2.178717 -5.729763,5.677427 -6.433868,9.651219 -0.166984,0.941928 -0.239892,1.897965 -0.217785,2.854301 L 8.4422695,27.993872 C 8.169452,26.93817 7.5068108,26.025642 6.5881199,25.438849 L 13.519691,9.8702999 13.690438,9.486652 z"
     id="path27" />
  <path
     inkscape:connector-curvature="0"
     style="fill:#0c479d;fill-opacity:1;fill-rule:nonzero;stroke:none"
     d="m 4.086239,21.993653 0,-1.538716 -3.92262733,0 0,1.538716 1.11008713,0 0.9974784,3.261467 c -0.352476,0.184928 -0.6773411,0.417458 -0.9660336,0.691452 l -15.4941716,-13.468907 1.344992,-3.330261 25.00133,0 -6.9938951,15.708779 C 4.6956816,24.757403 4.2141342,24.736825 3.739643,24.795903 l -0.8566722,-2.802263 1.2032682,0 z"
     id="path29" />
</svg>
