<svg xmlns="http://www.w3.org/2000/svg" width="1010.4" height="1010.4" version="1">
  <path d="M714.378 1010.2H296.022L.2 714.378V296.022L296.022.2h418.356L1010.2 296.022v418.356z"/>
  <path d="M1005.2 712.307L712.307 1005.2H298.093L5.2 712.307V298.093L298.093 5.2h414.214L1005.2 298.093z" fill="#fff"/>
  <path d="M960.2 693.667L693.667 960.2H316.733L50.2 693.667V316.733L316.733 50.2h376.934L960.2 316.733z" fill="#ce252c"/>
  <path d="M367.24 410.756h-67.777v-38.89h173.335v38.89H406.13v227.776h-38.89V410.756zm378.89 227.776V371.866h86.665c26.2 0 50.41 13.976 63.51 36.667 13.1 22.688 13.1 50.64 0 73.333-13.1 22.69-37.31 36.667-63.51 36.667h-47.778v120H746.13zM503.91 553.53c0 47.56 38.552 86.112 86.108 86.112 47.56 0 86.113-38.553 86.113-86.11v-96.666c0-47.557-38.55-86.11-86.11-86.11-47.556 0-86.11 38.553-86.11 86.11v96.665zm-339.818-86.845c1.912 1.42 4.012 2.57 6.236 3.422l68.026 28.98c13.978 7.39 24.392 20.097 28.888 35.258 7.744 29.342-.962 60.582-22.767 81.688-21.808 21.106-53.314 28.788-82.39 20.09-29.073-8.7-51.183-32.42-57.815-62.035l37.444-11.113c2.65 16.306 14.022 29.845 29.622 35.278 15.6 5.43 32.924 1.876 45.126-9.257 12.202-11.134 17.323-28.057 13.34-44.093-1.25-3.85-3.652-7.23-6.878-9.683-1.015-.706-2.093-1.31-3.224-1.807l-64.09-27.31c-5.235-2.08-10.177-4.836-14.7-8.194-1.023-.814-2.03-1.64-3.022-2.49-21.847-19.887-29.252-51.145-18.65-78.72 10.602-27.574 37.038-45.818 66.58-45.945 29.543-.13 56.136 17.884 66.98 45.363l-35.556 15.98c-4.325-13.04-16.322-21.998-30.052-22.44-13.73-.444-26.283 7.723-31.44 20.456-5.157 12.732-1.826 27.33 8.342 36.568z" fill="#fff"/>
  <path d="M637.24 553.53v-96.664c0-26.078-21.14-47.223-47.222-47.223-26.078 0-47.223 21.145-47.223 47.223v96.665c0 26.08 21.145 47.224 47.223 47.224 26.082 0 47.223-21.14 47.223-47.22zm196.112-73.887c19.022 0 34.445-15.42 34.445-34.444 0-19.028-15.423-34.446-34.445-34.446h-48.335v68.887h48.335z" fill="#ce252c"/>
</svg>
