<?xml version="1.0" encoding="utf-8"?>
<!DOCTYPE svg PUBLIC "-//W3C//DTD SVG 1.1//EN" "http://www.w3.org/Graphics/SVG/1.1/DTD/svg11.dtd">
<svg xmlns="http://www.w3.org/2000/svg" width="608.37335" height="540.03998">
  <g transform="matrix(1.33333 0 0 -1.33333 0 540.04)">
    <path fill="#e4002b" d="M36.8508 0C23.6852 0 11.5195 7.02344 4.93711 18.4258c-6.58242 11.4012-6.58242 25.4492 0 36.8496L196.229 386.602c6.583 11.402 18.748 18.425 31.913 18.425 13.166 0 25.331-7.023 31.914-18.425L451.347 55.2754c6.582-11.4004 6.582-25.4484 0-36.8496C444.764 7.02344 432.599 0 419.432 0H36.8508"/>
    <path fill="#ffcd00" d="M46.6699 42.5195H409.614L228.142 356.838 46.6699 42.5195"/>
    <path d="M374.933 66.7082v-5.4699H81l.6781 2.5957c.9367 3.582 1.9942 7.1328 3.1707 10.6433.9973 2.9778 2.3231 5.8364 3.952 8.5207 1.0168 1.6778 2.0586 3.3379 3.1262 4.9844.182.2805.43.5137.7226.6778l.6336 1.1347 2.4039 5.2039c.6129 1.3274 1.3379 2.6008 2.1676 3.8039.7226 1.0489 1.4949 2.0623 2.3153 3.0373 1.626 1.933 3.096 3.994 4.394 6.162 1.311 2.188 2.858 4.225 4.616 6.074.741.78 1.579 1.464 2.492 2.034 1.053.658 1.913 1.585 2.492 2.683 1.324 2.516 2.932 4.869 4.792 7.018 2.528 2.92 6.497 4.15 10.234 3.169 1.897-.496 3.735-1.193 5.485-2.078 3.169-1.601 6.122-3.597 8.789-5.941l1.858.898c7.876 3.813 15.519 8.091 22.886 12.813l3.45-1.225 3.982 3.362 2.182 2.388 4.158 3.037c5.075 3.705 10.527 6.864 16.265 9.42l3.348 2.993 5.309 5.042c.572.545.99 1.232 1.209 1.991.584 2.024.949 4.105 1.091 6.207.19 2.818.342 5.638.457 8.461.091 2.243.274 4.481.545 6.709.42 3.428.587 6.882.502 10.334-.028 1.145-.058 2.29-.089 3.435-.019.729-.239 1.437-.633 2.049l-3.539 7.608-4.793 8.197c-1.075 1.837-1.696 3.904-1.814 6.029-.116 2.097.053 4.2.501 6.251.181.823.438 1.628.768 2.403.309.728.22 1.565-.237 2.212-.343.487-.959.706-1.533.545-1.415-.395-2.933-.052-4.041.914-2.455 2.142-4.221 4.964-5.072 8.109-.334 1.232-.697 2.455-1.092 3.671-.269.834-.771 1.575-1.444 2.137-1.364 1.137-2.333 2.674-2.773 4.393-.463 1.812-.478 3.71-.044 5.529.504 2.115 1.659 4.017 3.303 5.44 1.66 1.437 3.591 2.53 5.677 3.214 2.232.731 4.52 1.273 6.842 1.621 1.252.188 2.529-.018 3.658-.589 1.396-.707 2.708-1.573 3.907-2.58 1.228-1.031 2.15-2.377 2.669-3.892.494-1.443.918-2.909 1.268-4.394.224-.947.421-1.9.59-2.859.37-2.096 1.124-4.106 2.227-5.927.53-.876 1.06-1.75 1.593-2.624.652-1.073 1.683-1.862 2.89-2.212 1.223-.354 2.513-.405 3.76-.147 2.082.43 4.19.721 6.311.869 1.725.121 3.428.453 5.073.988 3.179 1.035 6.38 2.003 9.599 2.905 1.962.549 4.018.675 6.032.368 10.194-1.55 20.005-5.011 28.917-10.202.917-.534 1.822-1.089 2.713-1.666 1.291-.834 2.302-2.035 2.905-3.449.67-1.573 1.097-3.238 1.268-4.939.435-4.343.946-8.678 1.534-13.003.439-3.24 1.883-6.261 4.129-8.639.599-.636 1.285-1.187 2.035-1.636 1.558-.936 2.877-2.224 3.848-3.76 1.111-1.758.745-4.068-.855-5.396-.901-.748-1.859-1.428-2.86-2.034-.761-.46-1.611-.751-2.493-.855-.431-.051-.768-.395-.811-.826l.811-18.649.133-15.348-.265-7.385.132-6.339-.398-5.795-.723-6.928c-.551-5.283-.427-10.613.369-15.863.411-2.712.559-5.457.442-8.197l.133-8.3305-.177-9.6114-.28-8.875.148-4.2168c.053-1.541 1.303-2.7715 2.846-2.8008l.677.0442 3.805 3.1258c.695.5703 1.024 1.4746.856 2.3582-.16.8371-.263 1.6847-.31 2.5363-.042.7469.218 1.4805.722 2.0332.407.4473.879.8301 1.401 1.1356l2.403 1.0468 2.538 1.3567c2.267 1.2129 4.398 2.666 6.355 4.334.424.3613.846.7253 1.268 1.0917.877.7618 2.008 1.1661 3.17 1.1348 1.501-.041 2.962-.5 4.218-1.3273 1.058-.6961 1.893-1.6844 2.403-2.8446 3.353-7.6211 8.444-14.3515 14.865-19.6523 1.207-.9981 2.666-1.6445 4.217-1.8731l32.574-.1023"/>
    <path fill="#ffcd00" d="M145.882 117.703l1.637.279 4.483.973c2.975.647 5.883 1.569 8.686 2.758 1.966.833 3.936 1.654 5.913 2.462 2.496 1.02 4.781 2.495 6.738 4.348l3.2 2.668 2.699 2.729 1.71 1.459 2.05 1.489 1.814 1.327 2.359 1.415 1.682.884 1.813.93 1.843.914 1.991 1.002 1.46.781 1.401.811 1.253.738 2.788 1.135 5.425-14.905.207-.605.075-.561 2.137-7.06 1.784-7.283 1.357-4.674.944-3.406 1.916-8.8149.59-2.7578c.301-1.4043.973-2.7031 1.947-3.7586.368-.3996.809-.7238 1.297-.9582 1.294-.6192 2.731-.8789 4.159-.752.826.0723 1.636-.2636 2.167-.8996 1.12-1.3386 1.844-2.9617 2.094-4.6883.059-.3984-.008-.8046-.191-1.164l-2.33-3.7891-.516-.7078-5.294-2.9934c-.471-.2656-.733-.7898-.663-1.3261l.486-1.7539-1.814.4277c-3.811.8973-7.756 1.082-11.634.5449-2.845-.3945-5.669-.9211-8.464-1.5781-3.013-.707-6.093-1.1027-9.187-1.1797-2.091-.0508-4.178.207-6.194.7676-.91.2519-1.83.4687-2.757.6484-1.809.3496-3.465 1.2578-4.733 2.5946-1.107 1.1671-2.228 2.3222-3.363 3.464l-2.654 3.8778-1.651 2.5656-1.696 2.4914-1.577 2.2703-2.434 3.7305-1.105 1.8574-1.682 3.3906-1.238 2.7557-.841 1.653-.723 1.326c-2.46 4.517-5.621 8.619-9.364 12.148m81.486-44.7889l7.95 5.3379.412.2793 1.459.4433 2.965.7363 5.736 3.4063-.295 1.1191c-.534 2.0313-1.44 3.9453-2.669 5.6465-1.075 1.4883-2.017 3.0664-2.817 4.7188-.598 1.2363-.944 2.5789-1.017 3.9511-.241 4.5043-.978 8.9683-2.197 13.3123-1.402 4.99-2.986 9.927-4.749 14.801-.764 2.112-1.264 4.311-1.489 6.546-.05.495-.069.991-.058 1.489.006.338.126.665.339.928l1.769 1.578 2.034 1.637 1.962 1.71 2.36 2.123 1.503 1.562 6.445 7.107.869 1.09.369.546c.408.602.841 1.188 1.298 1.754.233.289.519.535.841.723l2.669 1.592 1.901.796c.66.276 1.42.156 1.962-.31.821-.705 1.396-1.656 1.637-2.713l.324-3.537.428-3.348.899-6.869c.408-3.117.423-6.271.045-9.391-.271-2.233-.004-4.497.781-6.605.418-1.125.916-2.219 1.489-3.273 1.486-2.735 2.617-5.647 3.363-8.668.518-2.102.82-4.25.899-6.414.13-3.567.584-7.1143 1.357-10.5999.396-1.789.769-3.582 1.121-5.3808.074-.382.308-.7141.644-.9113.336-.1969.741-.2411 1.11-.12l1.474-.0293c.366-.0078.684-.2539.782-.6054.828-2.9422.848-6.0547.059-9.0078-.371-1.3887-1.411-2.5-2.772-2.9629-1.16-.3946-2.355-.6758-3.569-.8399-1.152-.1562-2.089-1.0058-2.359-2.1387-.113-.4773-.168-.9675-.162-1.4589.012-1.0301-.672-1.9395-1.666-2.211-.976-.2676-1.973-.4504-2.979-.5461-1.509-.1433-3.013-.325-4.512-.5457l-4.704-.1328-5.397.2219-4.424.6922-2.728.664-4.262.8692-2.934.5762-3.496.6621m33.71 153.4569l3.186-.06 2.757-.294 4.306-.841c.237-.046.436-.206.53-.428l1.166-2.535.797-1.887.574-1.563.944-2.123 1.431-2.978.914-1.636 1.017-2.492.988-2.919.501-2.152.221-.84c.135-.513.023-1.059-.305-1.476-.326-.417-.83-.657-1.361-.647-.361.006-.714.113-1.017.309l-2.094 2.05-2.183 2.299-1.254 1.474-1.031 1.563-.782 1.475c-.634 1.196-1.19 2.432-1.666 3.7l-2.847 3.302-3.597 3.937-2.92 2.875c-.082.08-.123.194-.112.309.012.114.075.217.171.28l.841.973c.205.238.514.359.825.325"/>
    <path fill="none" stroke="#231f20" stroke-linecap="round" stroke-linejoin="round" stroke-width=".17640001" d="M220.63 169.066c.022-.267.203-.494.457-.576"/>
    <path fill="#ffcd00" d="M221.087 168.49c.356-.113.745-.002.988.281 1.219 1.422 2.399 2.877 3.539 4.364.799 1.041 1.557 2.113 2.271 3.213.606.933 1.226 1.857 1.858 2.773.628.907 1.209 1.847 1.741 2.815.779 1.423 1.537 2.858 2.27 4.305.609 1.201 1.046 2.481 1.298 3.804.143.752.311 1.499.501 2.241.104.404.159.82.162 1.238.006.675-.241 1.327-.692 1.828l-1.608 1.784-1.931 1.548c-.428.411-1.022.602-1.609.518-.587-.083-1.104-.432-1.4-.946l-1.224-2.123c-.278-.628-.462-1.294-.546-1.975-.02-1.254-.159-2.502-.413-3.73-.347-1.682-.701-3.363-1.062-5.042-.709-3.317-1.611-6.591-2.698-9.804l-.693-2.049-.943-2.625c-.227-.586-.318-1.215-.266-1.842.022-.267.203-.494.457-.576"/>
  </g>
</svg>
