<?xml version="1.0" encoding="UTF-8" standalone="no"?>
<svg
   width="806.87"
   height="716.5"
   fill-rule="evenodd"
   version="1.1"
   id="svg12"
   sodipodi:docname="Sweden_road_sign_A40.svg"
   inkscape:version="1.1.1 (3bf5ae0d25, 2021-09-20)"
   xmlns:inkscape="http://www.inkscape.org/namespaces/inkscape"
   xmlns:sodipodi="http://sodipodi.sourceforge.net/DTD/sodipodi-0.dtd"
   xmlns="http://www.w3.org/2000/svg"
   xmlns:svg="http://www.w3.org/2000/svg">
  <defs
     id="defs16" />
  <sodipodi:namedview
     id="namedview14"
     pagecolor="#ffffff"
     bordercolor="#111111"
     borderopacity="1"
     inkscape:pageshadow="0"
     inkscape:pageopacity="0"
     inkscape:pagecheckerboard="1"
     showgrid="false"
     inkscape:zoom="0.70957401"
     inkscape:cx="274.10812"
     inkscape:cy="233.23853"
     inkscape:window-width="1920"
     inkscape:window-height="1057"
     inkscape:window-x="-8"
     inkscape:window-y="-8"
     inkscape:window-maximized="1"
     inkscape:current-layer="svg12" />
  <path
     d="M66.019,715.461 9.727,617.961 347.143,33.539 459.727,33.539 797.143,617.961 740.851,715.461"
     fill="#e42b38"
     stroke="none"
     id="path2" />
  <circle
     cx="66.019"
     cy="650.461"
     r="65"
     fill="#e42b38"
     stroke="none"
     id="circle4" />
  <circle
     cx="403.435"
     cy="66.039"
     r="65"
     fill="#e42b38"
     stroke="none"
     id="circle6" />
  <circle
     cx="740.851"
     cy="650.461"
     r="65"
     fill="#e42b38"
     stroke="none"
     id="circle8" />
  <path
     d="M83.339,640.461 403.435,86.039 723.531,640.461"
     fill="#fed300"
     stroke="none"
     id="path10" />
  <path
     id="path3172"
     style="fill:#000000;fill-opacity:1;fill-rule:nonzero;stroke:none;stroke-width:0.176386"
     d="m 393.49759,194.22547 c -5.4558,0.27077 -10.8896,1.39332 -16.09961,3.37891 -25.4326,11.68552 -38.89193,39.88154 -31.99023,67.01953 -12.73482,14.10272 -16.93345,33.95892 -10.99805,52.01563 -2.45281,-0.67039 -5.04171,-0.67039 -7.49804,0 -12.69781,2.30434 -23.8979,9.71668 -30.98828,20.50586 -15.00777,4.46395 -25.6072,17.86674 -26.49414,33.50976 -11.74912,5.40963 -21.0282,15.05569 -25.99024,27.00586 v 59.5 h -19 v 69.5 h -14 v -9 h -3.5 c -1.385,0 -2.5,1.115 -2.5,2.5 v 24 c 0,1.385 1.115,2.5 2.5,2.5 h 3.5 v -10 h 14 v 10 h 358.00002 v -10 h 14 v 10 h 3.5 c 1.385,0 2.5,-1.115 2.5,-2.5 v -24 c 0,-1.385 -1.115,-2.5 -2.5,-2.5 h -3.5 v 9 h -14 v -59.5 h 10 v -10 h -30 v 10 h 10 v 50.5 h -39.5 v -55 h 4.5 v -5.5 h -15 v -49.5 h 30 v -15 h -45 v 64.5 H 463.439 v -17.5 c 0,-8.587 -6.913,-15.5 -15.5,-15.5 -8.587,0 -15.5,6.913 -15.5,15.5 v 17.5 h -49 v -30.5 h -59 v 30.5 h -51 l -0.01,-61.5 c 7.50476,-4.47097 13.03977,-11.61979 15.4961,-20.00586 16.64768,5.09554 34.72898,-0.21456 45.98437,-13.50391 19.28033,6.29878 40.20041,-2.98163 48.48633,-21.50585 10.05986,3.75806 21.24397,3.07142 30.76953,-1.88477 9.52908,-4.9579 16.50989,-13.72381 19.21485,-24.12305 5.7767,-1.34098 11.12539,-4.11143 15.55664,-8.05664 2.14775,-1.89493 4.18829,-3.90639 6.11914,-6.02539 2.89364,-3.02766 5.44072,-6.36652 7.59375,-9.95703 3.45439,-5.59133 6.09609,-11.64456 7.84179,-17.98047 4.26376,-17.41624 -6.26222,-35.02588 -23.61523,-39.50391 -3.85818,-14.36736 -13.61651,-26.42891 -26.85742,-33.19531 -8.27556,-4.23012 -17.42848,-6.14463 -26.52149,-5.69336 z"
     sodipodi:nodetypes="sccccccccccccssssccccccccsssscccccccccccccccccccccsssccccccccccccccccccs" />
  <rect
     style="fill:#000000;fill-rule:evenodd;stroke:none;stroke-width:5.70076"
     id="rect437"
     width="398"
     height="5"
     x="204.43903"
     y="599.16101" />
  <circle
     style="fill:#000000;fill-rule:evenodd;stroke:none;stroke-width:10.6517"
     id="path1147"
     cx="300.439"
     cy="572.66101"
     r="29.5" />
  <circle
     style="fill:#000000;fill-rule:evenodd;stroke:none;stroke-width:10.6517"
     id="circle2450"
     cx="368.439"
     cy="572.66101"
     r="29.5" />
  <circle
     style="fill:#000000;fill-rule:evenodd;stroke:none;stroke-width:10.6517"
     id="circle2551"
     cx="436.439"
     cy="572.66101"
     r="29.5" />
  <circle
     style="fill:#000000;fill-rule:evenodd;stroke:none;stroke-width:10.6517"
     id="circle2652"
     cx="504.439"
     cy="572.66101"
     r="29.5" />
  <circle
     style="fill:#000000;fill-rule:evenodd;stroke:none;stroke-width:14.4658"
     id="circle9497"
     cx="353.939"
     cy="435.66101"
     r="22" />
</svg>
