<svg xmlns="http://www.w3.org/2000/svg" width="570.80585" height="506.68124" version="1">
  <path d="M285.40293.2c-16.4564 0-31.67743 8.7797-39.90625 23.0313L6.3717 437.38748c-8.2289 14.2519-8.2289 31.80945 0 46.06255 8.2275 14.2518 23.4497 23.0312 39.9062 23.0312h478.24998c16.4566 0 31.6788-8.7794 39.9063-23.0312 8.2289-14.2531 8.2289-31.81066 0-46.06255L325.30918 23.2313C317.08038 8.9797 301.85933.2 285.40293.2z" fill="#ce252c"/>
  <path d="M512.24488 453.33127L285.40272 60.43014 58.5606 453.33127h453.68428z" fill="#ffd100"/>
  <path d="M247.75612 334.61124l-4.8351 18.0414c-2.115 7.8964 2.5712 16.0115 10.4651 18.1266H129.6072v47.48672h165.32812v-47.48672h-33.8866c5.1626-1.3839 9.1788-5.4439 10.5051-10.6215l2.5126-9.3738 27.5178 7.3738 32.7104 8.7639 27.5178 7.3738-2.5539 9.53138c-2.115 7.89384 2.5701 16.00894 10.4652 18.1252 7.8964 2.11504 16.0114-2.57002 18.1265-10.4651l4.835-18.04268 10.6227-18.3977c6.0562-11.9977 5.0037-26.3578-2.7389-37.3443l-8.4213-36.4766c-.98-4.2438-3.7213-7.8701-7.5376-9.9701-24.164-13.2964-51.1918-20.539-78.7659-21.1065-4.355-.089-8.5426 1.6813-11.5139 4.8675l-25.5315 27.3778c-12.1989 5.6439-20.2902 17.5527-21.0427 30.9729v21.244z"/>
  <path d="M286.13902 286.24944l97.4873 26.1216-6.3412-27.4578c-21.9616-12.399-46.7081-19.0302-71.9272-19.2741l-19.2189 20.6103z" fill="#ffd100"/>
  <path d="M414.24422 408.1746c0-4.59005-3.7213-8.3101-8.3113-8.3101-4.5889 0-8.3089 3.72005-8.3089 8.3101 0 4.5888 3.72 8.3101 8.3089 8.3101 4.59 0 8.3113-3.7213 8.3113-8.3101zm8.9039-20.77524c0-4.59005-3.7214-8.30892-8.3114-8.30892-4.5901 0-8.3088 3.71887-8.3088 8.30892 0 4.5888 3.7187 8.3101 8.3088 8.3101 4.59 0 8.3114-3.7213 8.3114-8.3101zm-63.8096 14.83892c0-3.77005-3.0562-6.82632-6.8262-6.82632-3.7701 0-6.8264 3.05627-6.8264 6.82632s3.0563 6.82632 6.8264 6.82632c3.77 0 6.8262-3.05627 6.8262-6.82632z"/>
  <path d="M356.66732 387.39936c0-4.59005-3.72-8.30892-8.3101-8.30892-4.5888 0-8.3101 3.71887-8.3101 8.30892 0 4.5888 3.7213 8.3101 8.3101 8.3101 4.5901 0 8.3101-3.7213 8.3101-8.3101zm-32.3492 9.4976c0-3.7713-3.0562-6.82632-6.8262-6.82632-3.7689 0-6.8264 3.05504-6.8264 6.82633 0 3.7688 3.0575 6.82508 6.8264 6.82508 3.77 0 6.8262-3.0563 6.8262-6.82508z"/>
  <path d="M338.26582 387.39936c0-4.59005-3.72-8.30892-8.3088-8.30892-4.59 0-8.3089 3.71887-8.3089 8.30892 0 4.5888 3.7189 8.3101 8.3089 8.3101 4.5888 0 8.3088-3.7213 8.3088-8.3101zm-22.5553 20.77524c0-4.59005-3.72-8.3101-8.3087-8.3101-4.5901 0-8.3101 3.72005-8.3101 8.3101 0 4.5888 3.72 8.3101 8.3101 8.3101 4.5887 0 8.3087-3.7213 8.3087-8.3101zm-3.56-19.58898c0-4.5888-3.7212-8.30884-8.3113-8.30884-4.5888 0-8.3101 3.72005-8.3101 8.30884 0 4.59006 3.7213 8.31135 8.3101 8.31135 4.5901 0 8.3113-3.7213 8.3113-8.31135zm32.0517 19.58898c0-4.59005-3.7201-8.3101-8.3089-8.3101-4.5901 0-8.3101 3.72005-8.3101 8.3101 0 4.5888 3.72 8.3101 8.3101 8.3101 4.5888 0 8.3089-3.7213 8.3089-8.3101zm59.6532-17.8077c0-3.7688-3.0551-6.82633-6.8251-6.82633-3.7701 0-6.8264 3.05754-6.8264 6.82633 0 3.77004 3.0563 6.82633 6.8264 6.82633 3.77 0 6.8251-3.0563 6.8251-6.82633zm-27.6004 19.31647c0-3.7688-3.0563-6.82633-6.8263-6.82633-3.7701 0-6.8263 3.05754-6.8263 6.82633 0 3.7713 3.0562 6.82633 6.8263 6.82633 3.77 0 6.8263-3.05504 6.8263-6.82633zm19.2915-1.50877c0-3.77004-3.0563-6.82633-6.8251-6.82633-3.7713 0-6.8263 3.0563-6.8263 6.82633 0 3.77005 3.055 6.82508 6.8263 6.82508 3.7688 0 6.8251-3.05503 6.8251-6.82508zm50.7493 0c0-4.59005-3.7188-8.3101-8.3089-8.3101-4.59 0-8.3112 3.72005-8.3112 8.3101 0 4.5888 3.7212 8.3101 8.3112 8.3101 4.5901 0 8.3089-3.7213 8.3089-8.3101zm-17.5102-5.93632c0-3.77005-3.055-6.82632-6.825-6.82632-3.7701 0-6.8251 3.05627-6.8251 6.82632s3.055 6.82632 6.8251 6.82632c3.77 0 6.825-3.05627 6.825-6.82632zm15.1364-14.83892c0-4.59005-3.7212-8.30892-8.3101-8.30892-4.5887 0-8.3088 3.71887-8.3088 8.30892 0 4.5888 3.7201 8.3101 8.3088 8.3101 4.5889 0 8.3101-3.7213 8.3101-8.3101z"/>
</svg>
