<?xml version="1.0" encoding="utf-8"?>
<!DOCTYPE svg PUBLIC "-//W3C//DTD SVG 1.1//EN" "http://www.w3.org/Graphics/SVG/1.1/DTD/svg11.dtd">
<svg xmlns="http://www.w3.org/2000/svg" width="608.37335" height="540.03998">
  <g transform="matrix(1.33333 0 0 -1.33333 0 540.04)">
    <path fill="#e4002b" d="M36.8508 0C23.6852 0 11.5195 7.02344 4.93711 18.4246c-6.58242 11.4027-6.58242 25.4496 0 36.8508L196.228 386.602c6.583 11.402 18.748 18.425 31.914 18.425 13.165 0 25.33-7.023 31.913-18.425L451.347 55.2754c6.582-11.4012 6.582-25.4481 0-36.8508C444.763 7.02344 432.599 0 419.433 0H36.8508"/>
    <path fill="#ffcd00" d="M46.6699 42.5195H409.614L228.142 356.838 46.6699 42.5195"/>
    <path d="M200.199 165.4c2.385 4.795 4.782 9.582 7.193 14.363 1.645 3.26 3.383 6.471 5.215 9.629L209 191.2l-9.429-17.746-7.353-14.468-5.13-9.789.042-.383c.165-1.479-.753-2.864-2.18-3.287-1.632-.484-3.392-.272-4.864.586-.967.564-1.69 1.471-2.022 2.542-.455 1.472-.779 2.981-.968 4.511l.042 1c.057 1.312.285 2.611.682 3.863l2.459 8.734 3.404 9.17 1.426 3.117-.085 2.096-1.384 12.49-2.011 13.745c-.241 1.652.146 3.334 1.085 4.713 1.196 1.754 2.624 3.336 4.247 4.702 1.291 1.088 2.5 2.268 3.619 3.533l2.861 2.989.139.16.021 1.383c.017 1.076-.543 2.078-1.469 2.627l-1.138.054c-.832.038-1.639.296-2.341.745-.59.377-1.12.84-1.575 1.372-1.418 1.662-2.162 3.795-2.086 5.979v1.712l-3.49 5.873-5.065-.063.83 1.138c1.127 1.546 2.535 2.867 4.149 3.893v.916l.054 1.266.414 3.648 1.342 1.075 1.053.649 1.533.798 2.182.947.988.34 1.405.436 2.076.533 1.553.223 1.298.127h3.352l1.416-2.297c1.879-3.051 3.211-6.407 3.937-9.915.338-1.639.615-3.289.83-4.948.348-2.693 1.584-5.194 3.512-7.107.868-.861 1.84-1.612 2.894-2.234 2.357-1.391 4.999-2.231 7.725-2.457 4.014-.333 7.975-1.132 11.802-2.383 2.695-.881 5.255-2.131 7.608-3.713 1.03-.693 2.052-1.399 3.065-2.117 2.782-1.974 5.552-3.963 8.31-5.969l4.396-3.532 3.873-3.329 2.607-2.182c2.096-1.753 3.827-3.9 5.097-6.318.695-1.325 1.029-2.806.969-4.299l.074-1.713c.092-2.127.352-4.244.777-6.33l1.043-8.937.457-4.117c.108-.973.432-1.911.947-2.745.431-.696.897-1.371 1.395-2.021.885-1.157 1.307-2.602 1.18-4.053l53.271-27.842.809.915c1.222 1.384 2.862 2.331 4.672 2.702.73.149 1.486-.088 2-.628.475-.499.771-1.143.84-1.83.203-2-.151-4.016-1.022-5.83l3.065-4.063-5.309.521-.277-.426c-1.18-1.815-3.04-3.08-5.161-3.511-.599-.121-1.218.066-1.65.5-.65.655-1.072 1.502-1.202 2.416-.249 1.734.046 3.502.841 5.064L271.75 161.39l-.34-.66c-.653-1.263-1.758-2.233-3.096-2.713-.383-.137-.791-.18-1.193-.127-.248.033-.491.096-.723.191-.398.162-.76.401-1.064.702-.672.665-1.268 1.405-1.778 2.203-.754 1.183-1.368 2.451-1.83 3.777-.263.756-.403 1.55-.414 2.35-.028 1.929-.355 3.842-.969 5.671l-.713 3.127-.798 3.203-1.086 4.053-.914 3.479-2.309 9.394-.756.022c-2.637.074-5.267.308-7.875.702l.873-.724c.733-.607 1.39-1.301 1.957-2.063.593-.796 1.168-1.605 1.725-2.426.615-.906 1.129-1.876 1.532-2.894.168-.423.339-.845.511-1.266 1.129-2.754 1.659-5.717 1.553-8.692-.063-1.803-.209-3.603-.436-5.393-.602-4.756-1.198-9.511-1.787-14.268l-.565-3.074c-.598-3.265.047-6.635 1.809-9.447.299-.477.677-.897 1.117-1.244.578-.457 1.221-.827 1.905-1.097 3.341-1.321 6.234-3.573 8.332-6.489 2.934-4.076 5.019-8.699 6.13-13.597.553-2.438 1.807-4.66 3.608-6.394 1.371-1.322 2.605-2.779 3.682-4.351 1.109-1.619 2.236-3.227 3.383-4.82l33.117 24.119 4.064-4.415-78.533-58.2376c-3.682-2.7305-8.217-4.0586-12.791-3.7441-2.764.1894-5.469.9004-7.97 2.0957-3.74 1.7871-6.531 5.0976-7.661 9.0859-.159.5586-.213 1.1434-.16 1.7227.035.3777.271.707.617.8621.391.173.792.3195 1.203.4367.904.2559 1.861.2781 2.777.0633.862-.2032 1.696-.5137 2.479-.9258.598-.3137 1.123-.7488 1.543-1.2762.599-.7531 1.322-1.3965 2.139-1.9043 1.408-.875 2.955-1.5019 4.576-1.8515 1.336-.2883 2.699-.42 4.064-.3938 1.895.0371 3.75.5488 5.397 1.4895 1.536.8789 3.027 1.8339 4.468 2.8613 2.984 2.1309 5.925 4.3184 8.823 6.5644 2.369 1.8379 4.793 3.6043 7.267 5.2989.737.5039 1.448 1.0476 2.128 1.6269l-.415 1.0957c-.383 1.0137-.418 2.1258-.096 3.1602.502 1.6133 1.217 3.1523 2.129 4.574.487.763 1.017 1.498 1.585 2.203.652.809 1.045 1.795 1.128 2.83.078.972.192 1.941.34 2.905l-33.467-16.6819-15.099-7.8625-15.228-8.075-9.587-5.2129-3.949-2.352c-5.805-3.4566-12.993-3.6344-18.963-.4676-3.662 1.9426-6.142 5.5547-6.639 9.6711-.12.9852.538 1.8973 1.51 2.0957 1.154.2352 2.354.0743 3.406-.457.272-.1379.502-.343.67-.5957l1.565-1.6387c.894-.9375 2.006-1.6425 3.234-2.0539 5.053-1.6883 10.555-1.4343 15.43.7129 1.629.718 3.192 1.5754 4.672 2.5637l5.97 3.9902c4.608 3.0801 9.366 5.9278 14.258 8.5321l-.17.7128c-.371 1.5559.02 3.1946 1.054 4.4153 1.247 1.4715 2.386 3.0332 3.405 4.6704 1.686 2.705 2.257 5.957 1.596 9.075-1.174 5.542-3.34 10.825-6.394 15.596-4.222 6.594-8.783 12.965-13.665 19.086-1.214 1.524-2.05 3.315-2.436 5.224-.164.81-.12 1.647.128 2.436.312.997.676 1.977 1.086 2.936.659 1.546 1.291 3.102 1.893 4.671.738 1.918 1.565 3.8 2.48 5.638"/>
    <path fill="#ffcd00" d="M262.004 114.834l-27.465-12.171-.66 1.819c-1.303 3.593-3.411 6.839-6.163 9.491-.517.499-.902 1.121-1.117 1.808l-.468 1.787c-.845 3.228-1.573 6.486-2.181 9.767-.524 2.823-1.206 5.615-2.043 8.361-.763 2.504-1.736 4.938-2.905 7.278-1.819 3.639-4.602 6.707-8.045 8.873l.937.798c6.559 5.589 12.608 11.747 18.078 18.405v-1.361c0-8.477 1.537-16.883 4.533-24.811.958-2.531 2.739-4.667 5.055-6.064 3.086-1.86 5.935-4.09 8.483-6.639 1.013-1.015 2.056-2.001 3.127-2.957 4.521-4.037 8.203-8.924 10.834-14.384m-60.465 80.025l3.757-1.51-10.046-19.842-8.715-17.478-.18 2.478.733 1.022c1.132 1.574 2.066 3.281 2.778 5.084 1.374 3.477 2.909 6.888 4.597 10.224.851 1.682 1.539 3.442 2.054 5.256 1.42 5.005 3.096 9.934 5.022 14.766"/>
  </g>
</svg>
