<svg xmlns="http://www.w3.org/2000/svg" width="570.80585" height="506.68124" version="1">
  <path d="M285.40293.2c-16.4564 0-31.67743 8.7797-39.90625 23.0313L6.3717 437.38748c-8.2289 14.2519-8.2289 31.80945 0 46.06255 8.2275 14.2518 23.4497 23.0312 39.9062 23.0312h478.24998c16.4566 0 31.6788-8.7794 39.9063-23.0312 8.2289-14.2531 8.2289-31.81066 0-46.06255L325.30918 23.2313C317.08038 8.9797 301.85933.2 285.40293.2z" fill="#ce252c"/>
  <path d="M58.5606 453.33127L285.40276 60.43014l226.84212 392.90113H58.5606z" fill="#ffd100"/>
  <path d="M280.6407 401.45653c0-20.82274-16.879-37.7017-37.7004-37.7017-20.8216 0-37.7005 16.87896-37.7005 37.7017 0 20.82024 16.8789 37.70043 37.7005 37.70043 20.8214 0 37.7004-16.8802 37.7004-37.70043zm-104.5375 12.2089c0-14.07893-11.4114-25.4903-25.489-25.4903-14.0789 0-25.4916 11.41137-25.4916 25.4903 0 14.0789 11.4126 25.49153 25.4916 25.49153 14.0776 0 25.489-11.41263 25.489-25.49153zm291.0409-10.10513l-8.8638-15.35392c-12.0352.6025-22.0053 9.55135-23.9003 21.45274-1.8938 11.90015 4.805 23.50153 16.0577 27.81158 11.2538 4.31006 23.989.15 30.5278-9.97136l-8.8651-15.35393c.7225 5.96135-2.8488 11.6089-8.5451 13.5089-5.695 1.9013-11.9426-.46872-14.9464-5.67003-3.0013-5.20006-1.9313-11.79513 2.5638-15.77643 4.495-3.9838 11.1701-4.25378 15.9714-.6475zm-38.2117 10.10513c0-14.07893-11.4126-25.4903-25.4916-25.4903-14.0776 0-25.4903 11.41137-25.4903 25.4903 0 14.0789 11.4127 25.49153 25.4903 25.49153 14.079 0 25.4916-11.41263 25.4916-25.49153z"/>
  <path d="M163.2505 413.66543c0-6.98008-5.6575-12.63765-12.6363-12.63765-6.9801 0-12.6402 5.65757-12.6402 12.63765 0 6.98008 5.6601 12.64013 12.6402 12.64013 6.9788 0 12.6363-5.66005 12.6363-12.64013zm100.2537-12.2089c0-11.35764-9.2063-20.56524-20.5639-20.56524-11.3565 0-20.5641 9.2076-20.5641 20.5652 0 11.35764 9.2076 20.564 20.5641 20.564 11.3576 0 20.5639-9.20636 20.5639-20.564zm152.5756 12.2089c0-6.98008-5.6589-12.63765-12.639-12.63765-6.9801 0-12.6376 5.65757-12.6376 12.63765 0 6.98008 5.6575 12.64013 12.6376 12.64013 6.9801 0 12.639-5.66005 12.639-12.64013z" fill="#ffd100"/>
  <path d="M326.7024 324.36563V313.6305h-8.4101v77.3234h-22.8414c-1.7114-8.56135-5.4926-16.57518-11.0102-23.3415l-11.1476-77.9409c-1.0338-7.2301-7.2251-12.599-14.529-12.599H205.811c-7.2926 0-13.4788 5.3539-14.525 12.5702l-8.7015 59.99573-13.3976-.16v-12.33016h-7.8114V318.0568h-8.6776v19.09147h-7.8101v12.04015h-7.5551c-5.9162 0-10.7113 4.79506-10.7113 10.71012v36.13292c6.6113-8.99634 17.7014-13.53765 28.7265-11.7614 11.0215 1.77504 20.1253 9.56762 23.5791 20.184h22.1353c-1.1213-15.67142 6.6-30.6591 20.0152-38.8417 13.4127-8.1826 30.2741-8.1901 43.6955-.0188 13.4202 8.1701 21.1578 23.15153 20.0489 38.82546h47.3619l20.5264-20.529h103.0775L421.421 324.3656h-94.7186zm-166.4494 89.2998c0-5.32383-4.3176-9.63888-9.6388-9.63888-5.3239 0-9.6401 4.31505-9.6401 9.63888 0 5.3238 4.3162 9.63885 9.6401 9.63885 5.3212 0 9.6388-4.31505 9.6388-9.63885z"/>
  <path d="M260.078 401.45653c0-9.46637-7.6726-17.13646-17.1377-17.13646-9.464 0-17.1377 7.6701-17.1377 17.13646 0 9.46386 7.6737 17.13644 17.1377 17.13644 9.4651 0 17.1377-7.67258 17.1377-17.13644zm209.1161 12.2089c0-5.32383-4.3151-9.63888-9.6401-9.63888-5.3226 0-9.6388 4.31505-9.6388 9.63888 0 5.3238 4.3162 9.63885 9.6388 9.63885 5.325 0 9.6401-4.31505 9.6401-9.63885z"/>
  <path d="M200.451 298.6216c.6663-4.5226 4.5463-7.8751 9.1189-7.8751h20.5489l5.3239 55.39813h-41.9855l6.9938-47.52303zm63.692.0012l6.9938 47.52183H243.889l-5.3226-55.39813h16.4577c4.5725 0 8.4539 3.3525 9.1189 7.8763z" fill="#ffd100"/>
  <path d="M413.0809 413.66543c0-5.32383-4.3162-9.63888-9.6401-9.63888-5.3225 0-9.6388 4.31505-9.6388 9.63888 0 5.3238 4.3163 9.63885 9.6388 9.63885 5.3239 0 9.6401-4.31505 9.6401-9.63885z"/>
</svg>
