<?xml version="1.0" encoding="UTF-8" standalone="no"?>
<svg
   width="806.87"
   height="716.5"
   fill-rule="evenodd"
   version="1.1"
   id="svg12"
   sodipodi:docname="Sweden_road_sign_A40.svg"
   inkscape:version="1.1.1 (3bf5ae0d25, 2021-09-20)"
   xmlns:inkscape="http://www.inkscape.org/namespaces/inkscape"
   xmlns:sodipodi="http://sodipodi.sourceforge.net/DTD/sodipodi-0.dtd"
   xmlns="http://www.w3.org/2000/svg"
   xmlns:svg="http://www.w3.org/2000/svg">
  <defs
     id="defs16" />
  <sodipodi:namedview
     id="namedview14"
     pagecolor="#ffffff"
     bordercolor="#111111"
     borderopacity="1"
     inkscape:pageshadow="0"
     inkscape:pageopacity="0"
     inkscape:pagecheckerboard="1"
     showgrid="false"
     inkscape:zoom="1.0034892"
     inkscape:cx="285.50382"
     inkscape:cy="402.09701"
     inkscape:window-width="1920"
     inkscape:window-height="1057"
     inkscape:window-x="-8"
     inkscape:window-y="-8"
     inkscape:window-maximized="1"
     inkscape:current-layer="svg12" />
  <path
     d="M66.019,715.461 9.727,617.961 347.143,33.539 459.727,33.539 797.143,617.961 740.851,715.461"
     fill="#e42b38"
     stroke="none"
     id="path2" />
  <circle
     cx="66.019"
     cy="650.461"
     r="65"
     fill="#e42b38"
     stroke="none"
     id="circle4" />
  <circle
     cx="403.435"
     cy="66.039"
     r="65"
     fill="#e42b38"
     stroke="none"
     id="circle6" />
  <circle
     cx="740.851"
     cy="650.461"
     r="65"
     fill="#e42b38"
     stroke="none"
     id="circle8" />
  <path
     d="M83.339,640.461 403.435,86.039 723.531,640.461"
     fill="#fed300"
     stroke="none"
     id="path10" />
  <rect
     style="fill:#000000;fill-rule:evenodd;stroke:none;stroke-width:5.28142"
     id="rect378"
     width="460"
     height="30"
     x="173.435"
     y="575.461" />
  <path
     id="path238"
     style="fill:#000000;fill-opacity:1;fill-rule:evenodd;stroke:none;stroke-width:0.176388"
     d="m 403.435,428.461 c -37.49317,0 -72.7574,17.81816 -95,48 v 84 h 190 v -84 c -22.2426,-30.18184 -57.50683,-48 -95,-48 z"
     sodipodi:nodetypes="sccccs" />
  <path
     id="path232"
     style="fill:#000000;fill-opacity:1;fill-rule:evenodd;stroke:none;stroke-width:0.176387"
     d="m 311.435,349.461 28.5,77.864 c 19.54561,-10.41739 41.35263,-15.864 63.5,-15.864 22.14737,0 43.95439,5.44661 63.5,15.864 l 28.5,-77.864 z"
     sodipodi:nodetypes="ccsccc" />
  <path
     d="m 295.43533,357.46057 -61.99998,76.00055 65.99967,26.91988 c 8.60427,-10.39281 18.71493,-19.43924 30.00033,-26.83168"
     style="fill:#000000;fill-opacity:1;fill-rule:evenodd;stroke:none;stroke-width:0.176389"
     id="path230"
     sodipodi:nodetypes="cccc" />
  <path
     d="m 511.43467,357.46057 61.99998,76.00055 -65.99967,26.91988 c -8.60427,-10.39281 -18.71493,-19.43924 -30.00033,-26.83168"
     style="fill:#000000;fill-opacity:1;fill-rule:evenodd;stroke:none;stroke-width:0.176389"
     id="path230-7"
     sodipodi:nodetypes="cccc" />
  <path
     d="M 293.43473,565.46136 V 470.461 l -65,-21.99979 v 117.00015"
     style="fill:#000000;fill-opacity:1;fill-rule:evenodd;stroke:none;stroke-width:0.176389"
     id="path228"
     sodipodi:nodetypes="cccc" />
  <path
     d="M 513.43527,565.46136 V 470.461 l 65,-21.99979 v 117.00015"
     style="fill:#000000;fill-opacity:1;fill-rule:evenodd;stroke:none;stroke-width:0.176389"
     id="path228-8"
     sodipodi:nodetypes="cccc" />
</svg>
