<?xml version="1.0" encoding="utf-8"?>
<!DOCTYPE svg PUBLIC "-//W3C//DTD SVG 1.1//EN" "http://www.w3.org/Graphics/SVG/1.1/DTD/svg11.dtd">
<svg xmlns="http://www.w3.org/2000/svg" width="608.37335" height="540.03998">
  <g transform="matrix(1.33333 0 0 -1.33333 0 540.04)">
    <path fill="#e4002b" d="M419.433 0c13.166 0 25.33 7.02344 31.914 18.4246 6.582 11.4027 6.582 25.4492 0 36.8508L260.055 386.602c-6.583 11.402-18.748 18.425-31.913 18.425s-25.331-7.023-31.913-18.425L4.93711 55.2754c-6.58242-11.4016-6.58242-25.4481 0-36.8508C11.5195 7.02344 23.6852 0 36.8508 0H419.433"/>
    <path fill="#ffcd00" d="M409.614 42.5195H46.6699L228.142 356.838 409.614 42.5195"/>
    <path d="M228.075 170.238l-41.319 11.069-15.666 27.987 27.984 15.667 40.74-10.915c44.613-11.954 75.635-52.383 75.635-98.57V61.7949h-45.354v53.6811c0 25.66-17.235 48.12-42.02 54.762"/>
  </g>
</svg>
