<?xml version="1.0" encoding="utf-8"?>
<!DOCTYPE svg PUBLIC "-//W3C//DTD SVG 1.1//EN" "http://www.w3.org/Graphics/SVG/1.1/DTD/svg11.dtd">
<svg xmlns="http://www.w3.org/2000/svg" width="608.37335" height="540.03998">
  <g transform="matrix(1.33333 0 0 -1.33333 0 540.04)">
    <path fill="#e4002b" d="M36.8508 0C23.6852 0 11.5195 7.02344 4.93711 18.425c-6.58242 11.402-6.58242 25.4488 0 36.8504L196.229 386.602c6.582 11.402 18.748 18.425 31.913 18.425s25.331-7.023 31.913-18.425L451.347 55.2754c6.582-11.4016 6.582-25.4484 0-36.8504C444.764 7.02344 432.599 0 419.433 0H36.8508"/>
    <path fill="#ffcd00" d="M409.613 42.5195L228.142 356.838 46.6699 42.5195H409.613"/>
    <path d="M166.254 199.389l22.194 38.441-6.036 3.484 3.484 6.037 13.763 4.761 7.625-4.401-13.94-24.145-17.242-29.863-9.848 5.686m50.685-30.111c-6.062 3.465-10.369 9.338-11.849 16.161-1.639 8.595-.113 17.494 4.297 25.052 4.34 7.598 11.283 13.369 19.547 16.248 6.649 2.129 13.889 1.336 19.92-2.182 6.061-3.464 10.368-9.337 11.849-16.16 1.639-8.595.112-17.494-4.298-25.052-4.34-7.598-11.283-13.369-19.546-16.248-6.649-2.129-13.889-1.336-19.92 2.181"/>
    <path fill="#ffcd00" d="M222.625 179.128c-3.244 1.837-5.565 4.955-6.393 8.592-1.082 5.871-.016 11.935 3.004 17.085 2.95 5.19 7.669 9.146 13.294 11.144 3.563 1.101 7.424.65 10.637-1.24 3.245-1.838 5.565-4.957 6.394-8.592 1.082-5.872.016-11.937-3.004-17.086-2.951-5.19-7.669-9.145-13.294-11.144-3.563-1.101-7.425-.651-10.638 1.241"/>
    <path d="M137.406 199.679L46.6699 42.5195H409.613L137.406 199.679m158.807-9.813c0 6.263-5.076 11.339-11.339 11.339-6.261 0-11.338-5.076-11.338-11.339 0-6.261 5.077-11.338 11.338-11.338 6.263 0 11.339 5.077 11.339 11.338m-31.221-47.483l-5.669 9.819 56.693 32.732 5.668-9.82-56.692-32.731m42.492-4.926c0 6.263-5.077 11.339-11.338 11.339-6.262 0-11.339-5.076-11.339-11.339 0-6.263 5.077-11.339 11.339-11.339 6.261 0 11.338 5.076 11.338 11.339"/>
  </g>
</svg>
